<?xml version="1.0" encoding="utf-8"?>
<!-- Generator: Adobe Illustrator 23.0.0, SVG Export Plug-In . SVG Version: 6.00 Build 0)  -->
<svg version="1.1" xmlns="http://www.w3.org/2000/svg" xmlns:xlink="http://www.w3.org/1999/xlink" x="0px" y="0px"
	 viewBox="0 0 778.2 807.8" style="enable-background:new 0 0 778.2 807.8;" xml:space="preserve">
<style type="text/css">
	.st0{fill:#C36CDF;}
	.st1{fill:#E27FAD;}
	.st2{fill:#272A31;}
	.st3{fill:#67B6CE;}
	.st4{fill:#F1EFED;}
	.st5{fill:#C3BAC3;}
	.st6{fill:#EAF9FF;}
	.st7{fill:#FFFFFF;}
	.st8{fill:#0D0B43;}
	.st9{fill:#DFD8D2;}
	.st10{fill:#B2F2DE;}
	.st11{clip-path:url(#SVGID_2_);}
	.st12{fill:#69BA81;}
	.st13{fill:none;stroke:#9C9C9C;stroke-width:0.25;stroke-miterlimit:10;}
	.st14{clip-path:url(#SVGID_4_);fill:#C3BAC3;}
	.st15{fill:#DCF6FF;}
	.st16{fill:#4C4B70;}
	.st17{fill:#E4DED7;}
	.st18{fill:#3660A9;}
	.st19{fill:#F8E8DB;}
	.st20{fill:#CA332F;}
	.st21{fill:#E48F88;}
	.st22{fill:#E8A3A0;}
	.st23{fill:#E17571;}
	.st24{fill:#EFC4DB;}
	.st25{fill:#FAF0F5;}
	.st26{fill:#F2DBD9;}
	.st27{fill:none;stroke:#272A31;stroke-miterlimit:10;}
	.st28{fill:#F9F9F9;}
	.st29{fill:#D393E8;}
	.st30{fill:#487FE1;}
	.st31{fill:#A02EC4;}
	.st32{fill:#E2C359;}
	.st33{fill:#C9A12F;}
	.st34{fill:#F5DE81;}
	.st35{fill:#E9B3AF;}
	.st36{fill:#F6DF89;}
	.st37{fill:#F0CA3C;}
</style>
<g id="Stuff1">
	<g>
		<g>
			<g>
				<path class="st0" d="M499.3,549c0,0-7-10.8-7-16.6c0.1-5.8,6.8,3.2,7.6,12.1c0.8,8.9-0.9,4.9-0.9,4.9"/>
				<path class="st0" d="M506,534.7c0,0-7.7-11.9-7.6-18.2c0.1-6.4,7.5,3.6,8.3,13.4s-1,5.4-1,5.4"/>
				<path class="st0" d="M499.4,563.2c0,0-8.2-5.1-9.9-9.8c-1.7-4.7,6.5,0.5,9.8,7.5s-1,1-1,1"/>
			</g>
			<g>
				<g>
					<g>
						<path class="st0" d="M513,522.4c3.3-12.8-4.3-26-4.7-26.5c-0.2-0.4-0.8-0.6-1.2-0.3c-0.4,0.2-0.6,0.8-0.3,1.2
							c0.1,0.1,7.6,13.1,4.5,25.2c-1.3,5-4,10.1-6.6,15c-4,7.5-7.7,14.7-6.8,21.3c1.6,11.5,12.4,16.2,12.9,16.4c0.6-1.4-1-2.5-1-2.5
							l0,0c-2.9-1.7-9.1-6.1-10.2-14.1c-0.9-6.1,2.8-13,6.6-20.3C508.9,532.8,511.6,527.6,513,522.4z"/>
					</g>
				</g>
			</g>
			<path class="st0" d="M512.5,517.3c0,0-11.4-6-14.1-11.1c-2.7-5.1,7.5-0.5,12.6,6.9c5,7.4,1.6,4.7,1.6,4.7"/>
		</g>
		<g>
			<g>
				<path class="st1" d="M445.6,624.3c0,0-12.1-24.6-20.5-21.5C423.1,603.5,445.6,624.3,445.6,624.3z"/>
			</g>
			<g>
				<path class="st1" d="M452.3,632.5c0,0-1.2-0.9-3.3-2.3c0.6-0.1,1-0.1,1-0.1s-0.7-0.2-1.9-0.4c-6.6-4.2-19.8-11.6-28.8-9.8
					c-6.9,1.3,3.7,5,14.6,8c-5-0.1-10.1,0.4-13.7,2.5c-7.5,4.2,14.5,1.8,24.8,0.4C449.2,631.8,452.3,632.5,452.3,632.5z"/>
			</g>
		</g>
		
			<rect x="501.8" y="519.3" transform="matrix(0.9552 -0.2961 0.2961 0.9552 -140.7799 173.5405)" class="st2" width="1.8" height="64.6"/>
		
			<rect x="479.1" y="526.2" transform="matrix(0.9111 -0.4121 0.4121 0.9111 -183.64 246.6305)" class="st2" width="1.8" height="45.8"/>
		
			<rect x="468.3" y="530" transform="matrix(0.8434 -0.5373 0.5373 0.8434 -227.7805 339.9143)" class="st2" width="1.8" height="61.2"/>
		<polygon class="st3" points="518.9,581.2 533.6,569 554.1,582.5 538.4,588 528.8,589.2 		"/>
		<polygon class="st1" points="527.7,587.3 532.2,576.3 547,583.7 531.1,588.6 		"/>
		<polygon class="st3" points="468,609.6 430.3,650.7 445.6,613.1 456.9,592.1 486.2,559.8 531.1,588.6 571,578.9 588.1,591.6 
			583.9,596.6 		"/>
		<polygon class="st4" points="484.9,568 526.3,593.8 569.7,582.7 586.4,593.8 612.6,655.5 553.3,669.6 563.9,660.1 509.7,673.3 
			465,719.7 432.5,647.3 467.7,610.3 		"/>
		<g>
			<g>
				<polygon class="st5" points="535.9,638.8 541,637 547.1,651.2 546,652.8 541.9,652.8 534.9,640.9 				"/>
			</g>
		</g>
		<g>
			<g>
				<polygon class="st6" points="534.9,640.9 540.1,639.1 546,652.8 540.8,654.4 				"/>
			</g>
		</g>
		<g>
			<g>
				<polygon class="st5" points="519.9,642.9 525.1,641.1 531.1,655 530,656.5 525.9,656.6 519,644.6 				"/>
			</g>
		</g>
		<g>
			<g>
				<polygon class="st6" points="519,644.6 524.1,642.9 530,656.5 524.8,658.1 				"/>
			</g>
		</g>
		<g>
			<path class="st7" d="M509.9,644.6l11.2,25.9l-11.4,2.8c0,0-4.9,5.1-4.5,4.7c0.4-0.5-13.3-28.7-13.3-28.7L509.9,644.6z"/>
		</g>
		<g>
			<path class="st3" d="M505.2,678.3l-0.2-0.1c-0.1-0.1-0.1-0.1,0-0.3l0,0c0,0,0,0.1,0,0.1c0-1-7.9-17.6-13.2-28.5l-0.1-0.2l0.3-0.1
				l18.1-4.7l0.1,0.2l11.3,26.1l-11.6,2.8c-0.4,0.5-4.1,4.2-4.4,4.6c0,0,0,0,0,0L505.2,678.3z M492.3,649.4
				c10.3,21.3,12.6,26.7,13,28.1c0.3-0.4,0.9-1,2-2.1l2.3-2.4l0.1,0l11.1-2.7l-11.1-25.5L492.3,649.4z"/>
		</g>
		<g>
			<polygon class="st3" points="520.1,670.8 509.1,646.2 494,650 506.3,676.8 509.7,673.3 			"/>
		</g>
		<g>
			<g>
				<path class="st7" d="M502.6,658.2l7.6-2.2c0,0-1.9-4.8-5.8-3.6C500.3,653.7,502.6,658.2,502.6,658.2z"/>
			</g>
		</g>
		<g>
			<g>
				
					<rect x="526.9" y="650.5" transform="matrix(0.969 -0.2471 0.2471 0.969 -144.132 154.3094)" class="st7" width="31.4" height="1.8"/>
			</g>
		</g>
		<g>
			<g>
				<g>
					<polygon class="st7" points="536,666.9 530.9,654.9 532.5,654.2 537.7,666.5 					"/>
				</g>
			</g>
		</g>
		<g>
			<g>
				<g>
					<polygon class="st7" points="540.5,665.8 535.4,653.9 537,653.2 542.2,665.4 					"/>
				</g>
			</g>
		</g>
		<g>
			<g>
				<g>
					<polygon class="st7" points="544.8,664.7 539.6,652.6 541.2,651.9 546.6,664.3 					"/>
				</g>
			</g>
		</g>
		<g>
			<g>
				<g>
					<polygon class="st7" points="549.3,663.6 544,651.4 545.6,650.7 551,663.2 					"/>
				</g>
			</g>
		</g>
		<g>
			<g>
				<g>
					<polygon class="st7" points="554,662.5 548.9,650.7 550.5,650 555.7,662.1 					"/>
				</g>
			</g>
		</g>
		<g>
			<g>
				<g>
					<polygon class="st7" points="558.4,661.4 553.1,649.1 554.8,648.4 560.2,661 					"/>
				</g>
			</g>
		</g>
		<g>
			<g>
				<polygon class="st3" points="547.6,623.6 536.4,623 479.7,636.3 484.9,647.4 492.8,638.4 544.9,625.2 				"/>
			</g>
		</g>
		<g>
			<g>
				<g>
					<polygon class="st7" points="500.6,682.7 484.8,647.3 492.8,637 494.2,638 486.8,647.6 502,681.4 					"/>
				</g>
			</g>
		</g>
		<g>
			<g>
				<polygon class="st8" points="492.8,637 479.7,636.3 484.9,647.4 				"/>
			</g>
		</g>
		<polygon class="st9" points="468,609.6 500.6,682.7 465,719.7 432.5,647.3 		"/>
		<g>
			<g>
				<polyline class="st10" points="597.1,630.8 607.9,656.6 571.5,665.2 557.9,634.3 594.9,625.5 597.1,630.8 				"/>
			</g>
		</g>
		<g>
			<defs>
				<polyline id="SVGID_1_" points="597.1,630.8 607.9,656.6 571.5,665.2 557.9,634.3 594.9,625.5 597.1,630.8 				"/>
			</defs>
			<clipPath id="SVGID_2_">
				<use xlink:href="#SVGID_1_"  style="overflow:visible;"/>
			</clipPath>
			<g class="st11">
				<g>
					<g>
						<g>
							<path class="st12" d="M559,636.6c12.2-3.8,25.2-4.7,37.1-9.7c0.4-0.2-0.4-0.4-0.6-0.3c-11.8,4.9-24.9,5.9-37.1,9.7
								C558,636.4,558.8,636.6,559,636.6L559,636.6z"/>
						</g>
					</g>
				</g>
				<g>
					<g>
						<g>
							<path class="st12" d="M559.9,638.9c6.7-2.1,13.6-3.3,20.4-5.1c5.6-1.5,10.9-3.6,16.7-4.5c0.5-0.1,0.5-0.4,0-0.4
								c-5.4,0.8-10.4,2.6-15.5,4.1c-7.3,2.1-14.8,3.3-22,5.6C558.9,638.8,559.6,639,559.9,638.9L559.9,638.9z"/>
						</g>
					</g>
				</g>
				<g>
					<g>
						<g>
							<path class="st12" d="M560.7,640.8c5.9-0.9,11.5-2.8,17.3-3.8c6.7-1.2,12.9-3.5,19.4-4.9c0.6-0.1-0.2-0.4-0.4-0.3
								c-6,1.3-11.7,3.5-17.9,4.6c-6.3,1.1-12.4,3.1-18.7,4.1C559.9,640.5,560.3,640.8,560.7,640.8L560.7,640.8z"/>
						</g>
					</g>
				</g>
				<g>
					<g>
						<g>
							<path class="st12" d="M562.4,643.9c5.8-1.2,11.6-2.6,17.4-4.1c6.2-1.6,12.5-4.1,18.8-4.9c0.6-0.1,0.1-0.4-0.3-0.3
								c-5.4,0.7-10.4,2.8-15.7,4.1c-6.8,1.8-13.6,3.5-20.5,4.9C561.6,643.7,562.1,644,562.4,643.9L562.4,643.9z"/>
						</g>
					</g>
				</g>
				<g>
					<g>
						<g>
							<path class="st12" d="M563.6,646.3c12.3-2.5,24.1-5.3,35.9-9.2c0.5-0.2-0.2-0.4-0.5-0.3c-11.8,3.9-23.6,6.7-35.7,9.2
								C562.8,646.1,563.2,646.4,563.6,646.3L563.6,646.3z"/>
						</g>
					</g>
				</g>
				<g>
					<g>
						<g>
							<path class="st12" d="M564.9,649.1c5.8-0.9,11.7-1.9,17.5-3.2c6.3-1.4,12.3-4.1,18.7-5.3c0.6-0.1-0.1-0.4-0.4-0.3
								c-5.6,1.1-10.8,3.3-16.3,4.7c-6.5,1.7-13.2,2.8-19.9,3.8C563.9,648.9,564.6,649.2,564.9,649.1L564.9,649.1z"/>
						</g>
					</g>
				</g>
				<g>
					<g>
						<g>
							<path class="st12" d="M566.7,652.9c12.3-1.3,23.7-6.9,35.8-9.1c0.5-0.1-0.3-0.4-0.5-0.4c-12.1,2.1-23.6,7.8-35.8,9.1
								C565.7,652.6,566.5,653,566.7,652.9L566.7,652.9z"/>
						</g>
					</g>
				</g>
				<g>
					<g>
						<g>
							<path class="st12" d="M567.7,655.8c12.2-2.5,24-6,35.9-9.6c0.4-0.1-0.4-0.3-0.6-0.3c-11.8,3.6-23.6,7-35.7,9.6
								C566.7,655.6,567.4,655.9,567.7,655.8L567.7,655.8z"/>
						</g>
					</g>
				</g>
				<g>
					<g>
						<g>
							<path class="st12" d="M568.9,659.4c5.8-2.4,12.1-3.5,18.1-5.4c5.8-1.9,11.9-2.8,17.7-4.8c0.3-0.1-0.4-0.5-0.7-0.4
								c-5.8,1.9-11.9,2.9-17.7,4.8c-5.9,1.9-12.3,3.1-18.1,5.4C567.9,659.1,568.6,659.5,568.9,659.4L568.9,659.4z"/>
						</g>
					</g>
				</g>
				<g>
					<g>
						<g>
							<path class="st12" d="M606.2,652.9c-11.9,3-24.3,5-35.9,9c-0.4,0.1,0.4,0.4,0.6,0.3c11.6-4,24.1-6,35.9-9
								C607.2,653.1,606.4,652.8,606.2,652.9L606.2,652.9z"/>
						</g>
					</g>
				</g>
			</g>
		</g>
		<g>
			<g>
				<g>
					<path class="st6" d="M508.5,659.4c-0.3,0.1-0.6,0.2-1,0.3c-0.2,0.1-0.5,0.2-0.7,0.3c-0.3,0-0.4,0.1-0.2,0.1
						c0.2,0.1,0.3,0.2,0.5,0.3c-0.1-0.4,0.6-0.7,0.8-0.6c0.5-0.2,1-0.3,1.5-0.5c-1-0.4-1.9-0.4-3,0.1c-0.3,0.1-0.2,0.4,0,0.5
						c0.4,0.2,0.9,0,1.2-0.1c0.1,0,0.1,0,0.2,0.1c0.3,0.1,2.1,0,1.5-0.5c-0.6-0.5-1.8-0.3-2.5-0.2c-0.5,0.1-1.7,0.7-1.5,1.4
						c0,0.2,0.3,0.2,0.5,0.3c1.2,0.1,2.1-0.5,3.2-0.8C510.1,659.8,509.2,659.2,508.5,659.4L508.5,659.4z"/>
				</g>
			</g>
		</g>
		<g>
			<g>
				<polyline class="st5" points="546.6,625.7 540.5,633.7 486.8,647.6 494.2,638 546.6,625.7 				"/>
			</g>
		</g>
		<g>
			<g>
				<g>
					<polygon class="st7" points="532.1,667.8 516.3,632.3 517.9,631.6 533.8,667.4 					"/>
				</g>
			</g>
		</g>
		<g>
			<g>
				<g>
					<polygon class="st7" points="509.1,674 492.8,637 547.6,623.6 564.7,659.9 563,660.3 546.6,625.7 495.2,638.2 510.6,673.1 
						509.7,673.3 					"/>
				</g>
			</g>
		</g>
		<g>
			<g>
				<polygon class="st8" points="612.6,655.5 567.7,695.1 465,719.7 509.7,673.3 564.7,659.9 553.3,669.6 				"/>
			</g>
		</g>
		<g>
			<g>
				<polygon class="st5" points="550.3,609.3 557.9,607.5 566.3,626.6 565.3,627.5 558.6,628.4 549.6,610.7 				"/>
			</g>
		</g>
		<g>
			<g>
				<polygon class="st6" points="549.6,610.7 557.3,609.1 565.3,627.5 557.6,629.3 				"/>
			</g>
		</g>
		<g>
			<g>
				<polygon class="st5" points="563.4,606.3 571,604.5 579.3,623.6 578.3,624.5 571.6,625.4 562.6,607.7 				"/>
			</g>
		</g>
		<g>
			<g>
				<polygon class="st6" points="562.6,607.7 570.3,606 578.3,624.5 570.7,626.2 				"/>
			</g>
		</g>
		<g>
			<g>
				<polygon class="st5" points="576.3,603.3 583.9,601.5 592.2,620.6 591.2,621.5 584.6,622.4 575.5,604.7 				"/>
			</g>
		</g>
		<g>
			<g>
				<polygon class="st6" points="575.5,604.7 583.2,603.1 591.2,621.5 583.6,623.2 				"/>
			</g>
		</g>
		<g>
			<g>
				<path class="st13" d="M562.2,628.2"/>
			</g>
		</g>
		<g>
			<g>
				<path class="st13" d="M554.1,609.4"/>
			</g>
		</g>
		<g>
			<g>
				<path class="st13" d="M562.6,618.3"/>
			</g>
		</g>
		<g>
			<g>
				<path class="st13" d="M553.7,620.2"/>
			</g>
		</g>
		<g>
			<g>
				<path class="st13" d="M551.8,615.7"/>
			</g>
		</g>
		<g>
			<g>
				<polygon class="st5" points="508.3,604.8 507.1,606.6 496.6,607.6 489.7,598.5 491.8,596.4 503.6,593.6 				"/>
			</g>
		</g>
		<g>
			<g>
				<polygon class="st6" points="507.7,607.8 495.1,610.9 490.3,599.7 503,596.6 				"/>
			</g>
		</g>
		<g>
			<defs>
				<polygon id="SVGID_3_" points="468,609.6 500.6,682.7 465,719.7 432.5,647.3 				"/>
			</defs>
			<clipPath id="SVGID_4_">
				<use xlink:href="#SVGID_3_"  style="overflow:visible;"/>
			</clipPath>
			<path class="st14" d="M469.1,613.7c-6.5,5.8-13.3,12.2-18.8,19c-5,6.3-11.6,10.8-17.2,16.6c-0.2,0.2,0.6,0.3,0.8,0.1
				c4.9-4.9,11-8.9,15.5-14.2c6.3-7.5,13.2-14.8,20.6-21.3C470.1,613.6,469.3,613.6,469.1,613.7L469.1,613.7z"/>
			<path class="st14" d="M471.3,617.5c-7,4.7-12,11.7-17.9,17.7c-6.2,6.2-13,11.9-19.7,17.6c-0.2,0.2,0.6,0.2,0.8,0.1
				c6.7-5.7,13.5-11.4,19.7-17.6c5.9-5.9,10.9-12.9,17.9-17.7C472.3,617.4,471.5,617.3,471.3,617.5L471.3,617.5z"/>
			<path class="st14" d="M473.1,623.3c-3.4,3.4-6.7,6.7-10.4,9.8c-2.7,2.3-4.7,5.1-7.2,7.6c-2.8,2.7-6.5,4.3-9.4,6.9
				c-3.3,3-6.1,6.4-10,8.6c-0.3,0.2,0.6,0.3,0.8,0.2c3.4-1.9,5.9-4.6,8.7-7.3c3.1-3,6.8-4.7,10-7.4c3.3-2.8,5.7-6.4,9.1-9.2
				c3.3-2.8,6.4-6,9.5-9.1C474.1,623.3,473.3,623.1,473.1,623.3L473.1,623.3z"/>
			<path class="st14" d="M477,629.5c-7.1,3.9-13.1,9.8-19.2,15c-6.5,5.6-12.8,11.4-19.2,17.1c-0.2,0.2,0.6,0.2,0.8,0
				c6-5.4,12-10.8,18.1-16.1c6.4-5.5,12.8-11.8,20.3-15.9C478.1,629.4,477.2,629.4,477,629.5L477,629.5z"/>
			<path class="st14" d="M478.7,633.7c-12.5,10.6-25.1,21.3-38.6,30.6c-0.3,0.2,0.6,0.3,0.8,0.2c13.5-9.3,26.1-20.1,38.6-30.6
				C479.7,633.6,478.9,633.6,478.7,633.7L478.7,633.7z"/>
			<path class="st14" d="M479.9,639c-6.3,5.1-13.1,9.6-19.3,14.7c-2.9,2.4-5.4,5.1-8.4,7.4c-3.6,2.8-7.2,5.5-10.8,8.3
				c-0.3,0.2,0.6,0.4,0.7,0.2c6.3-4.8,12.4-9.6,18.3-14.9c6.3-5.7,13.7-10.2,20.3-15.5C480.9,639,480.1,638.8,479.9,639L479.9,639z"
				/>
			<path class="st14" d="M482.6,642.7c-6.8,5.3-14.1,10.2-20.7,15.7c-2.8,2.3-5.2,5.1-8,7.4c-3.2,2.7-6.7,5.1-10.2,7.5
				c-0.2,0.1,0.6,0.5,0.8,0.3c3.3-2.3,6.5-4.5,9.6-7.1c3-2.5,5.5-5.4,8.5-7.9c6.6-5.5,13.9-10.4,20.7-15.7
				C483.5,642.9,482.8,642.5,482.6,642.7L482.6,642.7z"/>
			<path class="st14" d="M484.4,647.5c-13,10.5-25.8,21-38.7,31.6c-0.2,0.2,0.6,0.2,0.8,0c12.9-10.6,25.7-21.1,38.7-31.6
				C485.4,647.3,484.5,647.3,484.4,647.5L484.4,647.5z"/>
			<path class="st14" d="M487,651.6c-3.5,2.7-7,5.3-10.8,7.5c-3.9,2.3-6.8,5-10,8.1c-6.2,6-12.7,11.7-19.5,17
				c-0.2,0.1,0.6,0.5,0.8,0.4c6.8-5.3,13.3-10.9,19.5-17c3-2.9,5.7-5.6,9.3-7.7c4-2.4,7.7-5,11.4-7.9
				C488,651.8,487.2,651.5,487,651.6L487,651.6z"/>
			<path class="st14" d="M489.3,655.4c-13,11-26.3,21.7-39.5,32.5c-0.2,0.1,0.6,0.4,0.8,0.2c13.2-10.8,26.5-21.5,39.5-32.5
				C490.3,655.4,489.5,655.2,489.3,655.4L489.3,655.4z"/>
			<path class="st14" d="M491.2,660.2c-7,5.8-13.9,11.6-20.9,17.4c-6.5,5.4-14,10.4-19.4,17c-0.2,0.2,0.7,0.4,0.8,0.2
				c5.4-6.5,12.9-11.6,19.4-17c7-5.8,13.9-11.6,20.9-17.4C492.2,660.3,491.5,660.1,491.2,660.2L491.2,660.2z"/>
			<path class="st14" d="M493,665c-6.8,6.5-13.3,13.1-20.9,18.5c-7,5-13.1,10.6-18.7,17.1c-0.2,0.2,0.6,0.5,0.8,0.3
				c5.6-6.5,11.7-12.1,18.7-17.1c7.7-5.4,14.2-12,20.9-18.5C494,665.1,493.2,664.9,493,665L493,665z"/>
			<path class="st14" d="M494.4,669.2c-5.9,7.4-12.7,13.6-20.1,19.5c-3.2,2.5-6.4,4.9-9.3,7.7c-3.3,3.2-5.2,6.6-9.5,8.9
				c-0.4,0.2,0.4,0.3,0.6,0.2c3.6-1.9,5.5-4.1,8-7.2c3.1-3.7,7.2-6.6,11-9.5c7.4-5.9,14.3-12.2,20.2-19.6
				C495.3,669,494.5,669,494.4,669.2L494.4,669.2z"/>
			<path class="st14" d="M496.8,674c-7.1,6.7-14,13.5-21.4,19.9c-6.8,5.7-11.7,13.3-19,18.4c-0.2,0.1,0.6,0.4,0.8,0.2
				c7.3-5.1,12.3-12.7,19-18.4c7.4-6.3,14.4-13.1,21.4-19.9C497.8,674,497,673.8,496.8,674L496.8,674z"/>
			<path class="st14" d="M498.7,678.1c-12.8,13.1-25.7,26.3-38.5,39.4c-0.2,0.2,0.6,0.3,0.8,0.1c12.8-13.1,25.7-26.3,38.5-39.4
				C499.7,678,498.9,677.9,498.7,678.1L498.7,678.1z"/>
		</g>
		<g>
			<g>
				<g>
					<polygon class="st7" points="569.9,627.5 569,625.9 580.8,623 581.7,624.6 					"/>
				</g>
			</g>
		</g>
		<g>
			<g>
				<g>
					<polygon class="st7" points="582.8,624.3 581.9,622.8 593.4,620 594.3,621.6 					"/>
				</g>
			</g>
		</g>
		<g>
			<g>
				<polygon class="st5" points="477.9,650.9 476.2,650.7 470.8,655.5 479,673.4 480.2,672.1 				"/>
			</g>
		</g>
		<g>
			<g>
				<polygon class="st5" points="458.7,671.8 456.9,671.5 451.5,676.3 459.7,694.3 461,692.9 				"/>
			</g>
		</g>
		<g>
			<g>
				<polygon class="st6" points="477.9,650.9 485.3,667.1 480.2,672.1 472.7,655.7 				"/>
			</g>
		</g>
		<g>
			<g>
				<polygon class="st6" points="458.7,671.8 466,687.9 461,692.9 453.4,676.5 				"/>
			</g>
		</g>
		<g>
			<g>
				<g>
					<polygon class="st7" points="478.5,675 477.6,673.4 485.9,665.2 486.7,666.9 					"/>
				</g>
			</g>
		</g>
		<g>
			<g>
				<g>
					<polygon class="st7" points="459.3,695.7 458.4,694.1 466.7,685.8 467.5,687.5 					"/>
				</g>
			</g>
		</g>
		<g>
			<g>
				<polygon class="st5" points="456,630.9 457.7,631.1 462.6,646.4 450.5,660.9 448.7,660.6 442.1,645.7 				"/>
			</g>
		</g>
		<g>
			<g>
				<polygon class="st6" points="457.7,631.1 464.4,646.7 450.5,660.9 443.9,645.9 				"/>
			</g>
		</g>
		<g>
			<g>
				<polygon class="st15" points="431.2,651.6 429.3,649.8 466.5,609.6 486.2,559.7 531.4,587.1 571.3,577.4 588.9,590.6 
					587.3,592.7 570.7,580.3 530.9,590 487.5,563.6 468.8,611.1 				"/>
			</g>
		</g>
		<g>
			<g>
				<polygon class="st15" points="529,587 526.5,586 533.8,568.7 554.7,581.3 553.4,583.6 535.1,572.5 				"/>
			</g>
		</g>
		<g>
			<g>
				<g>
					<path class="st5" d="M541.2,606.4c-0.9,0.2-1.9,0.4-2.8,0.6c-0.3,0.1-0.5,0.2-0.3,0.5c0.2,0.3,0.9,0.2,1.2,0.2
						c0.9-0.2,1.9-0.4,2.8-0.6c0.3-0.1,0.5-0.2,0.3-0.5C542.2,606.3,541.4,606.4,541.2,606.4L541.2,606.4z"/>
				</g>
			</g>
		</g>
		<g>
			<g>
				<g>
					<path class="st5" d="M540.5,608.4c-0.9,0.4-1.9,0.4-2.8,0.7c-0.3,0.1-0.3,0.3,0,0.5c0.3,0.2,0.9,0.2,1.2,0
						c0.9-0.3,1.9-0.3,2.8-0.7C542.5,608.6,540.9,608.2,540.5,608.4L540.5,608.4z"/>
				</g>
			</g>
		</g>
		<g>
			<g>
				<g>
					<path class="st5" d="M535.8,607.6c-0.4,0.1-0.8,0.2-1.3,0.3c-0.4,0.1,0,0.5,0.2,0.5c0.3,0.2,0.8,0.3,1.2,0.2
						c0.4-0.1,0.8-0.2,1.3-0.3c0.4-0.1,0-0.5-0.2-0.5C536.6,607.6,536.2,607.5,535.8,607.6L535.8,607.6z"/>
				</g>
			</g>
		</g>
		<g>
			<g>
				<g>
					<path class="st5" d="M523.4,622.6c0.7-0.1,1.5-0.3,2.2-0.5c1.1-0.4-0.4-0.8-0.9-0.6c-0.6,0.2-1.2,0.4-1.8,0.4
						c-0.2,0-0.7,0.1-0.6,0.5C522.4,622.7,523.2,622.6,523.4,622.6L523.4,622.6z"/>
				</g>
			</g>
		</g>
		<g>
			<g>
				<g>
					<path class="st5" d="M564.9,590.6c1-0.2,1.9-0.4,2.9-0.7c0.3-0.1,0.5-0.2,0.3-0.5c-0.2-0.3-0.9-0.2-1.2-0.1
						c-1,0.2-1.9,0.4-2.9,0.7c-0.3,0.1-0.5,0.2-0.3,0.5C563.9,590.8,564.6,590.7,564.9,590.6L564.9,590.6z"/>
				</g>
			</g>
		</g>
		<g>
			<g>
				<g>
					<path class="st5" d="M488.8,584.9c-0.7,0.1-1.4,0.3-2.1,0.5c-0.3,0.1-0.5,0.3-0.3,0.5c0.2,0.2,1,0.1,1.2,0
						c0.6-0.2,1-0.3,1.7-0.4c0.2,0,0.7-0.2,0.6-0.5C489.7,584.7,489,584.8,488.8,584.9L488.8,584.9z"/>
				</g>
			</g>
		</g>
		<g>
			<g>
				<g>
					<g>
						<path class="st16" d="M463.9,606.4c-0.9,0.8-1.7,1.6-2.5,2.5c-0.4,0.4,1.2,1,1.6,0.7c0.8-0.9,1.6-1.7,2.5-2.5
							C465.8,606.8,464.3,606.1,463.9,606.4L463.9,606.4z"/>
					</g>
				</g>
			</g>
			<g>
				<g>
					<g>
						<path class="st16" d="M459.4,607.9c-0.6,0.6-1.3,1.2-1.9,1.8c-0.5,0.4,1.2,0.5,1.6,0.2c0.6-0.6,1.3-1.2,1.9-1.8
							C461.5,607.6,459.8,607.5,459.4,607.9L459.4,607.9z"/>
					</g>
				</g>
			</g>
			<g>
				<g>
					<g>
						<path class="st16" d="M471.2,587.6c-0.9,0.9-1.9,1.7-2.8,2.6c-0.3,0.3,0.2,0.4,0.4,0.4c0.4,0.1,0.9,0,1.2-0.3
							c0.9-0.9,1.9-1.7,2.8-2.6c0.3-0.3-0.2-0.4-0.4-0.4C472,587.2,471.5,587.3,471.2,587.6L471.2,587.6z"/>
					</g>
				</g>
			</g>
			<g>
				<g>
					<g>
						<path class="st16" d="M443.8,626.9c-0.8,0.8-1.6,1.5-2.5,2.2c-0.3,0.2,0.4,0.5,0.5,0.5c0.3,0.1,0.8,0.2,1.1-0.1
							c0.9-0.7,1.7-1.4,2.5-2.2C445.8,627,444.2,626.5,443.8,626.9L443.8,626.9z"/>
					</g>
				</g>
			</g>
			<g>
				<g>
					<g>
						<path class="st16" d="M526.9,578.1c-0.5,0.5-1,0.9-1.6,1.2c-0.6,0.3,1,0.9,1.4,0.6c0.6-0.4,1.2-0.8,1.8-1.3
							C528.8,578.3,527.3,577.8,526.9,578.1L526.9,578.1z"/>
					</g>
				</g>
			</g>
		</g>
		<g>
			<g>
				<path class="st17" d="M548,597.3"/>
			</g>
		</g>
		<g>
			<g>
				<path class="st18" d="M499.5,522.2c0,0,3,4.6-21.7,15.7c-20.3,9-30.9,5.6-30.9,5.6s-1.8-15,1-18.7c8-10.5,19.5-13,19.5-13
					l14.6-2.4c0,0,10,2.6,13.1,4S499.5,522.2,499.5,522.2z"/>
			</g>
		</g>
		<g>
			<g>
				<path class="st8" d="M490.8,512.7c0,0,8.8,7.8-18.2,18.6c-20.9,8.3-27-0.3-27-0.3S474.7,509.6,490.8,512.7z"/>
			</g>
		</g>
		<g>
			<g>
				<path class="st8" d="M394.2,498.1c0,0,20.8,1.7,22.5,1.4c1.7-0.3,23.7-5.8,23.7-5.8l32.3-13.2l18.7-11.5l11.7-9.4l2.5-4l-26.2-6
					l-50.5,10.9l-34.8,21.2V498.1z"/>
			</g>
		</g>
		<g>
			<g>
				<path class="st19" d="M508.6,437.2c-0.1,2.9-0.3,5.7-0.6,8.6c-0.3,2.9-0.6,5.7-0.9,8.5l0,0.1l0,0.1c-2.6,7.8-5.3,15.5-8,23.2
					c-2.8,7.7-5.6,15.4-8.7,23c2.2-7.9,4.7-15.7,7.2-23.5c2.5-7.8,5.2-15.6,7.9-23.3l0,0.2c0.4-2.8,0.9-5.6,1.5-8.5
					C507.3,442.9,507.9,440,508.6,437.2z"/>
			</g>
		</g>
		<g>
			<g>
				<path class="st19" d="M498,431.4c-0.5,4.9-1.2,9.8-1.9,14.6c-0.7,4.9-1.5,9.7-2.3,14.6c-0.9,4.8-1.7,9.7-2.7,14.5l-1.5,7.2
					c-0.6,2.4-1.1,4.8-1.7,7.2c0.2-2.5,0.6-4.9,0.8-7.3l1-7.3c0.7-4.9,1.5-9.7,2.3-14.6c0.9-4.8,1.7-9.7,2.7-14.5
					C495.8,441,496.8,436.2,498,431.4z"/>
			</g>
		</g>
		<g>
			<g>
				<path class="st19" d="M469.6,425.8c0.7,5.5,1.2,10.9,1.6,16.4c0.5,5.5,0.8,10.9,1.2,16.4c0.3,5.5,0.6,11,0.8,16.4l0.2,8.2
					c0,2.7,0.1,5.5,0,8.2c-0.4-2.7-0.6-5.5-0.9-8.2l-0.7-8.2c-0.5-5.5-0.8-10.9-1.2-16.4c-0.3-5.5-0.6-11-0.7-16.4
					C469.7,436.8,469.5,431.3,469.6,425.8z"/>
			</g>
		</g>
		<g>
			<g>
				<path class="st19" d="M412.6,451.9c3.1,3.9,5.9,7.9,8.8,12c2.9,4,5.7,8.1,8.4,12.2c2.7,4.1,5.5,8.3,8.1,12.5l3.9,6.3
					c1.3,2.1,2.6,4.2,3.8,6.4c-1.5-1.9-3-4-4.5-5.9l-4.3-6c-2.9-4-5.7-8.1-8.4-12.2c-2.7-4.1-5.5-8.3-8.1-12.5
					C417.6,460.4,415,456.2,412.6,451.9z"/>
			</g>
		</g>
		<g>
			<g>
				<path class="st19" d="M392.2,478.5c3.7,2.7,7.3,5.5,10.9,8.4c3.6,2.9,7.1,5.8,10.6,8.8c3.5,3,7,6,10.4,9.1l5.1,4.7
					c1.7,1.6,3.3,3.2,5,4.8c-1.9-1.3-3.7-2.8-5.5-4.1l-5.4-4.3c-3.6-2.9-7.1-5.8-10.6-8.8c-3.5-3-7-6-10.4-9.1
					C398.8,484.9,395.4,481.8,392.2,478.5z"/>
			</g>
		</g>
		<g>
			<g>
				<polygon class="st20" points="501.8,454.3 488.9,451.9 488.9,454.4 502.9,458.4 503.2,459.6 504.7,461.6 505.7,459.7 				"/>
			</g>
		</g>
		<g>
			<g>
				<polygon class="st21" points="488.3,451.2 438.2,460.9 438.4,464.1 439.8,464.1 487.3,454.4 488.9,453.9 488.9,451.3 				"/>
			</g>
		</g>
		<g>
			<g>
				<polyline class="st22" points="438.2,460.9 392.2,497.6 395.3,500 439.4,465 				"/>
			</g>
		</g>
		<g>
			<g>
				<path class="st3" d="M496.6,483.9c0,0-0.4,22.9,2.8,38.3c0,0,0.4-3-10.8-0.8c-26.5,5.3-41.8,19.2-41.7,22c0,0-13-15.6-24.8-26.6
					c0,0,10-15.6,34.4-26.9C480.8,478.7,496.6,483.9,496.6,483.9z"/>
			</g>
		</g>
		<g>
			<g>
				<path class="st3" d="M537.8,162.9c0,0-19.1,4.5-21.4-33c-23.3-27.3-67.1-58.3-138.7-31.6c0,0-49.3-8.8-79.2,26.4
					c0,0-47.8-1.6-78,36.5c-1.8,2.3-3.4,4.9-4.8,7.5l0,0c0,0-47.5,28.2-56.3,84.5l56.3,59.9h56.3l235.9-98.6L537.8,162.9z"/>
			</g>
		</g>
		<g>
			<g>
				<path class="st22" d="M400.5,487.4l-9,10.6c0,0-137.1-61.7-193.5-123.3s-38.7-121.5-38.7-121.5s29.9-7,70.4,52.8"/>
			</g>
		</g>
		<g>
			<g>
				<path class="st23" d="M532.5,158.2c0,0,35.2,24.6,35.2,93.3c0,82.8-62.1,208.3-62.1,208.3l-2.8-3.8"/>
			</g>
		</g>
		<g>
			<g>
				<path class="st1" d="M502.9,456.1l-13.9-4.4c7-158.5-21.6-247.7-28.7-278.8c-1.1-4.8-3-15-3.4-20c-4-55.5,37-40.5,37-40.5
					s52.8,22.9,58.1,112.7c5.3,89.8-45.4,222.9-45.4,222.9"/>
			</g>
		</g>
		<g>
			<g>
				<path class="st24" d="M438.7,460.9l-47.2,37.2c0,0-140.6-98.7-184.7-239.5c0,0-17.6-59.9,49.3-72.2s98.6,77.5,98.6,77.5
					L438.7,460.9z"/>
			</g>
		</g>
		<g>
			<g>
				<path class="st25" d="M489.6,446.5c0,0,9.4-96.3-4.7-168.5s-22.9-109.2-54.6-135.6s-118-1.8-102.1,75.7
					c11.4,55.5,75.1,177.9,110.4,242.9l50.3-9.3"/>
			</g>
		</g>
		<g>
			<g>
				<path class="st3" d="M507.2,121.4c0,0-44.1-29.1-39.8,74c0,0-31.5-78.4-87.9-60.3c0,0-56.8,11.1-51.3,80.6
					c0,0-37.8-47.3-87.2-24.3c-44.7,20.8-29.2,78.2-25.5,93.9l-28-54.7c0,0-1.8-37,84.5-77.5l63.4-42.3l66.9-5.3H448
					C448,105.6,488.8,98.3,507.2,121.4z"/>
			</g>
		</g>
		<g>
			<g>
				<path class="st24" d="M469.5,201.5c-4-8.9-8.7-17.3-14.2-25.2c-5.4-7.9-11.7-15.1-18.8-21.3c-3.6-3-7.4-5.8-11.4-8.1
					c-4-2.3-8.3-4.2-12.6-5.5c-4.4-1.3-8.9-2.3-13.5-2.5c-4.6-0.3-9.2-0.1-13.7,0.7c-18.2,2.7-34.4,14.6-44.1,30.5
					c-2.5,4-4.5,8.2-6.1,12.6l-0.6,1.6l-0.5,1.7c-0.3,1.1-0.7,2.2-1,3.4c-0.5,2.3-1.1,4.6-1.4,7c-1.6,9.4-1.5,19.1-0.5,28.7
					c-2.5-9.4-3.6-19.3-2.9-29.1c0.1-2.5,0.6-4.9,0.9-7.4c0.2-1.2,0.5-2.4,0.8-3.7l0.4-1.8l0.5-1.8c1.3-4.8,3.3-9.5,5.7-13.9
					c2.4-4.4,5.3-8.6,8.6-12.4c3.3-3.8,7-7.3,11.1-10.4c8.2-6.1,17.9-10.1,28-11.8c5.1-0.8,10.2-1,15.3-0.6c5.1,0.3,10.2,1.4,15,3
					c9.7,3.3,18.4,8.9,25.6,15.9c7.3,6.9,13.2,15,18,23.5C463,183,467,192.1,469.5,201.5z"/>
			</g>
		</g>
		<g>
			<g>
				<path class="st20" d="M505,120.3c-3.9-1.3-8.1-1.6-12-0.7c-3.9,0.9-7.3,3-10,5.9c-2.7,2.8-4.8,6.2-6.5,9.9
					c-1.6,3.6-3.1,7.4-4,11.4c-2.2,7.8-3.3,15.9-4.3,24.1c-0.9,8.2-1.4,16.4-2,24.7c-0.8-8.3-1.1-16.6-0.7-24.9
					c0.4-8.3,1.4-16.7,3.6-24.8c1.1-4.1,2.6-8.1,4.4-11.9c1.9-3.8,4.3-7.5,7.6-10.4c1.6-1.5,3.4-2.7,5.4-3.7c2-0.9,4.1-1.6,6.2-1.9
					C497,117.4,501.4,118.3,505,120.3z"/>
			</g>
		</g>
		<g>
			<g>
				<path class="st1" d="M330.6,223.1c-5.7-7.3-12.4-13.9-19.7-19.4c-7.3-5.5-15.4-9.9-24.1-12.4c-8.6-2.5-17.8-2.9-26.5-1
					c-4.4,0.9-8.6,2.3-12.7,4.1c-4.1,1.8-8,4-11.5,6.7c-7.1,5.3-12.4,12.7-15.7,21c-3.4,8.3-4.7,17.4-5.1,26.5
					c-0.3,9.1,0.4,18.3,1.9,27.5c0.7,4.6,1.6,9.1,2.6,13.7c0.5,2.3,1,4.5,1.6,6.8l0.9,3.4l0.4,1.7c0.1,0.3,0.1,0.6,0.2,0.9
					c0,0,0,0,0,0.1c0.1,0-0.1,0.1-0.1,0c0,0,0-0.1-0.1-0.1l-0.1-0.2l-0.2-0.4l0.2,0.4l0.1,0.2c0,0,0,0.1,0.1,0.1c-0.1,0,0,0-0.1,0
					c-0.1-0.3-0.2-0.5-0.3-0.8l-0.6-1.6l-1.2-3.3c-0.8-2.2-1.5-4.4-2.3-6.6c-1.4-4.5-2.6-9-3.7-13.5c-2-9.1-3.4-18.5-3.4-28
					c-0.1-9.5,1.2-19.1,4.5-28.2c3.4-9.1,9.3-17.4,17.1-23.4c3.9-3,8.2-5.3,12.6-7.2c4.4-1.9,9.1-3.4,13.8-4.3
					c9.5-1.7,19.6-1.1,28.7,2c9.2,3,17.4,8.2,24.5,14.3C319.6,207.9,325.8,215,330.6,223.1z"/>
			</g>
		</g>
		<g>
			<g>
				<path class="st23" d="M158.7,255.5l-0.8,4.2c0,0,23.5-4.3,58.4,32.6L200,275.4l-14.3-12.9c0,0-8.7-5.4-9.1-5.4
					C176.3,257.1,163.2,253.5,158.7,255.5z"/>
			</g>
		</g>
		<g>
			<g>
				<path class="st19" d="M362.8,475.3c0,0,31.2,30.6,66.3,44.6c0.8,0.3-0.1-0.9,0.7-0.6c0,0-27.5-13.5-56.5-36.4"/>
			</g>
		</g>
		<g>
			<g>
				<path class="st19" d="M427,523.4c-0.1,0-0.2,0-0.3-0.1c-0.3-0.2-0.5-0.5-0.3-0.9c0.3-0.6,6.6-14.1,30-25.6
					c9.8-4.8,29.4-11.7,40.9-7.2c0.3,0.1,0.5,0.5,0.4,0.9c-0.1,0.3-0.5,0.5-0.9,0.4c-11.1-4.4-30.3,2.4-39.9,7.1
					c-23,11.3-29.4,24.8-29.4,24.9C427.5,523.2,427.3,523.4,427,523.4z"/>
			</g>
		</g>
		<g>
			<g>
				<circle class="st26" cx="485.2" cy="489.6" r="0.4"/>
			</g>
		</g>
		<g>
			<g>
				<circle class="st26" cx="491" cy="489.5" r="0.4"/>
			</g>
		</g>
		<g>
			<g>
				<circle class="st26" cx="457.4" cy="497.9" r="0.5"/>
			</g>
		</g>
		<g>
			<g>
				<circle class="st26" cx="429.8" cy="519.8" r="0.5"/>
			</g>
		</g>
		<g>
			<g>
				<path class="st1" d="M216.4,237.1c0,0-29.2,51.6,159.2,246.5c0,0-60.5-47.4-101.6-109.8s-60.9-94.1-60.9-94.1
					S208.2,243.4,216.4,237.1z"/>
			</g>
		</g>
		<g>
			<g>
				<path class="st24" d="M344.2,165.9c0,0-20.7,25-5,81.3l-8.5-19.3l-2.5-12.1l2.8-34.4L344.2,165.9z"/>
			</g>
		</g>
		<g>
			<g>
				<g>
					<path class="st25" d="M491.6,488.9c0.1-0.2-0.7,0-0.6-0.3c4.8-13.3,22.1-62.5,25.9-74.4c3.9-12.1,7.6-24.4,11.1-36.7
						c3.4-12.3,6.7-24.6,9.5-37c2.8-12.4,5.5-24.9,7.5-37.4c2.1-12.5,3.8-25.2,4.9-37.8c1.1-12.7,1.4-25.4,1.1-38l-0.5-9.5
						c-0.2-3.2-0.6-6.3-0.9-9.5c-0.2-3.2-0.9-6.3-1.3-9.4l-0.8-4.7l-1.1-4.6c-2.6-12.4-6.9-24.5-13-35.8c7.1,10.7,12,22.8,15.5,35.1
						c3.4,12.4,5.4,25.3,6.2,38.1c0.8,12.9,0.5,25.8-0.3,38.6c-1,12.8-2.6,25.6-4.7,38.3c-4.4,25.3-10.6,50.3-18.3,74.8
						C524.2,403.2,502.4,465.7,491.6,488.9z"/>
				</g>
			</g>
			<g>
				<g>
					<g>
						<path class="st25" d="M326.9,223.8c-7.3-39.1,8-62.7,22.1-75.6c12.9-11.9,29.7-18,47.3-17.2c52,2.3,73.2,65.2,74,67.9l-5,1.6
							c-0.2-0.6-20.9-62.1-69.2-64.2c-16.1-0.7-31.6,4.9-43.5,15.8c-13.1,12-27.3,34.1-20.4,70.8L326.9,223.8z"/>
					</g>
				</g>
			</g>
			<g>
				<g>
					<path class="st25" d="M509.7,123.5c-3.1-2.3-6.5-4-10.1-4.9c-3.6-1-7.4-1.1-10.8,0.1c-3.4,1.2-6.3,3.4-8.6,6.2
						c-2.3,2.8-4.1,6.1-5.7,9.4c-6.4,13.4-8.2,28.6-7,43.3c0.5,7.4,1.8,14.8,3.6,22c0.9,3.6,1.9,7.2,2.9,10.8
						c1.1,3.6,2.2,7.3,3.3,11c2.1,7.4,4,14.8,5.7,22.3c1.7,7.5,3.1,15,4.4,22.6c1.3,7.6,2.4,15.1,3.4,22.7c1,7.6,1.7,15.2,2.3,22.9
						c0.6,7.6,1.1,15.3,1.4,22.9c0.3,7.6,0.4,15.3,0.5,22.9c0,30.6-5.2,101-9.4,131.2c0-0.7-0.7,0.3-0.6-0.4
						c1.6-31.4,6-101,4.9-130.7c-0.6-15.2-1.6-30.3-3-45.4c-1.6-15.1-3.5-30.1-6.1-45c-2.7-14.9-5.9-29.7-9.9-44.2
						c-1-3.7-2.1-7.2-3.2-10.9c-1.1-3.7-2-7.5-2.8-11.3c-1.6-7.6-2.7-15.3-3.1-23.1c-0.3-7.8,0.1-15.7,1.7-23.4
						c1.5-7.7,4.2-15.2,8-22c1-1.7,2-3.4,3.1-5c1.1-1.6,2.3-3.2,3.7-4.7c2.7-2.9,6.2-5.3,10.2-6.3c3.9-1,8.1-0.5,11.7,0.8
						C503.6,118.8,506.9,120.9,509.7,123.5z"/>
				</g>
			</g>
			<g>
				<g>
					<g>
						<path class="st25" d="M218,294.9c-3.9-5.4-16.9-37-10.3-66.3c4-17.6,14.1-31,30.2-39.8c55.8-30.7,93.5,32.6,93.9,33.2
							l-4.6,2.7c-1.4-2.4-35.5-59.5-86.8-31.2c-14.7,8.1-23.9,20.3-27.5,36.4c-6.2,27.6,6.3,57.7,9.4,62L218,294.9z"/>
					</g>
				</g>
			</g>
			<g>
				<g>
					<path class="st25" d="M456.8,497.5c-6.1-9.4-30.2-55.4-36-65l-8.6-14.5c-2.8-4.8-5.7-9.7-8.4-14.6
						c-10.9-19.6-21.3-39.5-31-59.8c-2.5-5-4.7-10.2-7.1-15.3c-2.3-5.1-4.7-10.2-6.9-15.4c-4.4-10.3-8.7-20.7-12.8-31.2
						c-8-21-15.4-42.2-20.8-64.2l-0.1-0.4l0-0.3c0.4-5.6,0.9-11.2,1.7-16.7c0.7-5.5,1.6-11.1,2.9-16.6c0.7-2.7,1.4-5.5,2.4-8.1
						c0.9-2.7,2.2-5.2,3.5-7.7c2.6-4.9,5.4-9.8,8.9-14.1c-1.6,2.3-2.9,4.7-4.1,7.2c-1.2,2.5-2.4,5-3.4,7.6c-1.1,2.6-2.1,5.1-2.8,7.7
						c-0.8,2.6-1.3,5.3-1.7,8c-0.9,5.4-1.4,10.9-1.9,16.4c-0.4,5.5-0.7,11-0.7,16.5l-0.1-0.7c3,10.6,6.7,21.2,10.5,31.6
						c3.7,10.5,7.8,20.9,11.9,31.2c4.2,10.4,8.4,20.7,12.9,30.9c2.1,5.2,4.4,10.3,6.7,15.3c2.3,5.1,4.5,10.2,6.9,15.3
						c2.4,5,4.7,10.1,7,15.2c2.3,5.1,4.8,10.1,7.2,15.1c4.8,10.1,9.8,20.1,14.8,30.1c4.9,10.1,10.2,19.9,15.2,29.9
						c4.9,9.3,26.4,48.7,33.9,65.4C457.7,497.7,456.4,496.5,456.8,497.5z"/>
				</g>
			</g>
			<g>
				<g>
					<path class="st25" d="M391.5,498.1c-9.3-7.3-14.8-11.1-23.9-18.7c-4.5-3.9-8.9-7.7-13.4-11.6l-6.7-5.9c-2.2-2-4.3-4-6.5-6.1
						l-12.8-12.3c-2.2-2-4.2-4.2-6.3-6.3l-6.2-6.4c-8.3-8.4-16-17.4-23.9-26.2c-15.3-18.1-29.9-36.8-43-56.5c-3.2-5-6.6-9.8-9.6-15
						l-4.6-7.6l-4.4-7.7c-5.8-10.4-11.2-20.8-15.8-32l0-0.1l0-0.1c-2.5-8.4-5-16.8-7.4-25.2l-0.1-0.3l0-0.2l0.2-10.9l0.3-10.9l0-0.2
						l0-0.1l5.6-21.1l0-0.1l0.1-0.1c3.1-4.2,6.4-8.4,9.5-12.6c-2.9,4.4-5.6,8.9-8.6,13.3l0.1-0.2l-4.3,21.4l0-0.3l0.3,10.9l0.2,10.9
						l-0.1-0.5c2.8,8.3,5.6,16.6,8.3,24.9l-0.1-0.2c2.3,5.2,5,10.5,7.7,15.6c1.3,2.6,2.8,5.1,4.2,7.7l2.1,3.8l2.2,3.8l4.5,7.6
						l4.7,7.4c3.1,5,6.4,9.8,9.6,14.7c13.2,19.4,27.4,38,42.5,56.1c7.7,8.9,15.2,17.9,23.3,26.4l5.9,6.5c2,2.2,3.9,4.4,6,6.4
						l12.3,12.6c2.1,2.1,4.1,4.3,6.2,6.3l6.4,6.1c4.3,4.1,8.4,8.2,12.7,12.3c2.1,2.1,4.3,4,6.5,6l6.5,5.9
						C386.5,493.5,387.1,494.1,391.5,498.1z"/>
				</g>
			</g>
			<g>
				<g>
					<g>
						<path class="st25" d="M221.5,300.7c-37.6-49.9-62.3-45.3-62.7-45.3c0,0-2.7-3.1,1-5.2c0.1-0.1,26.3-5.3,65.9,47.3L221.5,300.7
							z"/>
					</g>
				</g>
			</g>
			<g>
				<g>
					<path class="st25" d="M298.4,124.8c0.2,1.7,0.6,3.4,1,5.1c0.4,1.7,0.9,3.4,1.4,5.1c1,3.4,2,6.7,3,10c2.1,6.7,4.2,13.3,6.4,20
						l13.1,39.9l6.5,20l6.4,20c4.3,13.3,8.4,26.7,12.3,40.2c-5.2-13-10.2-26.1-14.9-39.3c-4.8-13.2-9.3-26.4-13.7-39.8
						c-4.3-13.3-8.5-26.7-12.3-40.2c-1.9-6.7-3.7-13.5-5.4-20.3c-0.8-3.4-1.6-6.8-2.3-10.3C299.2,131.7,298.4,128.3,298.4,124.8z"/>
				</g>
			</g>
			<g>
				<g>
					<path class="st25" d="M377.6,98.3c11.5,3.6,22.1,9.6,31.9,16.6c9.8,7.1,18.7,15.3,26.6,24.5c2,2.3,3.7,4.7,5.6,7.1l2.8,3.6
						c0.9,1.2,1.7,2.5,2.5,3.8l4.9,7.6l4.3,8l2.1,4c0.7,1.3,1.2,2.7,1.9,4.1l3.6,8.3c0.3,0.7,0.6,1.4,0.8,2.1l0.7,2.1l1.4,4.3
						c1,2.8,1.9,5.7,2.8,8.6c-2.6-5.4-4.7-11-7.3-16.4l-4.1-8c-0.7-1.3-1.3-2.7-2-4l-2.3-3.8l-4.5-7.7l-5-7.3l-2.5-3.7l-2.7-3.5
						c-1.9-2.3-3.6-4.7-5.6-6.9l-5.9-6.6c-2-2.2-4.2-4.2-6.3-6.3c-2-2.2-4.3-4-6.5-6c-2.2-2-4.5-3.8-6.8-5.7
						C398.5,109.9,388.5,103.2,377.6,98.3z"/>
				</g>
			</g>
			<g>
				<g>
					<path class="st25" d="M215.6,168.8c-4.5,9.6-7.4,19.7-9.4,30c-1,5.1-1.7,10.3-2.1,15.5l-0.5,7.8l0.1,7.8
						c-0.1,2.6,0.3,5.2,0.4,7.8c0.2,2.6,0.3,5.2,0.8,7.8l1.1,7.7c0.5,2.6,1.2,5.1,1.7,7.7l0.9,3.8c0.2,1.3,0.8,2.5,1.1,3.8l2.3,7.5
						l0.5,1.9l0.7,1.8l1.4,3.7c1,2.5,1.9,4.9,2.8,7.4c-1.2-2.3-2.5-4.7-3.6-7.1l-1.8-3.6l-0.9-1.8l-0.7-1.8c-1.8-5-4.1-9.9-5.3-15.1
						c-0.7-2.6-1.5-5.1-2.1-7.7l-1.4-7.9c-0.6-2.6-0.7-5.3-0.9-8l-0.3-4c-0.1-1.3-0.2-2.7-0.2-4c-0.4-10.7,0.9-21.4,3.4-31.8
						c1.2-5.2,2.9-10.3,4.8-15.2C210.5,178.1,212.7,173.2,215.6,168.8z"/>
				</g>
			</g>
		</g>
		<g>
			<g>
				<g>
					<polygon class="st8" points="499.8,545.6 492.2,520.9 494,520.7 501.5,545 					"/>
				</g>
			</g>
		</g>
		<g>
			<g>
				<g>
					
						<rect x="475.2" y="527" transform="matrix(0.9111 -0.4121 0.4121 0.9111 -180.4519 244.2735)" class="st8" width="1.8" height="26.9"/>
				</g>
			</g>
		</g>
		<g>
			<g>
				<path class="st27" d="M485.6,586.5"/>
			</g>
		</g>
		<g>
			<g>
				<g>
					<polygon class="st8" points="470.5,564.4 452.9,536.8 454.3,535.8 472,563.4 					"/>
				</g>
			</g>
		</g>
		<g>
			<g>
				<g>
					<path class="st5" d="M490.2,623.3c1.2-0.2,2.5-0.4,3.7-0.7c0.4-0.1,0-0.5-0.2-0.6c-0.3-0.2-0.8-0.3-1.2-0.2
						c-1.1,0.3-2.3,0.5-3.4,0.6c-0.4,0-0.4,0.2-0.1,0.5C489.3,623.2,489.9,623.3,490.2,623.3L490.2,623.3z"/>
				</g>
			</g>
		</g>
		<g>
			<g>
				<g>
					<path class="st5" d="M494.2,624.1c0.5-0.2,1-0.3,1.5-0.4c0.2-0.1,0.7-0.2,0.6-0.5c-0.1-0.3-0.9-0.2-1.1-0.1
						c-0.6,0.1-1.3,0.3-1.9,0.5c-0.3,0.1-0.5,0.3-0.3,0.5C493.2,624.3,493.9,624.1,494.2,624.1L494.2,624.1z"/>
				</g>
			</g>
		</g>
		<g>
			<g>
				<path class="st23" d="M496,587.1c0,0-1.5-3.6-0.8-4.7c0.7-1,1.2,3.2,1.2,3.2s0.7-3.2,1.6-3.2c0.9,0-1,3.9-1,3.9s1.5-2.4,2.5-2.5
					s-1.9,2.8-2.3,3.2C496.7,587.4,496.2,587.7,496,587.1z"/>
			</g>
		</g>
		<g>
			<g>
				<path class="st23" d="M582.5,622c0,0,9.3-7.1,7-19.2c0,0-4.7,4.5-5.6,7l0.6,3.5l-1-2.2C583.5,611.1,580.7,614.9,582.5,622z"/>
			</g>
		</g>
		<g>
			<g>
				<g>
					<g>
						<path class="st18" d="M450.5,659.2c-6.8-7.2-14.8-7-14.9-7l0-0.5c0.1,0,8.3-0.2,15.3,7.2L450.5,659.2z"/>
					</g>
				</g>
			</g>
			<g>
				<g>
					<g>
						<path class="st18" d="M440,652.5c0,0-3.3,1.5-4.9,5C435.1,657.5,438.5,655.7,440,652.5z"/>
					</g>
				</g>
			</g>
			<g>
				<g>
					<g>
						<path class="st18" d="M443.3,654c-4.1-5-3.6-10.9-3.6-10.9l0.5,0c0,0.1-0.5,5.7,3.4,10.6L443.3,654z"/>
					</g>
				</g>
			</g>
			<g>
				<g>
					<g>
						<path class="st18" d="M439.6,638.4c0,0-1.5,2.6,0.4,6.5C440,644.8,441.2,641.8,439.6,638.4z"/>
					</g>
				</g>
			</g>
			<g>
				<g>
					<g>
						<path class="st18" d="M440.2,646.8c0,0-2.8-1.6-3.6-4.4C436.7,642.4,439.1,643.6,440.2,646.8"/>
					</g>
				</g>
			</g>
			<g>
				<g>
					<g>
						<path class="st18" d="M440.1,645.6c0,0,1.4-3.6,3.8-5C443.9,640.6,442.9,644,440.1,645.6z"/>
					</g>
				</g>
			</g>
			<g>
				<g>
					<g>
						<path class="st18" d="M441.4,650.5c0,0-3-1.3-3.7-3.5C437.7,647,440.4,648.6,441.4,650.5z"/>
					</g>
				</g>
			</g>
			<g>
				<g>
					<g>
						<path class="st18" d="M444.2,645.1c0,0-2.4,1.9-3.1,4.8C441.1,649.9,443.4,648.1,444.2,645.1z"/>
					</g>
				</g>
			</g>
			<g>
				<g>
					<g>
						<path class="st18" d="M445.7,654.9c0,0-3.8,0.8-6.1,3.8C439.6,658.8,443.5,658.4,445.7,654.9z"/>
					</g>
				</g>
			</g>
			<g>
				<g>
					<path class="st18" d="M456.2,648.2c0,0-1.3-3.6,0.9-7.1C457.1,641.1,458.2,644.8,456.2,648.2z"/>
				</g>
			</g>
		</g>
		<g>
			<g>
				<g>
					<path class="st18" d="M545.4,663.2l-0.4-0.4c2.4-2.2,3.9-5.4,3.3-14.3c-0.6-9.4,5.8-11.2,5.9-11.2l0.1,0.6
						c-0.2,0.1-6,1.7-5.4,10.6C549.5,657.6,547.9,660.9,545.4,663.2z"/>
				</g>
			</g>
		</g>
		<g>
			<g>
				<g>
					<path class="st18" d="M548.6,648.5c0,0,3.1-8.5,9.3-8.3c0,0-0.3,4-4.8,6.5c0,0-1.5,0.6-3.5,0.8l-0.9,1.1"/>
				</g>
			</g>
		</g>
		<g>
			<g>
				<g>
					<path class="st18" d="M548.7,653.6c0,0,2.5-3.2,4.7-4.2c2.2-1,7.5,1.7,8.4,2.5c0,0-2.6,1.8-5.2,1.5s-4.4-2.2-4.4-2.2
						S550.8,651.5,548.7,653.6z"/>
				</g>
			</g>
		</g>
		<g>
			<g>
				<g>
					<path class="st18" d="M548.8,651.9c0,0-1.5-2.6-2.3-3.2c0,0-1.9-6.5-6.9-7.3c0,0,0.4,5.4,5.2,7.6c0,0,0.8,0.2,1.5,0.2
						c0,0,2.2,2.3,2.5,3.2"/>
				</g>
			</g>
		</g>
		<g>
			<g>
				<g>
					<path class="st18" d="M548.6,645.1c0,0,0.3-2.3-1.1-4.1c-1.3-1.9-3.2-2.8-4.8-4s1.3,4.6,2.8,5.9S548.5,644.8,548.6,645.1z"/>
				</g>
			</g>
		</g>
		<g>
			<g>
				<g>
					<path class="st18" d="M549.9,641.6c0,0-1.8-3.7-0.3-7.1s3-4.6,3-4.6s0.3,3.9-0.8,6.4c-1.1,2.4-1.7,5-1.7,5"/>
				</g>
			</g>
		</g>
		<g>
			<g>
				<g>
					<path class="st1" d="M554.6,636.2c0,0,0.9-3.3,3.2-4c2.4-0.7,0.8,1.6,1.2,2c0.4,0.4,1,0.2,1.3,1.7c0,0.1,0.5,1.2,0.5,1.3
						c0,1.5-2.4,2.2-4.6,1.4C553.8,637.8,554.6,636.2,554.6,636.2z"/>
				</g>
			</g>
		</g>
		<g>
			<g>
				<g>
					<path class="st18" d="M553.8,637.7c0,0,0.4-1.8,1-2.1c0.6-0.3,0.2,1.2,0.2,1.2s1.5-0.7,1.5,0.1c0,0.7-1,0.8-1,0.8
						s1.6,0.7,1.3,1.2s-2.7-0.4-3-0.9L553.8,637.7z"/>
				</g>
			</g>
		</g>
		<g>
			<g>
				<polygon class="st28" points="544,658.3 546.4,664 545.2,664.5 544.5,661.8 				"/>
			</g>
		</g>
		<g>
			<g>
				<polygon class="st7" points="546.4,657 548.5,661.9 549.5,659.7 547.7,655.5 				"/>
			</g>
		</g>
		<g>
			<g>
				<polygon class="st28" points="547.6,649.2 545.4,649.7 547.3,651 548.4,650.7 				"/>
			</g>
		</g>
		<g>
			<g>
				<polygon class="st28" points="549.5,652.2 550.3,654.1 551.3,651.9 550.9,650.9 				"/>
			</g>
		</g>
		<g>
			<g>
				<polyline class="st28" points="547.9,649.1 549.5,648.7 549.2,651.4 549,650.7 548.3,650.8 547.9,649.2 				"/>
			</g>
		</g>
		<g>
			<g>
				<path class="st29" d="M480.1,661.3c0,0-4.4-0.7-5.9-2c-1.4-1.3,0.2-1.7,0.2-1.7s-2.8-0.8-3.3-2.5c-0.5-1.7,0.7-2.2,1.1-1.8
					c0,0-1.3-2.9,0-4.2c1.3-1.2,1.7,0.5,1.7,1.3s0.3,1.9,0.3,1.9s-0.1-1.5,0.9-1c1,0.5,0.7,3.3,0.7,3.3s0.5-0.4,1,0.2
					c0.5,0.7-0.2,2.2,0.3,3.5S480.1,661.3,480.1,661.3z"/>
			</g>
		</g>
		<g>
			<g>
				<path class="st0" d="M479.7,663.3c0,0-8.6-4.1-13.8,0c0,0-2.4,1.9-1.8,3.4c0.6,1.6,3.6,0,3.9-1.2c0.3-1.2-0.2,1.5,1,1.1
					c1.2-0.4,2.2-1.9,2.2-1.9s-0.1,1.6,1.3,0.8s1.8-2.2,3.1-2.4C476.8,662.9,479.7,663.3,479.7,663.3z"/>
			</g>
		</g>
		<g>
			<g>
				<path class="st18" d="M479.7,663.3c0,0-3.3-1.3-7-1.3C472.3,662.1,479.7,663.3,479.7,663.3z"/>
			</g>
		</g>
		<g>
			<g>
				<path class="st18" d="M478.3,660.5c0,0-3.3-2.6-3.9-5c-0.7-2.8,1.7,2.8,2.4,3.4C477.5,659.4,478.3,660.5,478.3,660.5z"/>
			</g>
		</g>
		<g>
			<g>
				<path class="st30" d="M484.3,666.6c0,0-3.5-1.4-3.6-2.2c-0.1-0.9,0.4-0.8,0.4-0.8s-2.5-1.1-2.3-2c0.2-0.9,0.4-0.5,0.4-0.5
					s-2.4-1.3-2.7-2.5c-0.4-1.2,1.7-0.7,3.3,0.6c0,0-0.4-1.2,0.6-0.8s1.6,2.7,1.6,2.7s0.2-1,1-0.3c0.8,0.6,1.3,4.4,1.4,5.1
					C484.3,666.6,484.3,666.6,484.3,666.6z"/>
			</g>
		</g>
		<g>
			<g>
				<path class="st18" d="M484.3,666.2c0,0-1.3-3.2-2.3-4.4c-1-1.1,1.7,3.9,1.7,3.9s-1.5-1.4-1.6-0.8c-0.1,0.6,2.2,1.7,2.2,1.7
					l0.1-0.1L484.3,666.2z"/>
			</g>
		</g>
		<g>
			<g>
				<path class="st31" d="M467.2,658c0,0-5.9-1.6-8.9,1c-1.2,1.1,4.6-0.7,8.2-0.7C468.2,658.3,467.2,658,467.2,658z"/>
			</g>
		</g>
		<g>
			<g>
				<path class="st10" d="M598.9,590c0,0-2-13.1,8-18C606.9,572.1,608.1,582.5,598.9,590z"/>
			</g>
		</g>
		<g>
			<g>
				<path class="st12" d="M611,577.6c0,0,3.5-7.7,10.5-6.7C621.6,570.9,618.6,576.8,611,577.6z"/>
			</g>
		</g>
		<g>
			<g>
				<g>
					<g>
						<path class="st18" d="M439.9,485.1c-25-15.4-40.7-49.7-40.9-50.1l1.2-0.5c0.2,0.3,15.7,34.3,40.4,49.5L439.9,485.1z"/>
					</g>
				</g>
			</g>
			<g>
				<g>
					<g>
						<path class="st18" d="M407.9,446.7c0,0,0.6-13.7,3.5-15.8C414.3,428.8,407.9,446.7,407.9,446.7"/>
					</g>
				</g>
				<g>
					<g>
						<path class="st18" d="M407.1,450.7l0.2-4c0.1-1.4,0.7-14,3.8-16.2c0.6-0.5,1.1-0.3,1.3-0.1c1.1,0.8-0.2,6.4-3.9,16.6
							L407.1,450.7z M411.6,431.7c-1.3,1.5-2.2,6-2.7,10.3C410.4,437.4,411.6,433.1,411.6,431.7z"/>
					</g>
				</g>
			</g>
			<g>
				<g>
					<g>
						<path class="st18" d="M400.7,437c0,0-0.4-9.2-3-16.8S395.3,427.1,400.7,437z"/>
					</g>
				</g>
				<g>
					<g>
						<path class="st18" d="M401.5,439.8l-1.4-2.5c-4.1-7.4-5.5-17.9-4.4-19.5c0.2-0.3,0.5-0.4,0.8-0.4c0.5,0.1,1,0.5,1.7,2.6
							c2.6,7.6,3.1,16.9,3.1,17L401.5,439.8z M396.7,419.5c-0.1,2.4,0.8,8.3,3,13.9c-0.4-3.3-1.1-8.5-2.7-13
							C396.9,420,396.8,419.8,396.7,419.5z"/>
					</g>
				</g>
			</g>
			<g>
				<g>
					<g>
						<path class="st18" d="M408.5,451.4c0,0-13.6-9.8-16.6-9.4c-3,0.4,17.1,9.7,17.1,9.7"/>
					</g>
				</g>
				<g>
					<g>
						<path class="st18" d="M394.1,444.9c-3.3-2-3.2-2.5-3.1-2.8c0-0.2,0.2-0.6,0.9-0.7c3.2-0.4,15.7,8.5,17.1,9.6l0,0
							c0.1,0.1,0.2,0.1,0.4,0.2l-0.6,1.2C401,448.7,396.6,446.4,394.1,444.9z M393.4,442.9c1.5,1,4.2,2.4,7.4,4
							C397.9,445.2,395.1,443.6,393.4,442.9z"/>
					</g>
				</g>
			</g>
			<g>
				<g>
					<g>
						<path class="st18" d="M415.8,461.3c0,0,1.4-12.2,4.9-17C424.2,439.6,416.8,459.5,415.8,461.3z"/>
					</g>
				</g>
				<g>
					<g>
						<path class="st18" d="M415.7,461.5c-0.1-0.1-0.2-0.2-0.2-0.3c0.1-0.5,1.4-12.4,4.9-17.1c0.3-0.4,0.8-1.1,1.3-0.8
							c1.4,0.9-5.5,17.9-5.6,18.1C416.1,461.6,415.9,461.6,415.7,461.5C415.7,461.6,415.7,461.5,415.7,461.5z M421.3,444.1
							c-0.1,0.1-0.2,0.2-0.3,0.4c-2.5,3.3-3.9,10.6-4.5,14.4C418.2,454.6,421.3,445.9,421.3,444.1z"/>
					</g>
				</g>
			</g>
			<g>
				<g>
					<g>
						<path class="st18" d="M421.7,468.4c0,0-17.3-9.5-20.6-7.5C399.3,461.9,421.7,468.4,421.7,468.4z"/>
					</g>
				</g>
				<g>
					<g>
						<path class="st18" d="M401.4,461.8c-0.5-0.3-0.7-0.5-0.8-0.7c0-0.2,0.1-0.4,0.3-0.5c3.4-2.1,19.1,6.5,20.9,7.5
							c0.1,0.1,0.2,0.3,0.1,0.4c-0.1,0.2-0.2,0.2-0.4,0.2C416.2,467.1,404.5,463.6,401.4,461.8z M401.4,461.1c1.1,1,9.1,3.6,17.2,6
							C413,464.2,403.9,460,401.4,461.1z"/>
					</g>
				</g>
			</g>
			<g>
				<g>
					<g>
						<path class="st18" d="M428,474.9c0,0,1.4-14.4,5-17.3C436.5,454.7,428,474.9,428,474.9z"/>
					</g>
				</g>
				<g>
					<g>
						<path class="st18" d="M427.8,475.2c-0.1-0.1-0.2-0.2-0.2-0.3c0.1-0.6,1.5-14.6,5.1-17.5c0.2-0.1,0.7-0.6,1.1-0.2
							c1.4,1-3.4,12.9-5.6,18C428.2,475.2,428,475.2,427.8,475.2C427.8,475.2,427.8,475.2,427.8,475.2z M433.4,457.6
							c0,0-0.1,0.1-0.3,0.2c-2.5,2.1-4,10.5-4.6,14.7C431.5,465.5,433.9,458.5,433.4,457.6z"/>
					</g>
				</g>
			</g>
			<g>
				<g>
					<g>
						<path class="st18" d="M427.6,474c0,0-2.8-5.3-2.3-8.3S427.6,474,427.6,474z"/>
					</g>
				</g>
				<g>
					<g>
						<path class="st18" d="M427.4,474.3c-0.1,0-0.1-0.1-0.1-0.1c-0.1-0.2-2.8-5.4-2.3-8.5c0-0.3,0.1-0.8,0.6-0.8
							c0.3,0,0.9,0,2.4,9.1c0,0.2-0.1,0.3-0.2,0.4C427.6,474.4,427.5,474.3,427.4,474.3z M425.6,466c-0.2,1.6,0.6,3.9,1.2,5.6
							C426.4,469.2,425.9,466.9,425.6,466z"/>
					</g>
				</g>
			</g>
			<g>
				<g>
					<g>
						<path class="st18" d="M400.5,436.8c0,0-5.6-1.9-7.4-4.4C391.4,429.9,400.5,436.8,400.5,436.8z"/>
					</g>
				</g>
				<g>
					<g>
						<path class="st18" d="M395.6,434.9c-1.1-0.7-2.2-1.5-2.8-2.4c-0.1-0.2-0.5-0.7-0.1-1c0.2-0.2,0.7-0.7,8,4.9
							c0.1,0.1,0.2,0.3,0.1,0.4c-0.1,0.1-0.2,0.2-0.4,0.2S397.8,436.2,395.6,434.9z M393.5,432.4c1,1.3,3.1,2.5,4.8,3.2
							C396.3,434.1,394.4,432.8,393.5,432.4z"/>
					</g>
				</g>
			</g>
		</g>
		<g>
			<g>
				<path class="st18" d="M536.4,561.6c-0.7,0.6-1.8,0.5-2.4-0.2c-1.6-2-4.4-6-3.9-8.6c0.7-3.6,5,6.4,5,6.4s0.2-5,2.1-6.6
					c1.9-1.6-0.7,7.1-0.7,7.1s1.7-2.5,2.4-1.9C539.7,558.4,538,560.1,536.4,561.6z"/>
			</g>
		</g>
		<g>
			<path class="st0" d="M508.2,499.5c0,0-5.5-6.1-5.7-10.9c-0.2-4.9,5.9,2.4,7,9.8s-1.2,0.6-1.2,0.6"/>
			<path class="st0" d="M512.3,508c0,0-0.4-8.4,2.5-12.4c3-4,3.1,5.7-0.8,12.3c-4,6.6-1.4-0.3-1.4-0.3"/>
			<path class="st0" d="M502.9,566.8c0,0,1.1-6.2,4-8.7s1.5,4.9-2.7,8.9c-2,2-1.4,0.3-1.4,0.3"/>
			<path class="st0" d="M513,521.7c0,0,4.8-11.4,9.4-14.7c5.6-3.9,1.3,7.2-6.6,14.2c-7.9,7-2.3-0.6-2.3-0.6"/>
			<path class="st0" d="M505.2,539.1c0,0,10.8-13.5,18.3-16.1c9-3.2-1.1,10.1-14.4,16.5c-13.3,6.4-2.8-1.8-2.8-1.8"/>
			<path class="st0" d="M500.4,555.8c0,0,7.7-9.7,13.1-11.5c6.4-2.3-0.7,7.2-10.3,11.8c-9.5,4.6-2-1.3-2-1.3"/>
		</g>
		<path class="st31" d="M567.9,557c0,0-2.7-13.3,5.8-19.5C573.7,537.5,577.4,546.2,567.9,557z"/>
		<path class="st3" d="M403.6,602.6c0,0-13.5,1.1-18.7-8.1C384.9,594.5,393.9,591.8,403.6,602.6z"/>
		<path class="st18" d="M406.9,479.3c0,0-10.6,3-16.1-3.5C390.8,475.8,397.6,472.2,406.9,479.3z"/>
		<path class="st24" d="M574.5,618.3c-0.3-0.2-1,0.8-1.7,1.8c0.9-3.6,1.2-6.3,0.1-5.1c-1.5,1.7-2.4,8.7-2.4,8.7
			c-1.3-7.8-3.1-12.8-3.3-9.3c-0.2,3.5,3,11.1,3,11.1l0.6-0.1c0.1,0,0.2,0,0.4-0.1C572.6,624.6,575.1,618.7,574.5,618.3z"/>
		<path class="st0" d="M409.2,416.5c0,0-5.2-17,6.6-30.4C415.9,386.1,420.4,400.8,409.2,416.5z"/>
		<path class="st31" d="M407.1,380.8c0,0-8.2-10.9-3-23.6C404.1,357.2,411.2,366.6,407.1,380.8z"/>
		<g>
			<g>
				<path class="st10" d="M454.1,655.3c0,0,1.6-3.9,0.5-5.7c-1.1-1.7-2,4.8-2,4.8s-2-5.3-3.9-5.3s3.2,6.3,3.2,6.3s-3.7-2.9-4.4-1.3
					s4.4,3.3,4.4,3.3L454.1,655.3z"/>
			</g>
		</g>
		<g>
			<g>
				<g>
					<g>
						<path class="st32" d="M431.9,647.1c0,0-1.4-0.5-2.1,0.6c-0.7,1.1,0.3,1.5-0.3,2.4s-1.1,1.3-0.6,2.4c0,0-0.8,1.4,0.1,2.1
							c0,0-0.2,1.7,1.4,1.6c1.6,0,2.8-2.4,2.8-2.4l0.8-4L431.9,647.1z"/>
					</g>
				</g>
			</g>
			<g>
				<g>
					<g>
						<path class="st33" d="M432.1,648.9c0,0-2.5,1.7-0.7,5.4c1.8,3.7,2.1-4.1,2.1-4.1L432.1,648.9z"/>
					</g>
				</g>
			</g>
			<g>
				<g>
					<g>
						<path class="st34" d="M437.1,651.8c0,0,0.4-2.6-2.6-4.9s-3.2,0.3-2.7,1c0.5,0.7-0.7,3.1,0.5,4.6c0,0-1.9,1.7-1.2,2.8
							c0,0-1.1,1.2-0.4,1.8C431.4,657.8,435.9,656.3,437.1,651.8z"/>
					</g>
				</g>
			</g>
		</g>
		<g>
			<g>
				<g>
					<polygon class="st7" points="448,663.9 447.1,662.3 464.9,644.5 465.7,646.2 					"/>
				</g>
			</g>
		</g>
		<g>
			<g>
				<path class="st18" d="M497.9,609.1c0,0-1.4-3.9-7.4-8.8c-6.2-5-7.2-7.5-7.3-7.6l0.7-0.3c0,0,1.1,2.5,7.1,7.4
					c6.2,5,7.6,8.9,7.7,9.1L497.9,609.1z"/>
			</g>
			<g>
				<path class="st18" d="M495.7,605.4c0-3.5-1.6-6.7-1.6-6.7l0.6-0.3c0.1,0.1,1.6,3.4,1.7,7L495.7,605.4z"/>
			</g>
			<g>
				
					<rect x="495.2" y="602.1" transform="matrix(0.4141 -0.9102 0.9102 0.4141 -257.39 805.0945)" class="st18" width="3" height="0.7"/>
			</g>
		</g>
		<g>
			<g>
				<g>
					<path class="st22" d="M482.8,593.2c0,0-10.6-3.6-11.9-8.5c-1.3-4.9,10.3,5.3,10.3,5.3s-4.4-7.3-3.8-11.7s7.3,12.5,7.3,12.5
						s0.5-6.7,3.4-7.9s-0.8,9.7-2.1,10.3S482.8,593.2,482.8,593.2z"/>
				</g>
			</g>
			<g>
				<g>
					<path class="st23" d="M483.8,593.4c0,0-5.3-1.1-5.9-3.2C477.3,588.1,483.8,593.4,483.8,593.4z"/>
				</g>
			</g>
			<g>
				<g>
					<path class="st23" d="M484.3,593.4c0,0-2.4-3.9-2-5c0.4-1.1,2.4,4.7,2.4,4.7s0.1-2,1.1-2.3c1-0.3-0.8,2.6-0.8,2.6
						s-0.1,0.1-0.4,0C484.3,593.4,484.3,593.4,484.3,593.4z"/>
				</g>
			</g>
		</g>
		<path class="st12" d="M496.5,609.4c0,0-4.8-2.4-6-4.9c-1.2-2.4,6.4,4.3,6.4,4.3s-5.2-5.8-4-7.7c1.2-2,4.3,7.2,4.3,7.2
			s0.8-5.1,1.4-6.2s2,1.6-0.3,6.8L496.5,609.4z"/>
		<g>
			<g>
				<g>
					<polygon class="st7" points="494.2,611.5 493.2,609.9 510.5,605.7 511.4,607.3 					"/>
				</g>
			</g>
		</g>
		<g>
			<g>
				<g>
					<path class="st35" d="M490.7,597.1c0,0-2.6-2-2.2-2.9c0.4-0.9,2.6,0.4,2.6,0.4s-0.2-2.5,0.9-2.7s1.2,4.4,1.2,4.4
						s1.3-3.7,2.5-3.8c1.2-0.1-0.8,4.9-0.8,4.9l-2.7,1.1L490.7,597.1z"/>
				</g>
			</g>
			<g>
				<g>
					<path class="st23" d="M493.8,598.9c0,0-5.9-1.4-6.2-3.1c-0.3-1.7,5,1.2,5,1.2s-3.2-2.3-2.8-3.8s3.3,3.1,3.3,3.1
						s-0.8-3.8-0.1-4.5c0.7-0.8,1,4.6,1,4.6s1.5-4.8,2.6-4.8c1,0-1.5,6.4-2.2,7.4L493.8,598.9z"/>
				</g>
			</g>
		</g>
		<path class="st23" d="M498.9,598.3c-0.8,0.5-1.3,1.7-1.6,2.6c0.4-1.4,0.9-3.9-0.1-3.7c-1.2,0.1-0.2,4.8-0.2,4.8
			C498.4,601.2,500.2,597.4,498.9,598.3z"/>
		<path class="st18" d="M486.9,598.9c0,0-5.7-3.9-13.8-1.8C473.1,597.1,478.6,601.2,486.9,598.9z"/>
		<g>
			<path class="st18" d="M547.8,604.9c-6.2-4.3-8.5-9.4-8.6-9.6l0.7-0.3c0,0.1,2.3,5.2,8.4,9.3L547.8,604.9z"/>
		</g>
		<g>
			<path class="st18" d="M556.9,622.8l-0.7-0.1c1-7.6-1.8-16.1-1.9-16.2l0.7-0.2C555.1,606.4,557.9,615,556.9,622.8z"/>
		</g>
		<g>
			<path class="st18" d="M560.6,628.8c-2.1-2-6.3-9.1-6.5-9.4l0.6-0.4c0,0.1,4.4,7.3,6.4,9.3L560.6,628.8z"/>
		</g>
		<g>
			<g>
				<g>
					<path class="st33" d="M554.4,614.9c0,0-0.8-0.4-2.1,0c-1.3,0.4-2.2,2-1.6,2.9s3.7-0.7,3.7-0.7l0.1-2.2H554.4z"/>
				</g>
			</g>
			<g>
				<g>
					<g>
						<path class="st36" d="M553.4,614.8c0.4,0.9,0.4,2.2,0.3,3.2c0,0.3-0.3,0.8-0.2,1c-0.1,0.2-0.1,0.2,0.2,0.2
							c0.4,0.1,0.4,0,0-0.1c-0.5-0.3-1-0.5-1.4-0.9c-0.1-0.1-0.2-0.3-0.4-0.4c-0.1-0.2-0.3-0.3-0.5-0.2c-0.4,0-0.5,0-0.1,0
							c0.4,0,0.8,0,1.1-0.2c0.4-0.1,0.7-0.3,0.9-0.6c0.1-0.1,0.8-1.1,0.5-1c-0.3-0.1-0.6-0.2-0.9-0.2c0.3,0.3,0.2,1.2,0.2,1.6
							c0,0.2-0.1,0.6,0,0.7c0.1,0,0.2-0.1,0.3-0.1c-0.1-0.2-0.2-0.3-0.2-0.6c-0.6,0-1.2,0.1-1.7,0.1c0.5,0.5,0.6,1.3,1.3,1.6
							c0.3,0.1,1.5,0.2,1.5-0.3c0-1.1-0.2-2.1-1.5-1.9c-1,0.1-1.3,1.1-0.7,1.9c0.3,0.4,2,0.1,1.7-0.2c-0.3-0.3-0.3-0.8-0.1-1.2
							c-0.1,0.1-0.3,0.1-0.4,0.2c0.1,0,0.1,0,0.2,0c-0.4,0-0.8-0.1-1.2-0.1c0.3,0.2,0.3,1.1,0.2,1.5c0.5-0.1,1-0.2,1.5-0.3
							c-0.1,0-0.3-0.5-0.3-0.6c-0.1-0.3-0.3-0.5-0.6-0.7c-0.2-0.2-1.8-0.4-1.7,0.1c0.2,1.1,1.2,1.5,2.2,1.4c1.3-0.1,1.2-1,1.2-2.1
							c0-1.1-0.3-1.6-1.5-1.4c-0.5,0.1-0.8,0.3-1.1,0.7c-0.2,0.2-0.3,0.4-0.4,0.6c-0.3,0.3-0.5,0.4-0.9,0.4c-0.3,0.1-0.9,0.1-1,0.4
							c-0.2,0.4,0.4,0.9,0.7,1.2c0.7,0.7,1.7,1.4,2.8,1.5c1,0.1,1.8-0.2,2-1.3c0.3-1.2,0.2-2.9-0.3-4
							C554.9,614.1,553.2,614.3,553.4,614.8L553.4,614.8z"/>
					</g>
				</g>
			</g>
			<g>
				<g>
					<path class="st37" d="M554.7,619.6c0,0,0.6-1.3,0.2-2.3c-0.4-1.1-0.4,1.8-0.4,1.8s-1.2-1.9-1.4-1.5s1.2,1.7,1.2,1.7
						s-1.9-0.9-2.2-0.5C551.9,619.1,554.1,619.9,554.7,619.6z"/>
				</g>
			</g>
		</g>
		<g>
			<g>
				<g>
					<polygon class="st7" points="556.9,630.6 555.9,629 567.8,626.1 568.7,627.7 					"/>
				</g>
			</g>
		</g>
		<g>
			<g>
				<g>
					<path class="st33" d="M558.8,601c0,0-0.6-1.2-2-1.2c-0.9,0-1.1,0.4-1.6,0.6c-0.5,0.1-0.8-0.5-1.9-0.6c-1,0-2,0.1-1.9,1.3
						c0.1,1.1,2.3,2.3,2.4,2.2C554.1,603,558.8,601,558.8,601z"/>
				</g>
			</g>
			<g>
				<g>
					<path class="st36" d="M555.7,607.3c0,0,4.2-2.3,4.2-5.6c0.1-3.2-2.3-0.2-4-0.4c-1.7-0.2-2.3-1.3-3.4-0.9
						c-1.2,0.4-1.9-0.4-2.3,0.5c-0.4,0.9,0.8,4.6,3.3,5.9C555.1,607.7,555.7,607.3,555.7,607.3z"/>
				</g>
			</g>
			<g>
				<g>
					<path class="st37" d="M554.8,607.3c0,0-2.2-2.5-1.7-3.5c0.5-1,2,3.3,2,3.3s1.2-2.8,1.9-2.9c0.7,0-0.7,2.3-1.2,3
						C555.3,608,554.8,607.3,554.8,607.3z"/>
				</g>
			</g>
		</g>
		<path class="st18" d="M541.3,601c0,0-7.1-3.4-14.7-0.2C526.6,600.8,533.9,604.4,541.3,601z"/>
		<path class="st18" d="M556.6,615.3c0,0,0.3-4.2,6.2-6.2C562.7,609.1,562.4,612.8,556.6,615.3z"/>
		<path class="st18" d="M560.6,607.6c0,0-0.6-2,1.9-3.9C562.5,603.7,563,605.5,560.6,607.6z"/>
		<path class="st18" d="M558.4,625.4c0,0-3.1-2.2-7.6-0.7C550.8,624.7,553.7,626.8,558.4,625.4z"/>
		<polyline class="st8" points="487.5,563.6 485.6,568.4 526.3,593.8 569.7,582.7 586.4,593.8 587.3,592.7 570.7,580.3 530.9,590 
			487.5,563.6 		"/>
		<g>
			<g>
				<g>
					<path class="st33" d="M530.3,590.3c0,0-0.4-0.6,1-2.3c1.5-1.8,5.6-4.3,7.2-3.5c1.6,0.8,0.6,3.4,0.6,3.4L530.3,590.3z"/>
				</g>
			</g>
			<g>
				<g>
					<path class="st36" d="M535.7,595.8c0,0-7.3-1.4-7.4-4.6c0,0,0-1,1.2-1.6s2.1-0.1,2.9-1.4c0.9-1.3,0.1-2.1,2.1-3.5
						c2-1.4,3.8,1.4,3.8,1.4s-0.8-2.5,1-2.7c1.8-0.2,2.7,1.7,2.5,4.9c-0.2,3.2-1,7.2-2.2,7.7C538.3,596.4,535.7,595.8,535.7,595.8z"
						/>
				</g>
			</g>
			<g>
				<g>
					<path class="st37" d="M539.9,595.7c0,0,1.8-3.3,1.1-6.1c-0.8-2.8-1,4-1,4s-1.5-4.5-2.2-3.6C537.2,591,539,594.8,539.9,595.7z"
						/>
				</g>
			</g>
			<g>
				<g>
					<path class="st37" d="M539.6,595.9c0,0-3.9-0.2-4.5-1.4C534.5,593.3,539.6,595.9,539.6,595.9z"/>
				</g>
			</g>
		</g>
		<polygon class="st8" points="551.2,582.3 546.5,583.5 533.3,576.8 535.1,572.5 		"/>
	</g>
</g>
<g id="Nube2">
	<path class="st7" d="M550.8,716H392.1c-0.7,0-1.4,0-2.1-0.1c0,0,0,0.1,0,0.1h-86.3c-2.1-3.3-3.4-7.3-3.4-11.6
		c0-11.1,8.4-20.2,18.8-20.5c5-16.5,19.6-28.4,36.8-28.4c9.6,0,18.4,3.7,25.2,9.9c3.3-1.7,7-2.7,11-2.7c13.9,0,25.1,11.9,25.1,26.6
		c0,1.1-0.1,2.2-0.2,3.3c3.7-2.1,8-3.3,12.6-3.3c5.8,0,11.2,2,15.6,5.3c3.6-4.9,9.3-8.1,15.7-8.1c8.2,0,15.2,5.1,18.1,12.3
		c4.3-1.9,9.2-3,14.4-3c11,0,20.6,4.8,26,12c2.9-0.8,5.9-1.3,9.1-1.3C537.5,706.7,545.5,710.3,550.8,716z"/>
</g>
<g id="Nube1">
	<g>
		<path class="st7" d="M665.9,324.8H469.8c-0.6-1.4-1-2.8-1-4.3c0-9.8,15.2-17.8,34-17.8c2.5,0,5,0.1,7.4,0.4
			c3.3-5.8,9.9-9.8,17.6-9.8c6.5,0,12.2,2.8,15.8,7.1c2.8-4.3,7.6-7.1,13.1-7.1c2.9,0,5.5,0.8,7.8,2.1c5-11,18-18.8,33.2-18.8
			c17.1,0,31.3,9.8,34.7,22.9c4.5,2.2,7.9,5,9.6,8.2C655.9,310.1,665.9,316.8,665.9,324.8z"/>
	</g>
</g>
</svg>
