<svg xmlns="http://www.w3.org/2000/svg" xmlns:xlink="http://www.w3.org/1999/xlink" viewBox="0 0 1054.9 814.3"><style>.st0{fill:#fff}.st1{fill:#0d0b43}.st2{fill:#79c0f8}.st3{fill:#7fe09a}.st4{fill:#eec83c}.st5{fill:#68b880}.st6{fill:#9e2ec2}.st7{fill:#d191e6}.st8{fill:#487fdf}.st9{fill:#b3dfe1}.st10{fill:#c16cdd}.st11{fill:#edc2d9}.st12{fill:#b0f0dc}.st14{fill:#e07fab}.st15{fill:#c8332f}.st16{fill:#daf4ff}.st18{fill:#66b4cc}.st19{fill:#efecea}.st20{fill:none}.st23{fill:#c1b8c1}.st28{fill:#e8f7ff}.st31{fill:#3660a7}</style><g id="map"><path class="st0" d="M199.8 654.9l-5.1-6.5 41-32 62.3-7v-24.9l28.6-44.2.5-.5 436.3-342.7L892.7 67.9l5.8 5.8-129.6 129.6-.2.2-435.9 342.4-26.5 41.1v29.8l-67.3 7.6z"/><path class="st0" d="M301.2 589.8L249.6 578l-.7-.6L72.4 436.1l5.1-6.5 175.8 140.7 49.8 11.4z"/><path transform="rotate(-46.402 640.402 386.028)" class="st0" d="M636.3-9.4h8.3v790.9h-8.3z"/><path class="st0" d="M77.6 598.6l-5.3-6.4 422.5-345.5 171-141.9 5.3 6.4-171 141.9z"/><path transform="rotate(-45.895 691.39 251.674)" class="st0" d="M687.3-6.2h8.3v515.8h-8.3z"/><path class="st0" d="M449.1 786l-5.3-6.3L769.2 508l.1-.1L982.6 345l5 6.5-213.2 162.9z"/><path class="st0" d="M731.3 635.2l-257.8-204-191.3-161.7 5.3-6.3 191.2 161.7 257.7 203.8z"/><path transform="rotate(-50.359 455.855 564.963)" class="st0" d="M451.8 289h8.3v552h-8.3z"/><path transform="rotate(-52.019 392.007 683.23)" class="st0" d="M387.8 569.2h8.3v227.9h-8.3z"/><path class="st0" d="M484.1 593.5L479 587l311.4-240 70.5-61.8 5.4 6.3-70.6 61.9-.1.1z"/><path transform="rotate(-48.807 383.889 422.406)" class="st0" d="M379.7 359.9h8.3v125h-8.3z"/><path transform="rotate(-45.474 794.652 176.11)" class="st1" d="M791.8 175.2h5.5v1.8h-5.5z"/><path class="st1" d="M304.3 596.9v-11.1h1.8v11.1h-1.8zm9.2-22.2l-1.5-1 6.1-9.3 1.5 1-6.1 9.3zm13.7-21l-1.5-1 5.6-8.7.8-.7 1.1 1.4-.6.5-5.4 8.5zm16.9-17.4l-1.1-1.4 8.7-6.8 1.1 1.4-8.7 6.8zm19.7-15.4l-1.1-1.4 8.7-6.9 1.1 1.4-8.7 6.9zm19.6-15.4l-1.1-1.4 8.7-6.9 1.1 1.4-8.7 6.9zm19.7-15.5l-1.1-1.4 8.7-6.8 1.1 1.4-8.7 6.8zm19.6-15.4l-1.1-1.4 8.7-6.9 1.1 1.4-8.7 6.9zm19.7-15.4l-1.1-1.4 8.7-6.9 1.1 1.4-8.7 6.9zm19.6-15.4l-1.1-1.4 8.7-6.8 1.1 1.4-8.7 6.8zm19.6-15.4l-1.1-1.4 8.7-6.9 1.1 1.4-8.7 6.9zm19.7-15.4l-1.1-1.4 8.7-6.9 1.1 1.4-8.7 6.9zm19.6-15.4l-1.1-1.4 8.7-6.8 1.1 1.4-8.7 6.8zm19.7-15.4l-1.1-1.4 8.7-6.9 1.1 1.4-8.7 6.9zm19.6-15.5l-1.1-1.4 8.7-6.9 1.1 1.4-8.7 6.9zm19.6-15.4l-1.1-1.4 8.7-6.8 1.1 1.4-8.7 6.8zm19.7-15.4l-1.1-1.4 8.7-6.9 1.1 1.4-8.7 6.9zm19.6-15.4l-1.1-1.4 8.7-6.9 1.1 1.4-8.7 6.9zm19.7-15.4l-1.1-1.4 8.7-6.8 1.1 1.4-8.7 6.8zm19.6-15.4l-1.1-1.4 8.7-6.9 1.1 1.4-8.7 6.9zm19.7-15.4l-1.1-1.4 8.7-6.9 1.1 1.4-8.7 6.9zm19.6-15.5l-1.1-1.4 8.7-6.8 1.1 1.4-8.7 6.8zm19.6-15.4l-1.1-1.4 8.7-6.9 1.1 1.4-8.7 6.9zM737 228l-1.1-1.4 8.7-6.9 1.1 1.4-8.7 6.9zm19.6-15.4l-1.1-1.4 8.7-6.8 1.1 1.4-8.7 6.8zm19.2-16.1l-1.3-1.3 7.8-7.9 1.3 1.3-7.8 7.9zM300 617.8l-.2-1.8 4.6-.6v-4.6h1.8l.1 6.3zm-85.9 26.1l-1.1-1.4 8.2-6.4 1.1 1.4-8.2 6.4zm18.4-14.3l-1.1-1.4 6.9-5.4 2.1-.2.2 1.8-1.6.2-6.5 5zm21-6.7l-.2-1.8 10.3-1.1.2 1.8-10.3 1.1zm23.2-2.6l-.2-1.8 10.3-1.1.2 1.8-10.3 1.1z"/><path transform="rotate(-37.945 201.139 652.846)" class="st1" d="M198.4 651.9h5.5v1.8h-5.5z"/><path class="st2" d="M367.4 653.6s-2.4-21.2-1.2-22.6c2-2.4 3.4 19.9 3.4 19.9s.9-20.7 3.7-23.9-1.6 27-1.6 27 4.7-6.7 7.3-7.1c2.6-.4-6.3 10.9-6.3 10.9l-5.3-4.2z"/><path class="st3" d="M830.9 329.9s-8.7-6.2-18 2.5-29.1 12.1-25.9 20.3c3.2 8.3 19 6.8 24 5.8 11.9-2.3 35.3-15.4 19.9-28.6z"/><path class="st4" d="M300 345.1s18.3-7.1 30.4 4.2c12.2 11.3-7.5 27.4-28.3 26.7-18.1-.5-27.1-18.7-2.1-30.9z"/><path class="st5" d="M311.5 354l2.2 1.1c.2.1.2.4.1.5l-13.4 11.2-.4-3.1 11.5-9.7z"/><path class="st3" d="M307.5 349.5l5.9 2.9-13.4 11.2-22-10.5 1.9-1.4z"/><path class="st5" d="M278 353.1l.4 3.1 22 10.6-.4-3.2z"/><path class="st0" d="M311 354.4l2 .9-12.7 10.8-.3-2.5z"/><path class="st6" d="M312 348.3l1.4.9-19.5 12.6.1-2.1z"/><path class="st7" d="M287.4 330.6l26 16.7-19.4 12.4-25.6-16.8z"/><path class="st6" d="M268.4 342.9v2.2l25.5 16.7.1-2.1z"/><path class="st0" d="M311.4 348.7l.8.5-18.3 11.7.1-1.2z"/><path class="st8" d="M317.1 346.7l2.1 1.4c.5.3.5 1 0 1.3l-18.1 11.7v-4l16-10.4z"/><path class="st9" d="M296 329.1l22.8 15.4c.4.3.4.9 0 1.2l-17.7 11.4-26-16.6 20.9-11.4z"/><path class="st10" d="M469 444.3s21.2-3.4 21.8 11.1c.9 20.9-55.2 24.2-38.6 4.3 6.1-7.3 4.8-13.5 17.8-15.7"/><path class="st6" d="M521 321.6s6.4 5.9 15.2 3.7c8.7-2.2 15.2-.7 17.4 8.6 3.4 14.6-27.4 32.7-42.6 17.1-15.2-15.7-1.6-36.6 10-29.4z"/><path class="st11" d="M300.7 601.7c-.1-5.4-3.5-10.3-8.4-12.4-3.4-1.5-7.5-4.5-11.1-10.5-7.8-13.2-29.7-14.2-36.6 8.5s9.2 35.5 31.8 27.2c15.8-5.8 24.3-7.7 24.3-12.8z"/><path class="st12" d="M861.3 594.2c-2.2-6.4-7-11.6-13-14.7-10.9-5.5-36.2-19.3-62.2-39.6-34.4-26.8-76-18.8-83.9 27.6-7.8 46.4 39.4 100.8 112.2 79.3 45.4-13.4 51-40.6 46.9-52.6z"/><circle class="st1" cx="234.6" cy="572.3" r="5.2"/><path class="st1" d="M254.8 560.3c4.2 0 7.9 2.7 9.8 6.6.4-.1.9-.1 1.3-.1 4.5 0 8.3 3.5 9.3 8.3h-31.3c-.1-.7-.2-1.4-.2-2.2 0-6.9 5-12.6 11.1-12.6zm-4.5 35.1c-.8 0-1.6 0-2.4-.1l.1-1.8c4.8.4 8.1-.4 9.6-2.1 1.3-1.5.9-3.2.8-3.3l1.8-.4c0 .1.6 2.7-1.2 4.9-1.5 1.8-4.5 2.8-8.7 2.8z"/><path class="st1" d="M247.1 577.4h1.8v27.4h-1.8z"/><path class="st1" d="M246.4 589.2c-3.2 0-5.8-.9-7.6-2.7-3.3-3.2-3.1-8.1-3.1-8.3l1.8.1-.9-.1.9.1s-.2 4.3 2.5 6.9c1.8 1.7 4.4 2.4 7.8 2.1l.2 1.8c-.5.1-1 .1-1.6.1zm.7 11.2c-3.6 0-6.2-.9-7.8-2.6-1.8-1.9-1.5-4.1-1.5-4.2l1.8.2c0 .1-.1 1.5 1.1 2.8 1.3 1.4 3.8 2.1 7.2 1.9l.1 1.8c-.4.1-.6.1-.9.1z"/><path class="st2" d="M238.2 586.8c-4.1 0-7.4 3.3-7.5 7.4h15c-.1-4.1-3.4-7.4-7.5-7.4zm11.7-25.2c-5.3 0-9.8 3.4-12.2 8.3-.5-.1-1.1-.1-1.7-.1-5.6 0-10.3 4.4-11.6 10.4h39.1c.1-.9.2-1.8.2-2.7.1-8.8-6.2-15.9-13.8-15.9z"/><path transform="rotate(-65.537 294.532 590.674)" class="st1" d="M284.2 589.7h20.7v1.8h-20.7z"/><path class="st14" d="M302.1 574.2c2.8.2 4.9 1 6.5 2-2.7-3.3-6.7-5.3-11.3-5.3-5.7 0-10.7 3.3-13.1 8.1 2.3 2.1 4 4.8 4.6 8 4.9 0 9.2 2.5 11.9 6.3 5.8-10.1 1.4-19.1 1.4-19.1z"/><path class="st15" d="M311.1 590c.5-1.4.7-2.9.7-4.5 0-3.5-1.2-6.7-3.3-9.2-1.6-1.1-3.7-1.8-6.5-2 0 0 4.4 9-1.4 19.1 2.5-2.1 5.8-3.4 9.3-3.4.5-.1.8 0 1.2 0z"/><circle class="st1" cx="302.1" cy="574.2" r="1"/><path class="st12" d="M264.6 604.2c-1 0-1.9.3-2.7.8-1-4.2-3.1-7-5.5-7-3.4 0-6.2 5.9-6.2 13.3v.9h20.6v-.4c0-4.3-2.7-7.6-6.2-7.6z"/><path class="st5" d="M719.8 565.8s-3.9-16.4.7-21.2c4.6-4.7 6.3 15.8 6.3 15.8s1.7-4.7 5.8-4.3c5.6.6 6.3 9.7 6.3 9.7h-19.1z"/><path class="st6" d="M736.3 548s-1.4-8.4 2.9-13.3c5-5.6 10.2-1 10.2-1s1.5-8.4 7.2-8.4c6.6 0 9.1 8.2 9.8 14.2 0 0 4.3 0 5.1 5v3.5h-35.2z"/><path class="st1" d="M732.5 541.3c-11.1-.2-12.9-8.3-12.9-8.4l1.8-.4c.1.3 1.6 6.7 11.1 6.9v1.9zm-.2-16.8c-1.4 0-2.6-.5-3.4-1.4-1.9-2-1.7-5.4-1.7-5.6l1.8.1-.9-.1.9.1s-.2 2.8 1.2 4.2c.4.4.8.6 1.4.7v-5.8h1.8v7.7h-.9c0 .1-.1.1-.2.1z"/><path class="st1" d="M731.6 523.6h1.8v29.3h-1.8z"/><path class="st1" d="M732.6 537.4v-1.8c5.6 0 9.5-1.3 11.7-3.8 2.2-2.6 1.8-5.6 1.8-5.6l1.8-.3c0 .2.6 3.9-2.2 7.1-2.5 2.9-6.9 4.4-13.1 4.4zm0 10.1v-1.8c2.6 0 4.4-.6 5.5-1.9 1.4-1.7.9-4 .9-4.1l1.8-.4c0 .1.7 3.2-1.2 5.6-1.5 1.7-3.8 2.6-7 2.6z"/><path class="st10" d="M737 530.4c-.2 0-.4 0-.6.1-1.1-3.6-4.5-6.3-8.5-6.3-1.5 0-2.9.4-4.2 1-1.6-1.6-3.8-2.5-6.2-2.5-4.9 0-8.9 4-8.9 8.9 0 .8.1 1.6.3 2.3h31.4c.2-1.9-1.3-3.5-3.3-3.5zm1-16.6c-.5 0-1 .1-1.5.2-.5-4.9-4-8.8-8.2-8.8-3.8 0-7.1 3.2-8 7.5h-.3c-2.9 0-5.2 2.8-5.2 6.3h30.4c-1.4-3.1-4.1-5.2-7.2-5.2zm11.3 6c-2.3 0-4.4 1.2-5.5 3.1-.5-.1-.9-.2-1.4-.2-2.9 0-5.4 1.9-6.1 4.6h19.4c.1-.4.1-.8.1-1.2-.1-3.4-2.9-6.3-6.5-6.3zm-8.8 16.9c-2.2 0-3.9 1.7-3.9 3.9h7.8c0-2.2-1.7-3.9-3.9-3.9z"/><ellipse class="st1" cx="790.2" cy="542.4" rx="6.3" ry="16.4"/><path class="st1" d="M789.3 553.3h1.8V568h-1.8zm-11.9 7.8h1.8v14.7h-1.8z"/><path class="st3" d="M727.1 572.4s-2.9-13.5 5-11.7c4.5 1 3.7 8 3.7 8s11.7-16.4 24.1-6c3.1 2.6 4.9 6 5.9 9.7"/><path class="st1" d="M822 569.3c-3.5 0-6.4 2.8-6.5 6.3h12.9c0-3.4-2.9-6.3-6.4-6.3z"/><path class="st16" d="M717.3 584.5s-9.5-11.5-5.3-13.1c2.5-1 5.3 11 5.3 11s-1.9-14 2.4-14.6c4.3-.6 0 15 0 15s3.7-10.1 6.3-8.8-5.9 10.4-5.9 10.4h-2.8z"/><path class="st11" d="M467.9 566.1s-11-10.1-7-12.3c2.4-1.3 6.7 10.2 6.7 10.2s-3.8-13.6.4-14.7 2 14.9 2 14.9 2.3-10.5 5.1-9.6c2.8.9-4.4 11.1-4.4 11.1l-2.8.4z"/><path class="st1" d="M848.9 581.8c-4.7-.6-4.9-11.8-4.9-14h1.8c0 4.9 1 11.9 3.3 12.2l-.2 1.8z"/><path class="st1" d="M847.4 576c-1.1 0-1.9-.3-1.9-.3l.6-1.7-.3.9.3-.9s1.8.6 3.3-.4c1.5-1 2.3-3.3 2.5-6.7l1.8.1c-.2 4-1.3 6.8-3.3 8.1-1 .8-2.1.9-3 .9zm1.8 4.9h1.8v14.7h-1.8z"/><path class="st1" d="M850.8 589.7h-.7l.1-1.8c2.3.1 4.1-.4 5.2-1.6 2-2 1.7-5.3 1.7-5.3l1.8-.1c0 .2.3 4.1-2.2 6.7-1.4 1.4-3.4 2.1-5.9 2.1zM847 587c-1.9 0-3.5-.5-4.9-1.6-4.1-3.1-4.2-9.5-4.2-9.8h1.8c0 .1.2 5.8 3.5 8.3 1.7 1.3 3.9 1.5 6.7.8l.5 1.8c-1.2.4-2.4.5-3.4.5z"/><path class="st3" d="M864.8 578.2c-1-2.8-3.6-4.7-6.7-4.7-2.6 0-5 1.4-6.2 3.6-.3-.1-.6-.1-1-.1-2.8 0-5.1 2.3-5.1 5.1v.4H869c-.7-2-2.2-3.6-4.2-4.3z"/><path class="st5" d="M844.5 555.9c3.6 0 6.8 2.3 8.4 5.7.4-.1.8-.1 1.2-.1 3.9 0 7.1 3.1 8 7.2H835c-.1-.6-.1-1.2-.1-1.9 0-6 4.3-10.9 9.6-10.9z"/><path class="st1" d="M819.5 328.9c-5.3-.7-5.6-13.6-5.6-16.1h1.8c0 5.7 1.2 13.9 4 14.3l-.2 1.8z"/><path class="st1" d="M817.7 322.2c-1.2 0-2.1-.3-2.2-.3l.6-1.7-.3.9.3-.9s2.2.8 4-.5c1.8-1.2 2.8-3.9 3-7.9l1.8.1c-.2 4.6-1.5 7.8-3.8 9.3-1.1.7-2.4 1-3.4 1zm2.2 5.7h1.8v17h-1.8z"/><path class="st1" d="M821.6 338.1h-.8l.1-1.8c2.7.1 4.8-.5 6.2-1.9 2.3-2.4 2.1-6.2 2-6.3l1.8-.1c0 .2.3 4.7-2.6 7.7-1.5 1.5-3.8 2.4-6.7 2.4zm-4.4-3.2c-2.2 0-4.1-.6-5.6-1.8-4.7-3.5-4.9-10.9-4.9-11.2h1.8c0 .1.2 6.8 4.1 9.8 2 1.5 4.6 1.8 7.9.9l.5 1.8c-1.3.3-2.6.5-3.8.5z"/><path class="st11" d="M837.9 324.8c-1.2-3.2-4.2-5.5-7.8-5.5-3.1 0-5.8 1.7-7.2 4.2-.4-.1-.7-.1-1.1-.1-3.3 0-6 2.7-6 6v.4h27c-.8-2.3-2.6-4.2-4.9-5z"/><path class="st14" d="M814.3 299c4.2 0 7.9 2.7 9.8 6.7.4-.1.9-.1 1.3-.1 4.5 0 8.3 3.5 9.3 8.3h-31.3c-.1-.7-.2-1.4-.2-2.2 0-7.1 5-12.7 11.1-12.7z"/><path class="st2" d="M818.4 609.2s-1-12.5 6.6-13.5 9.2 10 9.2 10 2.9-6.8 9.7-6.5c8.5.3 8.9 8 8.9 8s.8-17.2 3.8-17 2.4 19 2.4 19h-40.6z"/><path class="st10" d="M781.8 640.9c0-7.6 6.2-13.8 13.8-13.8 7.6 0 13.8 6.2 13.8 13.8"/><path class="st1" d="M761.7 622.5c-7.4 0-7.7-12.2-7.7-12.8h1.8c0 .1.3 11 5.9 11v1.8z"/><path class="st1" d="M760.8 609.7h1.8v32.4h-1.8z"/><path class="st1" d="M765.7 632.4c-1.3 0-2.6-.1-4.1-.2l.2-1.8c9.4.8 13.1-1.2 14.7-3 1.6-1.8 1.1-3.8 1.1-3.9l1.8-.4c0 .1.7 2.9-1.4 5.5-2.3 2.6-6.3 3.8-12.3 3.8zm-5.1 6.2c-2.8 0-4.9-.8-6.4-2.5-3.1-3.3-2.2-8.8-2.2-9l1.8.3s-.7 4.8 1.7 7.5c1.3 1.4 3.4 2 6.1 1.8l.1 1.8c-.3.1-.7.1-1.1.1z"/><path class="st2" d="M751 620.6c-4.3 0-7.8 3.5-7.9 7.8h15.8c-.1-4.3-3.6-7.8-7.9-7.8z"/><path class="st1" d="M781.3 602.2c4.2 0 7.9 2.7 9.8 6.6.4-.1.9-.1 1.3-.1 4.5 0 8.3 3.5 9.3 8.3h-31.3c-.1-.7-.2-1.4-.2-2.2 0-6.9 5-12.6 11.1-12.6z"/><path class="st2" d="M788.1 619.2c-1.2-3.4-4.4-5.8-8.2-5.8-3.2 0-6.1 1.8-7.6 4.4-.4-.1-.8-.1-1.2-.1-3.5 0-6.3 2.8-6.3 6.3v.5h28.4c-.8-2.5-2.7-4.4-5.1-5.3zm-24.8-26.3c-5.6 0-10.4 3.5-12.9 8.8-.6-.1-1.2-.2-1.8-.2-5.9 0-10.9 4.7-12.2 11h41.3c.1-.9.2-1.9.2-2.8 0-9.3-6.5-16.8-14.6-16.8z"/><path class="st19" d="M541.5 310.4l-.3-.8z"/><path class="st11" d="M534.7 313.1c-2.5 2.7-7 4.9-12.4 6-5.1 1-9.8.6-13.1-.8l8.6 22.8s11.3 5.1 18-3.6l-1.1-24.4z"/><ellipse transform="rotate(-10.742 520.545 309.537)" class="st11" cx="520.5" cy="309.5" rx="15.8" ry="8.1"/><path class="st11" d="M505.1 310.2s.5-2.6 2.7-4.6c0 0-2-8.4 10.5-10.6 12.7-2.3 12.8 6.2 12.8 6.2s2.4-.7 4.3 3.7"/><ellipse transform="rotate(-10.742 519.426 301.003)" class="st11" cx="519.3" cy="301" rx="9.7" ry="4.8"/><path class="st19" d="M520.9 309.5c-12.2 2.3-14.8-4.1-14.9-4.3l1.3-.5c.1.2 2.4 5.6 13.4 3.5h.2c11.1-2.2 10.5-8.4 10.5-8.7l1.4-.2c0 .3.9 7.8-11.6 10.2h-.3z"/><path class="st19" d="M520.4 306.4c-5.7 1.1-10.6-.5-11.2-3.5-.6-3 3.4-6.3 9.1-7.4 5.7-1.1 10.6.5 11.2 3.5s-3.4 6.3-9.1 7.4zm-1.8-9.5c-5.3 1-8.4 3.8-8.1 5.8.4 2 4.3 3.4 9.6 2.4s8.4-3.8 8.1-5.8c-.4-2-4.3-3.4-9.6-2.4z"/><path class="st19" d="M521.6 315.3c-6.3 1.2-11.2.5-14.5-2-2.6-2-3.2-4.3-3.3-4.4l1.3-.3c.1.3 2.3 8.1 16.2 5.4.1 0 .2 0 .3-.1 14.2-2.8 13-10.8 12.9-10.9l1.3-.2c0 .1.4 2.5-1.2 5.2-2.1 3.6-6.4 6-12.8 7.3h-.2z"/><ellipse transform="rotate(-76.432 511.999 311.616)" class="st1" cx="512" cy="311.6" rx=".9" ry="2"/><path class="st19" d="M528.3 298l-17 6.7s-2.6-2.3-.4-4.8c2.2-2.6 7.6-3.7 7.6-3.7s6.3-1.2 9.8 1.8z"/><path class="st8" d="M509.7 321.3s3.5 3.9 14.2 1.4c10.9-2.6 11.7-7.1 11.7-7.1l.9 14.6s-1 4.4-9.7 6c-8.7 1.5-12.1-1.1-12.1-1.1l-5-13.8z"/><path class="st20" d="M521.9 316.8c8-1.5 14.2-6.2 13.4-10.1-.8-4-8.2-6-16.2-4.5s-14.2 6.2-13.4 10.1c.2 1.2 1.1 2.3 2.5 3.1l-.2-.6.2.6c2.9 1.8 8.1 2.5 13.7 1.4z"/><path class="st20" d="M519.1 302.2c-4.5.9-8.5 2.7-10.9 4.9l.4.5-.4-.5c-1.9 1.7-2.8 3.5-2.5 5.2.2 1.2 1.1 2.3 2.5 3.1 3 1.8 8.2 2.5 13.7 1.4 8-1.5 14.2-6.2 13.4-10.1-.3-1.7-1.9-3.1-4.3-4l-.8 1.8.8-1.8c-3.1-1.1-7.4-1.4-11.9-.5z"/><path class="st0" d="M505 304.7s-6.2-5.3-2.2-11.3 1.7-11.9-5.8-13.2c0 0 8.2 3 4.2 9.1s-6.7 10.9 3.8 15.4z"/><path class="st14" d="M682 243.7s-8.8-10.2-18.6-9.2c-6.7.6-7 12.5-12.9 22.3s-4.7 22 9.7 23.9c14.4 1.9 36-17.2 21.8-37z"/><path class="st1" d="M694.7 255.7c-.7-4.5-.8-7.7-12.8-19.4 0 0-2.7 1-5.9 3.4-1.8 1.3-3.7 3.1-5.4 5.3-1.4 1.9-2.7 4.1-3.6 6.7 0 0 2.3 2.7 5.2 5.6 2.3 2.3 5.1 4.8 7.5 6.2l.4.2s.1 0 .1.1c.4.2.9.4 1.3.6 5.4 2 10.6 0 10.6 0s3.3-4.2 2.6-8.7zm-20.4 2.6l-.4-2.1s-1.2-2.6-.6-4.9c.6-2.3 4.1-1.7 4.1-1.7s2.9 6.7-3.1 8.7zm6.2-10.9s1.1-3.9 3.3-3.8c2.2.1 3.3 1.5 3.3 1.5l2.1.6s-.5 2.6-3.9 2.9c-3.3.5-4.8-1.2-4.8-1.2zm5 8.4c-3.1 3.2-3.9 6.2-3.9 6.2s-2.3-6.3 1.4-9.4c3.7-3.1 9.2 0 9.2 0s-3.6 0-6.7 3.2z"/><path class="st1" d="M685.3 248c3.3-.4 3.9-2.9 3.9-2.9l-2.1-.6s-1.1 2.4-3 2.7c-1.9.3-3.6-.5-3.6-.5s1.5 1.6 4.8 1.3zm-8.3 4.9c-.5 1.5-3.1 2.6-3.1 2.6l.4 2.1c5.9-2 3.1-8.7 3.1-8.7s.2 2.5-.4 4z"/><path class="st20" d="M683 251.9c-3.7 3.1-1.4 9.4-1.4 9.4s.9-3 3.9-6.2c3.1-3.2 6.7-3.2 6.7-3.2s-5.5-3.1-9.2 0zm2.3-3.9c3.3-.4 3.9-2.9 3.9-2.9l-2.1-.6s-1-1.4-3.3-1.5c-2.2-.1-3.3 3.8-3.3 3.8s1.5 1.5 4.8 1.2z"/><path class="st18" d="M680.1 263.1l-.4-.2c.2.1.3.2.4.2z" opacity=".65"/><path class="st2" d="M667.1 251s2.3 2.7 5.2 5.6l-1.6-12.3c-1.5 1.9-2.7 4.1-3.6 6.7zm27.6 4c-.7-4.5-.8-7.7-12.8-19.4 0 0-2.7 1-5.9 3.4l4.2 24.1c.4.2.9.4 1.3.6 5.4 2 10.6 0 10.6 0s3.3-4.2 2.6-8.7zm-14.2-8.4s1.1-3.9 3.3-3.8c2.2.1 3.3 1.5 3.3 1.5l2.1.6s-.5 2.6-3.9 2.9-4.8-1.2-4.8-1.2zm5 8.5c-3.1 3.2-3.9 6.2-3.9 6.2s-2.3-6.3 1.4-9.4 9.2 0 9.2 0-3.6 0-6.7 3.2z"/><path class="st1" d="M680.2 263.2s0-.1 0 0z"/><path class="st8" d="M670.7 244.3l1.6 12.3c2.3 2.3 5.1 4.8 7.5 6.2l.4.2s.1 0 .1.1L676 239c-1.8 1.4-3.7 3.1-5.3 5.3zm3.6 13.3l-.4-2.1s-1.2-2.6-.6-4.9c.6-2.3 4.1-1.7 4.1-1.7s2.9 6.7-3.1 8.7z"/><path class="st1" d="M686.4 257.6c-.1-.3-.1-.7-.1-1 .1-.3.2-.7.5-.9.3-.3.6-.4 1-.5.4-.1.7 0 1 .2-.3.1-.6.2-.8.4-.2.1-.4.3-.6.4-.4.4-.6.8-1 1.4z"/><path class="st15" d="M648.2 242.7c-1.1 6.1-1 18.1.9 22 1.8 3.8 7.8 6.7 7.8 6.7 6.8-2.5 8.9-6.2 8.9-6.2 5.1-6.7 4.2-22 4.2-22-11.8-3.8-21.8-.5-21.8-.5zm5.4 5.5c2.3.8 3.4 3.5 3.4 3.5s-.1.1-.3.2c-.7.4-2.4 1.3-4.2.7-1.6-.5-2.6-1.3-3.1-1.8-.2-.2-.3-.4-.3-.4s2.2-3 4.5-2.2zm11.2 14.4c-.8 1-4.5 3.2-7.3 3.7 0 0-4.7-1.2-6.4-4.1l-.9-5.1s6.7 6 16.3.7c.1 0-.8 3.9-1.7 4.8zm-.5-9.4c-1.5.3-2.9-.3-3.6-.9-.5-.3-.8-.6-.8-.6s1.4-2.6 3.8-3.1 4.2 2.9 4.2 2.9l-.3.3c-.5.4-1.6 1.1-3.3 1.4z"/><path d="M647.6 241.8c-1.1 6.1-1 18.1.9 22 1.8 3.8 7.8 6.7 7.8 6.7 6.8-2.5 8.9-6.2 8.9-6.2 5.1-6.7 4.2-22 4.2-22-11.8-3.7-21.8-.5-21.8-.5zm5.4 5.6c2.3.8 3.4 3.5 3.4 3.5s-.1.1-.3.2c-.7.4-2.4 1.3-4.2.7-1.6-.5-2.6-1.3-3.1-1.8-.2-.2-.3-.4-.3-.4s2.2-3 4.5-2.2zm11.3 14.4c-.8 1-4.5 3.2-7.3 3.7 0 0-4.7-1.2-6.4-4.1l-.9-5.1s6.7 6 16.3.7c0 0-.9 3.8-1.7 4.8zm-.6-9.4c-1.5.3-2.9-.3-3.6-.9-.5-.3-.8-.6-.8-.6s1.4-2.6 3.8-3.1 4.2 2.9 4.2 2.9l-.3.3c-.5.4-1.6 1-3.3 1.4z" fill="#f2d5e4"/><path class="st20" d="M656.1 251.2c.2-.1.3-.2.3-.2s-1.1-2.7-3.4-3.5c-2.3-.8-4.6 2.3-4.6 2.3s.1.1.3.4c.5.5 1.4 1.2 3.1 1.8 1.9.5 3.6-.4 4.3-.8zm.5 7.9c-4.3-.5-7-2.8-7-2.8l.9 5.1c1.3 2.3 4.5 3.5 5.8 3.9l.6.2c1.7-.3 3.7-1.3 5.2-2.2 1-.6 1.7-1.1 2.1-1.5.8-1 1.7-4.8 1.7-4.8-1 .5-2 1-2.9 1.3-2.3.8-4.5 1-6.4.8zm6.5-11.3c-2.4.5-3.8 3.1-3.8 3.1s.3.3.8.6c.8.5 2.1 1.2 3.6.9.2 0 .3-.1.4-.1 1.5-.4 2.4-1 2.9-1.3l.3-.3s-1-1.9-2.5-2.6c-.5-.3-1.1-.4-1.7-.3z"/><path class="st11" d="M657 265.5s-.2-.1-.6-.2l-.2 5.1c2.2-.8 3.9-1.8 5.2-2.7l.8-4.5c-1.5 1-3.6 2-5.2 2.3zm6.1-7.2l1-6c-.1 0-.3.1-.4.1-1.5.3-2.9-.3-3.6-.9-.5-.3-.8-.6-.8-.6s1.4-2.6 3.8-3.1c.6-.1 1.2 0 1.7.3l1.1-6.7c-3.1-.7-6-.9-8.6-.9l-.7 18.6c1.9.2 4.1 0 6.5-.8z"/><path class="st15" d="M655.4 247.2c-.7-.3-1.3-.5-1.9-.6-.6-.1-1.2 0-1.8.1-.6.2-1.1.5-1.7.8-.3.2-.5.4-.8.6l-.9.6c.1-.3.3-.7.5-1 .2-.3.4-.6.7-.9.5-.5 1.2-1 1.9-1.2.8-.2 1.6-.2 2.4.1.6.3 1.2.8 1.6 1.5zm-.6 19.9c.9.3 1.5.5 2.2.6.3 0 .6.1 1 .1h1.3c-.2.4-.6.8-1 1-.4.2-.9.3-1.4.2-.5-.1-1-.3-1.3-.6-.5-.4-.7-.9-.8-1.3zm13.4-17.2c-1.1-1-2.1-2-3.2-2.5-.5-.3-1.1-.5-1.7-.5-.6 0-1.2.2-2 .5.4-.6 1-1.2 1.8-1.3.8-.2 1.7 0 2.4.4s1.3.9 1.7 1.5c.5.5.8 1.2 1 1.9z"/><path class="st1" d="M495.1 448.4c-2.4 5.6-14.2 10.4-23.6 8.5-4-.8-7-2.5-8.6-4.4-1.6 3.2.4 7.9 7.6 9.4 9.4 1.9 23.7-2.1 26.1-7.7 1-2.5-.3-4.9-1.5-5.8z"/><path class="st11" d="M471.5 456.9c9.4 1.9 21.2-2.8 23.6-8.5-1.7-1.2-4.3-1.4-4.3-1.4-11-.8-21.9 2.1-24.4 2.9-.5.1-1 .3-1.5.6-1 .5-1.7 1.2-2 1.9 1.6 1.9 4.6 3.7 8.6 4.5z"/><path class="st12" d="M493.1 440.5c-3.5.5-2.9-2.8-2.9-2.8.5-1.4 1.6-1.9 3.4-4.7 1.8-2.9-3.6-2.9-3.6-2.9l-25.4 3.5s-4.9.4-5.5 2.4c-.6 2 1.6 1.8 3.1 3 1.1.8 0 1.3-.7 1.5-.2 0-.4.1-.5.1-3.7.9-2.8 2.8-1.6 3.1 1.3.3 5 1.3 2.3 2.2-2.7.8-.8 4 2.5 3.2 3.4-.8 7.1.9 9 1.8 2 .9 3.4-.1 4.3-1.6.9-1.5 2.3-2.2 5.1.3 2.8 2.6 7.8-.5 7.6-3.4-.2-2.9 1.2-2.3 2.7-2.2 1.6 0 3.7-4 .2-3.5z"/><ellipse transform="rotate(-16.021 482.077 442.884)" class="st15" cx="482.1" cy="442.9" rx="4.9" ry="2.5"/><ellipse transform="rotate(-84.636 467.175 442.671) scale(.99998)" class="st15" cx="467.2" cy="442.7" rx="2.5" ry="4.9"/><ellipse transform="rotate(-4.131 479.596 432.811)" class="st2" cx="479.6" cy="432.8" rx="16" ry="5.8"/><path class="st11" d="M488.4 429.7c-.5.3-.9.4-1.4.6-2.5.7-13.4 3.7-24.4 2.9 0 0-7.7-1.1-5.3-6.8 2.4-5.6 12.1-10.7 22.7-8.7 10.2 2 13.7 9.1 8.4 12z"/><ellipse transform="rotate(-21.061 467.117 423.923)" class="st1" cx="467.1" cy="424" rx="1.2" ry=".6"/><ellipse transform="rotate(-21.061 463.764 422.91)" class="st1" cx="463.8" cy="423" rx=".9" ry=".6"/><ellipse transform="rotate(-21.061 462.96 426.342)" class="st1" cx="463" cy="426.4" rx=".9" ry=".6"/><ellipse transform="rotate(-21.061 460.436 425.198)" class="st1" cx="460.5" cy="425.2" rx=".9" ry=".6"/><ellipse transform="rotate(-21.061 468.426 426.914)" class="st1" cx="468.5" cy="427" rx=".9" ry=".6"/><ellipse transform="rotate(-21.061 468.266 430.675)" class="st1" cx="468.3" cy="430.7" rx=".9" ry=".6"/><ellipse transform="rotate(-21.061 474.304 429.654)" class="st1" cx="474.3" cy="429.7" rx=".9" ry=".6"/><ellipse transform="rotate(-21.061 463.3 429.594)" class="st1" cx="463.3" cy="429.6" rx=".9" ry=".6"/><ellipse transform="rotate(-21.061 472.911 423.68)" class="st1" cx="472.9" cy="423.7" rx=".9" ry=".6"/><circle class="st1" cx="345.3" cy="508.2" r="1.5"/><circle class="st1" cx="383.9" cy="480.9" r="1.5"/><path class="st12" d="M368.5 472.5c.6-.7 1.4-2.2.5-3.6-.3-.5-.8-.9-1.3-1-1.1-.2-2.1.6-2.1.6l-4.2 4 .5.5 4.1-4s.8-.6 1.5-.5c.3.1.6.3.8.6.9 1.5-.5 2.9-.6 2.9l.5.5c.3.1.3 0 .3 0z"/><path class="st12" d="M362 473.5l-1-1 4.4-4.2c.1-.1 1.2-.9 2.4-.7.6.1 1.2.5 1.5 1.1.9 1.5.3 3.1-.6 4.1l-.2.2-.2.2-1-1 .3-.2s1.2-1.3.5-2.5c-.2-.4-.4-.5-.6-.5-.4-.1-.9.2-1.2.4l-4.3 4.1zm0-1l4.1-3.8c-.1.1-.1.1-.2.1l-3.9 3.7zm6.4-.4c.4-.4 1.2-1.7.4-3.1-.3-.5-.6-.7-1.1-.8-.6-.1-1.2.2-1.5.4.3-.2.9-.5 1.5-.4.4.1.8.3 1.1.8.7 1.3 0 2.5-.4 3.1z"/><path class="st12" d="M363.3 476.1c.8-.9 1.2-1.8 1-2.6-.2-1.3-1.5-1.8-1.6-1.8l-.3.7s1 .4 1.1 1.3c.1.8-.6 1.9-2.1 3.2l.4.6c.7-.6 1.1-1 1.5-1.4z"/><path class="st12" d="M361.9 477.9l-.9-1.1.3-.2c1.4-1.1 2.1-2.1 2-2.8-.1-.6-.9-1-.9-1l-.3-.1.5-1.3.3.1c.2.1 1.6.7 1.8 2.1.1.9-.2 1.8-1.1 2.8-.4.4-.8.9-1.4 1.3l-.3.2zm.1-1c.4-.3.8-.7 1.1-1 .7-.8 1.1-1.6 1-2.3-.1-.7-.7-1.2-1-1.4.4.2.9.7 1 1.4 0 .9-.7 2-2.1 3.3z"/><path class="st1" d="M383.5 481.2l-.1-.6c-11.7 2.4-20.3-8.8-20.4-8.9l-.2-.2-23.3 16.9 5.5 19.7.6-.2-5.3-19.3 22.5-16.3c1.3 1.7 9.6 11.2 20.7 8.9z"/><path class="st1" d="M344.7 508.6l-5.6-20.3.2-.1 23.6-17.1.4.5c.1.1 8.5 11.1 20 8.7l.3-.1.3 1.3-.3.1c-10.8 2.2-18.9-6.4-20.9-8.7l-22 16 5.4 19.4-1.4.3z"/><path class="st1" d="M360 495.7l2.5-23.3-.6-.1-2.5 23.1-1.5 1-17.6-8.4-.2.6 17.9 8.5z"/><path class="st1" d="M358 497.5l-18.4-8.8.6-1.1 17.7 8.4 1.2-.8 2.5-23.3 1.3.2-2.6 23.8z"/><circle class="st1" cx="359.4" cy="497.6" r="2.2"/><path class="st1" d="M374.8 491.4c-5.7-5-6.3-13.8-1.2-19.5s13.8-6.3 19.5-1.2 6.3 13.8 1.2 19.5-13.8 6.2-19.5 1.2zm.4-.5c5.5 4.8 13.8 4.3 18.6-1.2s4.3-13.8-1.2-18.6-13.8-4.3-18.6 1.2-4.3 13.8 1.2 18.6z"/><path class="st1" d="M383.9 495.2c-3.4 0-6.7-1.2-9.3-3.5-2.8-2.5-4.5-5.9-4.8-9.7-.2-3.8 1-7.4 3.5-10.2 2.5-2.8 5.9-4.5 9.7-4.8 3.8-.2 7.4 1 10.2 3.5 5.9 5.2 6.4 14.1 1.3 20-2.5 2.8-5.9 4.5-9.7 4.8-.3-.1-.6-.1-.9-.1zm-8.5-4.5c2.6 2.3 5.9 3.4 9.3 3.2 3.4-.2 6.6-1.8 8.8-4.3 4.7-5.3 4.2-13.4-1.2-18.1-5.3-4.7-13.4-4.2-18.1 1.2-4.6 5.1-4.1 13.3 1.2 18z"/><circle class="st1" cx="384.1" cy="480.9" r="1.1"/><path class="st1" d="M336 518.6c-5.7-5-6.3-13.8-1.2-19.5 5-5.7 13.8-6.3 19.5-1.2 5.7 5 6.3 13.8 1.2 19.5-5.1 5.7-13.8 6.2-19.5 1.2zm.4-.5c5.5 4.8 13.8 4.3 18.6-1.2 4.8-5.5 4.3-13.8-1.2-18.6s-13.8-4.3-18.6 1.2-4.3 13.8 1.2 18.6z"/><path class="st1" d="M345.1 522.4c-3.4 0-6.7-1.2-9.3-3.5-5.9-5.2-6.4-14.1-1.3-20 5.2-5.9 14.1-6.4 20-1.3 5.9 5.2 6.4 14.1 1.3 20-2.5 2.8-5.9 4.5-9.7 4.8h-1zm0-27h-.8c-3.4.2-6.6 1.8-8.8 4.3-2.3 2.6-3.4 5.9-3.2 9.3.2 3.4 1.8 6.6 4.3 8.8 2.6 2.3 5.9 3.4 9.3 3.2 3.4-.2 6.6-1.8 8.8-4.3 2.3-2.6 3.4-5.9 3.2-9.3s-1.8-6.6-4.3-8.8c-2.4-2.1-5.4-3.2-8.5-3.2z"/><path class="st12" d="M342.4 483.7c-1.5.1-2.9.8-3.9 1.8-1.4 1.3-3.1 3.3-1.5 4.1 2.4 1.3 3.4-2.8 5.7-4.2 1.7-1 1.5-1.9-.3-1.7z"/><path class="st12" d="M342.7 485.6c-.9.5-1.6 1.4-2.2 2.3-1.1 1.4-2.1 2.8-3.7 1.9-.4-.2-.6-.5-.7-.9-.1-.8.6-2 2.2-3.5 1.2-1.1 2.6-1.8 4.1-1.9 1.2-.1 1.6.2 1.7.5.1.2 0 .4-.1.6-.3.4-.7.7-1.3 1zm-6.2 3.2c0 .3.2.5.5.6 1.2.7 2-.2 3.2-1.8.7-.9 1.4-1.8 2.3-2.4 1-.6 1.2-1 1.1-1.2-.1-.2-.5-.3-1.3-.3-1.4.1-2.7.7-3.8 1.8-.7.6-1.2 1.2-1.6 1.8-.3.7-.5 1.2-.4 1.5z"/><path class="st6" d="M835.4 611.5s-9.1-.3-9.2-6.5c-.1-6.3 7.5-6.5 3.1-12.1s3.4-8.6 2.9-11.2c-.5-2.6-1.4-6.9 2.6-7.4 4-.4 4.3 2.6 4 4-.4 1.4-2.3 4.4 1.4 6.9 3.8 2.5 3.1 6.3-.6 9.5s2.2 4 3.6 7.4c1.5 3.8-.5 9-7.8 9.4z"/><ellipse class="st2" cx="778.3" cy="546.6" rx="6.3" ry="16.4"/><path class="st1" d="M848.7 422.4h1.8v14.7h-1.8z"/><ellipse class="st8" cx="849.6" cy="408" rx="6.3" ry="16.4"/><path class="st1" d="M834 596.9h1.8v28.8H834z"/><path class="st16" d="M837.4 618.3c-1.6-1.6-9.5 7-9.5 7s4-16.4 0-13.6c-3.9 2.8-3.2 14-3.2 14s-4.1-17.3-7.2-14.7c-3.2 2.6 4 15.4 4 15.4s-12.2-6.8-10-2.1c.5 1 8 6.4 12 7.7.5.2 1.1.2 1.6.1.6-.1 1.1-.3 1.6-.7 3.6-2.9 11.6-12.2 10.7-13.1z"/><path class="st5" d="M608.1 493.8s-8.3-.2-8.4-5.9c-.1-5.7 6.8-5.9 2.8-11s3.1-7.8 2.6-10.2c-.5-2.4-1.3-6.3 2.4-6.7 3.7-.4 3.9 2.4 3.6 3.7-.3 1.3-2.1 4 1.3 6.2 3.4 2.2 2.8 5.7-.6 8.6-3.4 2.9 2 3.6 3.3 6.8 1.3 3.4-.4 8.1-7 8.5z"/><path class="st1" d="M606.3 480.5h1.8v26.1h-1.8z"/><path class="st9" d="M384.5 652.6s-8.3-.2-8.4-5.9c-.1-5.7 6.8-5.9 2.8-11s3.1-7.8 2.6-10.2c-.5-2.4-1.3-6.3 2.4-6.7 3.7-.4 3.9 2.4 3.6 3.7-.3 1.3-2.1 4 1.3 6.2 3.4 2.2 2.8 5.7-.6 8.6-3.4 2.9 2 3.6 3.3 6.8 1.4 3.4-.4 8.1-7 8.5z"/><path class="st1" d="M382.8 639.3h1.8v26.1h-1.8zM595.9 494.6h1.8v18.3h-1.8zM503.2 566.5h1.8v18.3h-1.8z"/><ellipse class="st3" cx="596.9" cy="484.3" rx="5.5" ry="14.3"/><path class="st1" d="M414.7 344h1.8v18.3h-1.8z"/><ellipse class="st12" cx="415.6" cy="333.7" rx="5.5" ry="14.3"/><path class="st11" d="M653.3 400l8-21.1 8 21.1c1.6 5.3-2.4 10.7-8 10.7s-9.6-5.4-8-10.7z"/><path class="st1" d="M660.4 397.2h1.8V424h-1.8z"/><path class="st2" d="M420.1 368.4s-1.5-14.4 3.2-14.3 4.4 16.7 4.4 16.7.6-23.1 6.9-23.7c6.3-.6 4 36.9 4 36.9l-18.5-15.6zM268.5 584.3c-1.2-3.2-4.2-5.5-7.8-5.5-3.1 0-5.7 1.7-7.2 4.2-.4-.1-.7-.1-1.1-.1-3.3 0-6 2.7-6 6v.4h27c-.8-2.4-2.6-4.2-4.9-5z"/><ellipse class="st14" cx="504.1" cy="560.3" rx="19" ry="11"/><path class="st1" d="M504.6 579.5h-.5l.1-1.8c1.2.1 2.3-.3 3.1-1.1 3.3-3.2 2.9-11.9 2.9-12l1.8-.1c0 .4.5 9.6-3.4 13.4-1.1 1.1-2.5 1.6-4 1.6z"/><path class="st12" d="M493.8 588.8s-1.1-14.8 3.8-15.8 4.1 9.9 4.1 9.9l-7.9 5.9z"/><path class="st1" d="M583.9 366.8h1.8v14.4h-1.8z"/><path class="st1" d="M577.6 373.1H592v1.8h-14.4z"/><path transform="rotate(-45.001 584.826 374.04)" class="st1" d="M577.6 373.1H592v1.8h-14.4z"/><path transform="rotate(-45.001 584.826 374.04)" class="st1" d="M583.9 366.8h1.8v14.4h-1.8z"/><path class="st1" d="M381.4 310.1h1.8v14.4h-1.8z"/><path class="st1" d="M375.1 316.4h14.4v1.8h-14.4z"/><path transform="rotate(-45.001 382.273 317.322)" class="st1" d="M375.1 316.4h14.4v1.8h-14.4z"/><path transform="rotate(-45.001 382.273 317.322)" class="st1" d="M381.4 310.1h1.8v14.4h-1.8z"/><path class="st1" d="M787.4 590.9l-1.8-.3c.3-1.8.9-3.2 1.9-4.1 1.4-1.3 2.9-1.9 4.7-1.9 1.6 0 3.3.5 5 1.6 2.1 1.3 3.8 1.9 5.1 1.9 1.2 0 2.2-.5 2.9-1.5.3-.4.5-.9.7-1.4l1.8.5c-.2.7-.5 1.3-.9 1.9-1 1.5-2.6 2.3-4.4 2.3-1.7 0-3.7-.7-6.1-2.2-1.4-.9-2.7-1.3-4-1.3-1.4 0-2.5.5-3.5 1.4-.8.7-1.2 1.7-1.4 3.1zM207.8 613.3l-1.8-.3c.3-1.8.9-3.2 1.9-4.1 1.4-1.3 2.9-1.9 4.7-1.9 1.6 0 3.3.5 5 1.6 2.1 1.3 3.8 1.9 5.1 1.9 1.2 0 2.2-.5 2.9-1.5.3-.4.5-.9.7-1.4l1.8.5c-.2.7-.5 1.3-.9 1.9-1 1.5-2.6 2.3-4.4 2.3-1.7 0-3.7-.7-6.1-2.2-1.4-.9-2.7-1.3-4-1.3-1.4 0-2.5.5-3.5 1.4-.8.7-1.2 1.7-1.4 3.1zM779.2 349.9l-1.8-.3c.3-1.8.9-3.2 1.9-4.1 1.4-1.3 2.9-1.9 4.7-1.9 1.6 0 3.3.5 5 1.6 2.1 1.3 3.8 1.9 5.1 1.9 1.2 0 2.2-.5 2.9-1.5.3-.4.5-.9.7-1.4l1.8.5c-.2.7-.5 1.3-.9 1.9-1 1.5-2.6 2.3-4.4 2.3-1.7 0-3.7-.7-6.1-2.2-1.4-.9-2.7-1.3-4-1.3-1.4 0-2.5.4-3.5 1.4-.8.7-1.2 1.7-1.4 3.1z"/><circle class="st1" cx="739.6" cy="583.6" r="1.9"/><circle class="st1" cx="277.1" cy="595.4" r="1.9"/><circle class="st1" cx="724.8" cy="612.5" r="1.9"/><circle class="st1" cx="611.4" cy="518.2" r="1.9"/><circle class="st1" cx="364.4" cy="679.8" r="1.9"/><circle class="st1" cx="554.9" cy="707.4" r="1.9"/><circle class="st1" cx="270.8" cy="366.1" r="1.9"/><circle class="st1" cx="833" cy="354.2" r="1.9"/><path class="st15" d="M312.8 332.4l.3.7c.2.6-.1 1.2-.7 1.3l-25.2 5.9 1.5-2.5 24.1-5.4z"/><path class="st14" d="M302 301.8l12.3 29c.2.6-.1 1.2-.7 1.4l-24.9 5.6L276 307l24.8-5.8c.5-.1 1 .1 1.2.6z"/><path class="st15" d="M276 307l-1.4 2.6 12.7 30.7 1.4-2.5z"/><path class="st0" d="M312 332.6l.5.9-24.6 5.7.8-1.4z"/><path class="st8" d="M275.2 340.4v3.9l25.9 16.8v-4z"/><path class="st0" d="M316.5 347.1l2.4 1.6-17.8 11.5v-3.1z"/><path class="st4" d="M548.4 629.5s2.4-17.2 12-18.8c9.7-1.7 10.2 33.1 10.2 33.1s5.2-5.2 7.6 1.4c2.4 6.6 1.7 9 1.7 9l-31.5-24.7z"/><path class="st11" d="M805.9 318.2c-4.1 0-7.4 3.3-7.5 7.4h15c-.1-4.1-3.4-7.4-7.5-7.4z"/><path class="st16" d="M815 347.3c-1.6-2.2-3.2-1.5-4.2-.5-.6-5.3-1.8-10.6-4.6-9.2-5.3 2.7-4.4 18.5-4.4 18.5h15s.9-5.1-1.8-8.8z"/><path class="st8" d="M170.5 473.9c-1.5-11.2 8.6 16.2 8.6 16.2s-4.6-30.1-.9-36c3.7-5.8 4.9 30.6 4.9 30.6s5-25.2 8.6-26.9-3.1 30.6-3.1 30.6 7.1-13.4 9.3-14.6c2.2-1.1-5.9 17.4-5.9 17.4l-12 9.4c0 .1-7.9-15.6-9.5-26.7z"/><path class="st7" d="M391.4 672.7s.6-13.5 8.9-10.3c8.3 3.2 8.5 23.4 8.5 23.4l-17.4-13.1z"/><path class="st11" d="M565 705.3s-3.5-40.9 4.2-44c7.7-3.1 8.5 33.3 8.5 33.3L565 705.3z"/><g><path class="st23" d="M994.7 346.9c-.6-1.7-1.3-3.5-2-5.2-.5-1.2-1.5-3.5-.9-4.9.5-1.4 1.9-1 2.6-.3 1.2 1.2 2.2 2.8 3.1 4.2.5.8 2.5 2.8 1.8 3.9-1 1.7-2-.3-2.6-1.1-.3-.4-.8-.8-1.1 0-.2.5.4 1.5.5 2.1.1.5.2 1-.1 1.4-.4.5-1 .5-1.3-.1zm-.7-7.4c.1.3.7 2.6 1.1 2.1.5-.5-.8-1.9-1.1-2.1zm8.9 1.1c.2.6.8 1.2.4 1.9-.5.9-1.2.8-1.7.2-1.1-1.3-2-3-2.8-4.6-.8-1.6-2-3.3-2.6-5-.5-1.3.6-2.2 1.7-2.4 1.4-.3 2.3.6 3 1.8.4.7.8 1.5 1.1 2.3.3.8.3 1.7.5 2.5.2 1 .7 1.2 1.5 1.4.5.1 1.5.2 1.9.7.4.6-.1 1.2-.6 1.5-.8.4-1.6-.1-2.4-.3zm-4.2-7.4l1.5 3c-.2-1.2-.7-2.1-1.5-3zm11.8-3.6c-.2.5.3 1.7.4 2.2.2.8.5 1.5-.2 2.2-1.4 1.4-2.3-.7-3.6-1.1.5.9 1 1.9 1.4 2.9.3.8.5 1.7-.3 2.2-1 .7-1.4-1.3-1.8-2-.6-1.1-1.2-2.2-1.8-3.4-.5-1.2-2.5-4.4-.6-5.3 1.6-.7 3.4 2.5 4.5 3.5.1-1.1-.4-2.4-.7-3.4-.2-.9-.8-2.2-.1-3 1.5-1.7 3.4 2.1 4.1 3.2.6 1 1.2 2.1 2 2.9.5.6 1.5 1.2.9 2.2-1.4 2.4-3.3-2.2-4.2-3.1zm2.9-8.5c.3 1 1 2.1 1.5 2.9.7 1.1.9 0 1.8-.2.7-.2 1.2.2.9 1-.4 1.1-1.5.8-.8 2.1.3.6 1.2 2.1 1.9 2.2.8.1 1.4-1.3 2.2-1.1 1.9.5-1.5 3-2.2 3.1-1.7.3-2.9-2-3.8-3.3-1.2-1.7-2.2-3.7-3.1-5.6-.5-.9-.5-1.5.2-2.3.6-.6 1.5-1.5 2.2-1.8.5-.2 1.4 0 1.3.8-.1.8-1.7 1.6-2.1 2.2zm9.6-.2c.2 1.1 1.2 2.3 1.6 3.2.3.6 1.2 1.6.6 2.4-1.4 1.8-3-2.8-3.5-3.6-.6-1.1-1.2-2.1-1.7-3.3-.4-1-1-2.2.1-2.9 1.9-1.2 3.2 2.1 4.7 2.7.2-.7-1.2-2.5-1.6-3.1-.6-.9-1.6-2.1-1.9-3.2-.2-1 .9-1.5 1.6-1 .8.7 1.5 2.3 2.1 3.2.7 1 1.1 2.1 1.8 3.2.5.8 1.6 2 1.2 3.2-.9 2.8-3.9-.6-5-.8zm9.5-2.6c.4.8-.4 1.7-1.1 1.5-.8-.2-1.4-1.7-1.8-2.5-.7-1.2-1.2-2.5-1.8-3.7-.4-.8-1.4-2.2-1.4-3.2 0-.6.8-1 1.3-.8.7.2 1 1.6 1.4 2.3 1.1 2.2 2.2 4.3 3.4 6.4zm2.5-2.3c-.6-1.7-1.3-3.5-2-5.2-.5-1.2-1.5-3.5-.9-4.9.5-1.4 1.9-1 2.6-.3 1.2 1.2 2.2 2.8 3.1 4.2.5.8 2.5 2.8 1.8 3.9-1 1.7-2-.3-2.6-1.1-.3-.4-.8-.8-1.1 0-.2.5.4 1.5.5 2.1.1.5.2 1-.1 1.4-.4.5-1 .5-1.3-.1zm-.6-7.4c.1.3.7 2.6 1.1 2.1.4-.4-.9-1.8-1.1-2.1z"/></g><g><path class="st23" d="M875.9 283.9c.3-.7.1-1.8-.4-2.2-.5-.4-.6.1-1.2.1-1 0-.5-1.3 0-1.8.4-.4 1.2-.9 1.8-.8.8.2 1.5 1.9 1.7 2.7.2.7.1 1.5-.2 2.3-.6 1.8-2.6 2.2-3.9 1.3-1.6-1-2.5-3.5-3-5.5-.4-1.4-.6-4.9 1.5-4.8 1 .1.5.8.2 1.4-.4.9-.1 1.8.1 2.7.4 1.3 1.9 5.4 3.4 4.6zm4.7-5.8c.2-.7-.6-1.7-.9-2.2-.5-.8-.9-1.6-1.4-2.4-.3-.5-.8-1.1-.4-1.7.3-.5 1.1-.6 1.4-.3.5.4.9 1.5 1.2 2 .5.7.9 1.5 1.3 2.3.6 1.2 1.7 3.2.4 4.3-2.4 2.2-5.2-2.8-6.1-4.7-.2-.5-.7-1.2-.3-1.8.4-.6 1.1-.5 1.5-.1 1.3 1.3 1.9 3.5 3.3 4.6zm7-3.9c.3.6.9 1.1.5 1.8-.4.9-1.1.9-1.7.4-1.2-1.2-2.3-2.8-3.2-4.3-1-1.5-2.3-3.1-3-4.8-.6-1.3.4-2.2 1.4-2.6 1.3-.4 2.3.4 3.1 1.5.5.7 1 1.4 1.3 2.2.3.8.4 1.6.7 2.5.3 1 .8 1.1 1.6 1.2.5.1 1.6 0 1.9.5.4.5 0 1.2-.5 1.5-.5.6-1.4.2-2.1.1zm-4.9-7c.6 1 1.2 1.9 1.8 2.9-.3-1.2-1-2.1-1.8-2.9zm10.4 2c.3.6.9 1.1.5 1.8-.4.9-1.1.9-1.7.4-1.2-1.2-2.3-2.8-3.2-4.3-1-1.5-2.3-3.1-3-4.8-.6-1.3.4-2.2 1.4-2.6 1.3-.4 2.3.4 3.1 1.5.5.7 1 1.4 1.3 2.2.3.8.4 1.6.7 2.5.3 1 .8 1.1 1.6 1.2.5.1 1.6 0 1.9.5.4.5 0 1.2-.5 1.5-.5.5-1.4.1-2.1.1zm-4.8-7c.6 1 1.2 1.9 1.8 2.9-.4-1.3-1-2.2-1.8-2.9zm9 .6c.2-.7-.6-1.7-.9-2.2-.5-.8-.9-1.6-1.4-2.4-.3-.5-.8-1.1-.4-1.7.3-.5 1.1-.6 1.4-.3.5.4.9 1.5 1.2 2 .5.7.9 1.5 1.3 2.3.6 1.2 1.7 3.2.4 4.3-2.4 2.2-5.2-2.8-6.1-4.7-.2-.5-.7-1.2-.3-1.8.4-.6 1.1-.5 1.5-.1 1.2 1.3 1.8 3.5 3.3 4.6zm2.6-5.3c-.8-1.1-3.3-7.1-.6-7.3 1.1-.1.5 2 .7 2.9.3 1.4 1.1 2.8 2 3.8.8.9 1.5 1.1 2.5.6.4-.2 1-.5 1.3.1.2.5 0 .8-.3 1.2-1.7 2.2-4.4.8-5.6-1.3zm8.6-6.3c-.4.3-1.2.8-1.1 1.3.1.8 1.2 1.4 1.4 2.2.2.6 0 1.2-.6 1.4-.6.2-1.1-.2-1.5-.7-1.1-1.4-2-3.1-3-4.6-.5-.8-2.3-3.2-.4-3.6 1.4-.3 1.6 2.9 2.8 3.4.3.1.8-.3 1-.6.3-.5.2-.6-.1-1.1-.4-.8-.9-1.6-1.4-2.4-.4-.6-1-1.5-.5-2.2.5-.7 1.2-.6 1.6 0 .5.6.8 1.6 1.3 2.3.5.8 1 1.7 1.5 2.5l1.8 2.7c.4.6 1.1 1.2.6 2.1-1 1.7-2.7-2-3.4-2.7zm5.8-1.6c-.8-1.7-1.6-3.3-2.4-5-.6-1.2-1.8-3.3-1.4-4.8.4-1.4 1.8-1.2 2.6-.6 1.3 1 2.4 2.6 3.5 3.9.6.7 2.7 2.5 2.1 3.8-.9 1.8-2-.1-2.7-.8-.3-.3-.9-.7-1.1.1-.1.6.6 1.5.7 2 .2.5.3.9 0 1.4-.4.5-1 .5-1.3 0zm-1.3-7.3c.1.3.9 2.6 1.3 2 .3-.5-1.1-1.8-1.3-2zm8.7-.6c.3-.7.1-1.8-.4-2.2-.5-.4-.6.1-1.2.1-1 0-.5-1.3 0-1.8.4-.4 1.2-.9 1.8-.8.8.2 1.5 1.9 1.7 2.7.2.7.1 1.5-.2 2.3-.6 1.8-2.6 2.2-3.9 1.3-1.6-1-2.5-3.5-3-5.5-.4-1.4-.6-4.9 1.5-4.8 1 .1.5.8.2 1.4-.4.9-.1 1.8.1 2.7.4 1.3 1.9 5.4 3.4 4.6zm4.4-3c-.8-1.7-1.6-3.3-2.4-5-.6-1.2-1.8-3.3-1.4-4.8.4-1.4 1.8-1.2 2.6-.6 1.3 1 2.4 2.6 3.5 3.9.6.7 2.7 2.5 2.1 3.8-.9 1.8-2-.1-2.7-.8-.3-.3-.9-.7-1.1.1-.1.6.6 1.5.7 2 .2.5.3.9 0 1.4-.3.5-.9.5-1.3 0zm-1.3-7.3c.1.3.9 2.6 1.3 2 .3-.5-1.1-1.8-1.3-2z"/></g><g><path class="st23" d="M899.1 56.4c1.2-.7 2.3-1.2 3.6-.3.6.4.9 1 1.3 1.7.3.7.4 1.6.7 2.3.3.6 1.1.6 1.6 1 .6.4 1 .9 1.4 1.5.6 1.1.9 2.8 0 3.9-.7 1-1.5 1.6-2.4.7-1.1-1.2-2-2.7-3-4-.9-1.2-1.8-2.4-2.5-3.7-.6-.9-2-2.3-.7-3.1zm1.9 1.3c.2.6 1 2.1 1.5 2.2-.1-1.1-.6-2-1.5-2.2zm5.3 7.3c-.1-.8-1-2.8-1.9-2.3.6.8 1.1 1.7 1.9 2.3zm5.3-12.4c.9 1.3 1.5 2.7 2 4.2.4 1.1.9 2.9.2 4-1.8 2.9-4.8-.4-6-2-.9-1.2-1.7-2.5-2.3-3.9-.7-1.5-.7-2.5.4-3.8.7-.9 1.8-1.4 2.8-1.2 1.2.2 2 1.7 2.9 2.7zm.3 6.8c-.2-1.7-.8-3.1-1.6-4.5-.5-.8-1.7-3.4-2.8-2.8-1.9 1 3.3 6.7 4.4 7.3zm6.5-5.9c.3.6.9 1.1.6 1.8-.4.9-1.1.9-1.6.4-1.3-1.2-2.3-2.8-3.3-4.3s-2.3-3.1-3.1-4.7c-.6-1.3.4-2.2 1.4-2.6 1.3-.4 2.3.3 3.1 1.5.5.7 1 1.4 1.3 2.2.4.8.4 1.6.7 2.4.3 1 .8 1.1 1.6 1.2.5.1 1.6 0 2 .5.4.5 0 1.2-.4 1.5-.7.6-1.6.2-2.3.1zm-5-6.9c.6.9 1.2 1.9 1.8 2.8-.3-1.1-1-2-1.8-2.8zm10.2.9c.3-.7.1-1.8-.4-2.2-.5-.4-.6.1-1.2.1-1 0-.5-1.3 0-1.8.4-.4 1.2-.9 1.8-.8.8.2 1.5 1.9 1.7 2.7.2.7.1 1.5-.1 2.3-.6 1.8-2.6 2.2-3.9 1.4-1.6-1-2.5-3.5-3.1-5.4-.4-1.4-.7-4.9 1.4-4.8 1 0 .5.8.2 1.4-.4.9-.1 1.8.1 2.7.5 1.1 2 5.2 3.5 4.4zm.3-11.8c.4 1 1.2 2 1.8 2.8.8 1 .9-.1 1.8-.4.6-.2 1.2.1 1 .9-.3 1.1-1.4 1-.6 2.2.4.6 1.4 2 2.1 2 .8 0 1.3-1.4 2.1-1.3 1.9.3-1.2 3.1-1.9 3.3-1.7.4-3.1-1.6-4.2-2.9-1.3-1.6-2.6-3.4-3.7-5.2-.6-.9-.7-1.4 0-2.3.5-.6 1.3-1.7 2-2 .5-.3 1.4-.2 1.4.6.1.7-1.4 1.7-1.8 2.3zm9.8-.2c-.7-1-2-1.1-2.8-2-.8-1-1.4-2.4-1.1-3.8.2-.8 1.3-2 1.8-.9.2.4-.1 1.2-.1 1.7.1.7.4 1.3.8 1.8.8.9 2 1.1 2.8 2 .9 1 1.3 2.4 1.1 3.8-.1.8-1.5 2.8-2 1.3-.2-.5.3-1.4.2-2 0-.8-.3-1.4-.7-1.9z"/></g><g><path class="st23" d="M672.5 97.6c-.4.4-1.2 1.3-1.7 1.1-.7-.2-.4-1.1-.1-1.5.5-.7 1.2-1.2 1.8-1.8.6-.5 1.3-1.4 2-1.4.6 0 1 .4.6 1.2-.3.6-.9.5-.7 1.4.2.8 1 1.7 1.4 2.3.5.8 1.1 1.6 1.6 2.4.5.8 1 1.5 1.5 2.3.4.5 1.3 1.4 1.4 2.1.1 1.2-1.2 1.5-1.8.9-1.2-1.1-2.1-2.9-2.9-4.3-.5-.9-1.1-1.7-1.6-2.6-.4-.6-.9-1.8-1.5-2.1zm11.8-1.7c-.4.3-1.2.7-1.1 1.3.1.8 1.1 1.5 1.4 2.3.2.6-.1 1.2-.6 1.4-.6.2-1.1-.3-1.5-.8-1-1.4-1.9-3.2-2.8-4.7-.5-.8-2.2-3.3-.2-3.6 1.4-.2 1.5 3 2.6 3.5.3.2.8-.2 1.1-.6.3-.5.2-.6 0-1.1-.4-.8-.8-1.6-1.3-2.4-.3-.6-.9-1.5-.4-2.2.5-.6 1.2-.5 1.6 0 .5.7.8 1.6 1.2 2.4.5.9 1 1.7 1.4 2.6.5.9 1.1 1.9 1.7 2.8.4.6 1.1 1.3.5 2.1-1.4 1.6-2.9-2.2-3.6-3zm5.8-1.3c-.7-1.7-1.5-3.4-2.2-5.1-.6-1.2-1.7-3.4-1.2-4.9.5-1.4 1.8-1.1 2.6-.5 1.2 1.1 2.3 2.6 3.3 4 .6.8 2.6 2.7 2 3.8-.9 1.7-2-.2-2.7-1-.3-.3-.9-.8-1.1.1-.1.6.5 1.5.6 2 .1.5.3.9-.1 1.4-.2.7-.8.7-1.2.2zm-1-7.4c.1.3.8 2.6 1.2 2 .4-.4-1-1.7-1.2-2zm10.2-5.8c-.2.5.3 1.6.5 2.1.2.8.6 1.5-.1 2.2-1.4 1.5-2.4-.5-3.6-.9.5.9 1.1 1.9 1.5 2.8.3.8.6 1.6-.2 2.2-1 .7-1.5-1.2-1.9-1.9-.7-1.1-1.3-2.1-1.9-3.3-.6-1.2-2.7-4.3-.8-5.3 1.5-.8 3.6 2.4 4.6 3.2.1-1.1-.6-2.4-.9-3.4-.3-.9-.9-2.2-.2-3 1.4-1.8 3.5 1.9 4.3 3 .7 1 1.3 2 2.1 2.8.5.6 1.6 1.2 1 2.2-1.3 2.6-3.5-1.9-4.4-2.7zm2.5-8.7c.4 1 1.1 2 1.7 2.8.8 1 .9-.1 1.8-.3.7-.2 1.2.2.9 1-.3 1.1-1.5.9-.7 2.1.4.6 1.3 2 2 2.1.8.1 1.3-1.4 2.1-1.2 1.9.4-1.3 3-2 3.2-1.7.4-3-1.8-4-3.1-1.3-1.7-2.4-3.6-3.4-5.4-.5-.9-.6-1.4.1-2.3.5-.6 1.4-1.6 2.1-1.9.5-.2 1.4-.1 1.3.7 0 .8-1.5 1.7-1.9 2.3zm9.8.4c-.7-1.1-2-1.2-2.7-2.2-.7-1-1.3-2.5-.9-3.9.2-.8 1.4-2 1.9-.8.2.4-.2 1.2-.2 1.6 0 .7.3 1.3.7 1.8.7 1 1.9 1.2 2.7 2.1.8 1 1.2 2.5.9 3.9-.2.7-1.6 2.7-2.1 1.2-.2-.5.3-1.4.3-2 0-.7-.3-1.3-.6-1.7z"/></g><g><path class="st23" d="M473.2 42.7c1-.8 1-2.1 1.9-2.9.9-.8 2.4-1.5 3.8-1.3.8.1 2.1 1.2 1 1.8-.4.2-1.2-.1-1.7 0-.7.1-1.3.4-1.8.9-.9.8-1 2-1.8 2.9-.9.9-2.3 1.4-3.8 1.3-.8-.1-2.9-1.3-1.4-1.9.5-.2 1.5.2 2.1.1.7-.2 1.2-.5 1.7-.9zm10.7 6.3c-1.3.9-2.7 1.6-4.1 2.2-1.1.4-2.8 1-4 .4-3-1.6.2-4.8 1.7-6.1 1.1-.9 2.4-1.8 3.7-2.5 1.5-.7 2.5-.8 3.8.2.9.7 1.5 1.7 1.3 2.8-.1 1.3-1.5 2.2-2.4 3zm-6.8.7c1.7-.2 3.1-1 4.4-1.8.8-.5 3.3-1.9 2.6-2.9-1.1-1.8-6.5 3.5-7 4.7zm5.5 8c-1.1-1-1.4-1.9-.9-3.2.6-1.4 1.9-2.4 3.2-3.2 1.5-.9 2.8-2 4.5-2.8.6-.3 1-.5 1.5.1.5.5.3.9-.2 1.3-1.2 1-2.8 1.9-4.1 2.8-1.2.8-3 1.9-3.1 3.3-.1 1.1 2.1 1.6 1.7 2.6-.5 1.5-2.5-1-2.6-.9zm12.9-2.7c-.9.5-1.9 1.3-2.7 1.9-1 .9.1.9.5 1.7.3.6-.1 1.2-.9 1-1.1-.2-1-1.4-2.2-.5-.6.4-1.9 1.5-1.9 2.2 0 .8 1.5 1.2 1.4 2-.3 2-3.2-1-3.4-1.7-.5-1.7 1.5-3.2 2.7-4.3 1.5-1.4 3.3-2.7 5.1-3.9.9-.6 1.4-.7 2.3-.1.7.5 1.8 1.3 2.1 1.9.3.5.2 1.3-.6 1.4-.7.2-1.8-1.2-2.4-1.6zm-1.1 11.7c-.6.3-1.1.9-1.8.6-.9-.3-1-1-.5-1.6 1.1-1.3 2.7-2.4 4.1-3.5 1.5-1 2.9-2.4 4.6-3.3 1.3-.7 2.2.3 2.6 1.3.5 1.3-.2 2.3-1.3 3.2-.6.5-1.4 1.1-2.1 1.5-.8.4-1.6.5-2.4.8-1 .4-1 .8-1.1 1.7-.1.5.1 1.6-.4 2-.5.4-1.2.1-1.5-.4-.6-.7-.2-1.6-.2-2.3zm6.7-5.3c-.9.7-1.8 1.3-2.7 2 1.1-.4 2-1.1 2.7-2z"/></g><g><path class="st23" d="M300.5 64.2c-1 .4-2.1 1.5-2.9 2.1-.6.4-1.4 1.4-2.3 1-2-1.1 2.2-3.5 3-4 1-.7 1.9-1.6 3-2.2.9-.5 2-1.3 2.9-.4 1.5 1.7-1.6 3.5-1.9 5.1.8.1 2.2-1.6 2.8-2.1.8-.7 1.8-2 2.9-2.4 1-.4 1.6.7 1.2 1.4-.5.9-2 1.8-2.8 2.6-.9.8-1.9 1.5-2.8 2.3-.7.7-1.7 1.9-2.9 1.7-3-.4-.2-4-.2-5.1zm4.1 8.9c-.7.5-1.7-.1-1.7-.8 0-.8 1.5-1.7 2.1-2.2 1.1-.8 2.2-1.6 3.4-2.4.7-.5 2-1.8 2.9-1.9.6-.1 1.1.6 1 1.1-.1.8-1.4 1.3-2.1 1.8-1.8 1.5-3.7 2.9-5.6 4.4zm5.4-.6c1-.8 6.8-3.9 7.2-1.1.2 1.1-2 .7-2.9 1-1.4.4-2.7 1.3-3.6 2.2-.9.9-1 1.5-.4 2.6.2.4.6 1 0 1.3-.4.2-.8.1-1.2-.2-2.2-1.7-1-4.5.9-5.8zm2.1 7.3c1.6-.9 3.2-1.9 4.8-2.8 1.1-.7 3.2-2 4.7-1.7 1.4.3 1.3 1.7.8 2.5-.9 1.4-2.4 2.6-3.6 3.8-.7.7-2.3 2.9-3.6 2.4-1.8-.7 0-2 .6-2.7.3-.3.7-1-.2-1.1-.6-.1-1.4.7-1.9.9-.5.2-.9.4-1.4.1-.6-.4-.7-1-.2-1.4zm7.2-1.9c-.3.1-2.5 1.1-1.9 1.5.6.3 1.7-1.2 1.9-1.5zm.4 9c-.6.4-1.1.9-1.8.7-.9-.3-1-1-.5-1.6 1.1-1.3 2.7-2.5 4.1-3.5 1.5-1.1 2.9-2.5 4.5-3.4 1.3-.7 2.2.2 2.7 1.2.5 1.3-.2 2.3-1.3 3.2-.6.5-1.3 1.1-2.1 1.5-.8.4-1.6.5-2.4.9-1 .4-1 .8-1.1 1.7 0 .5.1 1.6-.4 2-.5.4-1.2.1-1.5-.3-.6-.7-.2-1.7-.2-2.4zm6.6-5.4c-.9.7-1.8 1.3-2.7 2 1.1-.4 1.9-1.1 2.7-2zm-2.8 8.9c1.6-.9 3.2-1.9 4.8-2.8 1.1-.7 3.2-2 4.7-1.7 1.4.3 1.3 1.7.8 2.5-.9 1.4-2.4 2.6-3.6 3.8-.7.7-2.3 2.9-3.6 2.4-1.8-.7 0-2 .6-2.7.3-.3.7-1-.2-1.1-.6-.1-1.4.7-1.9.9-.5.2-.9.4-1.4.1-.6-.4-.7-1-.2-1.4zm7.2-1.9c-.3.1-2.5 1.1-1.9 1.5.5.3 1.7-1.2 1.9-1.5zm1.2 8.7c.7.2 1.8 0 2.2-.6.4-.5-.1-.6-.2-1.1-.1-1 1.2-.6 1.7-.1.5.4 1 1.1.9 1.7-.1.8-1.8 1.6-2.6 1.9-.7.3-1.5.2-2.3 0-1.9-.5-2.4-2.4-1.6-3.8.9-1.6 3.3-2.7 5.2-3.4 1.4-.5 4.8-1 4.9 1.1 0 1-.8.6-1.4.3-.9-.3-1.8 0-2.7.3-1 .5-5 2.3-4.1 3.7zm6.1 4.3c.7.1 1.7-.8 2.2-1.1.8-.5 1.6-1 2.3-1.6.5-.3 1-.8 1.7-.5.5.3.7 1 .4 1.4-.3.5-1.4 1-1.9 1.4-.7.5-1.4 1-2.2 1.4-1.2.7-3 1.9-4.3.7-2.4-2.2 2.4-5.4 4.2-6.5.5-.3 1.2-.8 1.7-.4.6.3.5 1.1.2 1.5-1.2 1.4-3.3 2.2-4.3 3.7zm2.8 5c1.6-.9 3.2-1.9 4.8-2.8 1.1-.7 3.2-2 4.7-1.7 1.4.3 1.3 1.7.8 2.5-.9 1.4-2.4 2.6-3.6 3.8-.7.7-2.3 2.9-3.6 2.4-1.8-.7 0-2 .6-2.7.3-.3.7-1-.2-1.1-.6-.1-1.4.7-1.9.9-.5.2-.9.4-1.4.1-.7-.4-.8-1-.2-1.4zm7.2-1.8c-.3.1-2.5 1.1-1.9 1.5.5.3 1.6-1.3 1.9-1.5z"/></g><g><path class="st23" d="M226.6 215.1c1-.9 6.7-4.1 7.2-1.3.2 1.1-2 .7-2.8 1-1.4.5-2.7 1.4-3.6 2.4-.8.9-.9 1.6-.3 2.6.3.4.6 1 0 1.3-.4.3-.8.1-1.2-.1-2.4-1.7-1.3-4.5.7-5.9zm11.1 7.9c-1.2 1-2.6 1.7-4 2.4-1 .5-2.8 1.1-3.9.6-3.1-1.5 0-4.8 1.5-6.1 1.1-1 2.3-1.9 3.6-2.6 1.5-.8 2.4-.9 3.8 0 1 .6 1.6 1.7 1.5 2.7-.2 1.1-1.6 2.1-2.5 3zm-6.8.9c1.6-.3 3-1.1 4.3-2 .8-.5 3.2-2 2.5-3.1-1.1-1.6-6.3 4-6.8 5.1zm8.1 4c.9-.8.9-2.1 1.8-3 .9-.9 2.3-1.6 3.7-1.4.8.1 2.1 1.1 1 1.7-.4.3-1.2 0-1.7.1-.7.1-1.3.5-1.7.9-.9.9-.9 2.1-1.7 3-.9 1-2.3 1.6-3.7 1.4-.8-.1-2.9-1.2-1.4-1.9.5-.2 1.5.1 2.1 0 .6 0 1.2-.3 1.6-.8zm9.8-.2c-.5-.3-1.4-1-1.4-1.6.1-.7 1-.5 1.5-.3.8.4 1.4 1 2 1.5.5.5 1.5 1.1 1.7 1.8.1.6-.3 1.1-1.1.8-.7-.2-.7-.8-1.5-.5-.7.3-1.5 1.2-2.1 1.7-.7.6-1.4 1.3-2.1 1.9-.7.6-1.4 1.2-2 1.9-.5.5-1.2 1.5-1.9 1.7-1.2.3-1.6-1-1.2-1.7.9-1.3 2.6-2.5 3.8-3.5.8-.7 1.5-1.3 2.3-2 .6-.4 1.8-1.1 2-1.7zm-1.6 10.8c1.6-1 3.1-1.9 4.7-2.9 1.1-.7 3.1-2.1 4.7-1.9 1.4.3 1.4 1.7.8 2.5-.9 1.4-2.3 2.7-3.5 3.9-.7.7-2.2 3-3.5 2.5-1.8-.7-.1-2 .6-2.8.3-.3.6-1-.2-1.1-.6 0-1.4.7-1.9.9-.5.2-.9.4-1.4.1-.7-.2-.8-.8-.3-1.2zm7.1-2.1c-.3.1-2.5 1.2-1.8 1.5.5.3 1.6-1.2 1.8-1.5zm3.7 11.7c-.6.4-1 1-1.8.7-.9-.3-1-1-.5-1.6 1-1.4 2.6-2.6 4-3.6 1.4-1.1 2.8-2.6 4.4-3.5 1.2-.7 2.2.2 2.7 1.2.6 1.3-.1 2.3-1.2 3.3-.6.6-1.3 1.1-2.1 1.5-.8.4-1.6.6-2.4.9-.9.4-1 .9-1 1.7 0 .5.1 1.6-.3 2-.5.5-1.2.1-1.6-.3-.5-.7-.1-1.6-.2-2.3zm6.5-5.6l-2.7 2.1c1.2-.5 2-1.2 2.7-2.1zm-1.2 10.5c-.7.6-1.7 0-1.7-.8s1.4-1.7 2.1-2.2c1.1-.9 2.2-1.7 3.3-2.5.7-.5 1.9-1.8 2.8-2 .6-.1 1.1.6 1.1 1.1-.1.8-1.4 1.3-2 1.8-1.9 1.5-3.7 3-5.6 4.6zm5.4-.8c1-.9 6.7-4.1 7.2-1.3.2 1.1-2 .7-2.8 1-1.3.5-2.7 1.4-3.6 2.4-.8.9-.9 1.6-.3 2.6.3.4.6 1 0 1.3-.4.3-.8.1-1.2-.1-2.3-1.7-1.2-4.6.7-5.9zm2.3 7.2c1.6-1 3.1-1.9 4.7-2.9 1.1-.7 3.1-2.1 4.7-1.9 1.4.3 1.4 1.7.8 2.5-.9 1.4-2.3 2.7-3.5 3.9-.7.7-2.2 3-3.5 2.5-1.8-.7-.1-2 .6-2.8.3-.3.6-1-.2-1.1-.6 0-1.4.7-1.9.9-.5.2-.9.4-1.4.1-.6-.2-.8-.8-.3-1.2zm7.2-2.1c-.3.1-2.5 1.2-1.8 1.5.4.4 1.6-1.2 1.8-1.5z"/></g><g><path class="st23" d="M174.3 329.9c-.9.6-1.8 1.5-2.4 2.2-.9 1 .2.8.7 1.7.3.6.1 1.2-.8 1.1-1.2-.1-1.2-1.2-2.2-.2-.5.5-1.7 1.7-1.6 2.4.1.8 1.6 1 1.6 1.9 0 2-3.3-.7-3.5-1.3-.7-1.6 1.1-3.3 2.2-4.6 1.4-1.6 3-3.1 4.6-4.5.8-.7 1.3-.9 2.3-.4.7.4 1.9 1.1 2.3 1.7.3.5.4 1.3-.4 1.4-.9.2-2.1-1.1-2.8-1.4zm-.2 13.6c-1.2-.9-1.6-1.7-1.2-3.1.5-1.5 1.6-2.6 2.9-3.6 1.4-1.1 2.6-2.3 4.1-3.3.6-.4 1-.6 1.5-.1s.4.8 0 1.3c-1.1 1.2-2.5 2.2-3.7 3.2-1.1.9-2.7 2.2-2.7 3.6 0 1.1 2.3 1.3 2 2.4-.5 1.7-2.8-.5-2.9-.4zm11.2 3.2c.9-.9.7-2.2 1.6-3.1.8-.9 2.2-1.8 3.6-1.7.8.1 2.2.9 1.2 1.7-.4.3-1.2.1-1.6.2-.7.2-1.3.6-1.7 1.1-.8.9-.7 2.1-1.5 3.1s-2.2 1.7-3.6 1.7c-.8 0-3-1-1.6-1.8.5-.3 1.5 0 2-.1a5 5 0 001.6-1.1zm2.5 5c1.5-1.1 3-2.1 4.5-3.2 1.1-.8 3-2.3 4.5-2.2 1.5.2 1.5 1.6 1 2.4-.8 1.4-2.1 2.8-3.2 4.1-.6.7-2 3.1-3.3 2.7-1.9-.6-.2-2 .4-2.8.3-.4.6-1-.3-1-.6 0-1.4.8-1.8 1-.5.2-.9.5-1.4.2-.8-.2-.9-.8-.4-1.2zm7-2.5c-.3.2-2.4 1.3-1.7 1.6.4.3 1.5-1.4 1.7-1.6zm.7 10.7c-1.2-.9-1.6-1.7-1.2-3.1.5-1.5 1.6-2.6 2.9-3.6 1.4-1.1 2.6-2.3 4.1-3.3.6-.4 1-.6 1.5-.1s.4.8 0 1.3c-1.1 1.2-2.5 2.2-3.7 3.2-1.1.9-2.7 2.2-2.7 3.6 0 1.1 2.3 1.3 2 2.4-.5 1.8-2.8-.5-2.9-.4zm8.1.8c1.2-.5 2.3-1.6 3.4-2.4.4-.3.9-.8 1.5-.6.5.2.8.9.6 1.3-.3.6-1.5 1.1-2 1.5-.6.5-1.3 1-2 1.5-1.1.7-2.8 1.7-3.9.6-1-1-.1-2.3.5-3.3.8-1.2 1.9-3 3.3-3.7 1.2-.7 2 .6 1.3 1.4-.8 1-2.7 2.5-2.7 3.7zm2.4 5.1c1.5-1.1 3-2.1 4.5-3.2 1.1-.8 3-2.3 4.5-2.2 1.5.2 1.5 1.6 1 2.4-.8 1.4-2.1 2.8-3.2 4.1-.6.7-2 3.1-3.3 2.7-1.9-.6-.2-2 .4-2.8.3-.4.6-1-.3-1-.6 0-1.4.8-1.8 1-.5.2-.9.5-1.4.2-.7-.2-.8-.8-.4-1.2zm7-2.6c-.3.2-2.4 1.3-1.7 1.6.5.3 1.5-1.3 1.7-1.6zm2.8 4.1c1.2-1.1 4.2-4.9 5.7-2.3 1.2 2.1-.8 4.7-2.6 6.1-1.4 1.1-4.6 2.5-6.4 1.5-2.4-1.4 3.6-5 3.3-5.3zm3.4 0c-.6.5-3.4 2.6-3.2 3.3 1.4-.9 2.6-2 3.2-3.3zm8.1 8c-1.2 1-2.5 1.9-3.9 2.7-1 .6-2.7 1.3-3.9.8-3.2-1.3-.3-4.8 1.1-6.2 1-1 2.2-2 3.4-2.9 1.4-.9 2.4-1 3.8-.2 1 .5 1.7 1.5 1.6 2.6 0 1.2-1.3 2.3-2.1 3.2zm-6.7 1.4c1.6-.4 3-1.3 4.2-2.3.7-.6 3.1-2.2 2.3-3.2-1.3-1.6-6.2 4.3-6.5 5.5zm6.7 5.5c-.6.4-1 1-1.7.8-1-.2-1.1-.9-.6-1.6 1-1.4 2.4-2.7 3.7-3.9 1.4-1.2 2.7-2.7 4.2-3.8 1.2-.8 2.2 0 2.8 1 .6 1.2 0 2.3-1 3.3-.6.6-1.2 1.2-2 1.7-.7.5-1.5.7-2.3 1.1-.9.5-.9.9-.9 1.8 0 .5.2 1.5-.2 2-.5.5-1.2.2-1.6-.2-.6-.5-.3-1.4-.4-2.2zm6.1-5.9c-.8.8-1.7 1.5-2.5 2.3 1.1-.6 1.9-1.4 2.5-2.3z"/></g><g><path class="st23" d="M437.7 475.4c-.6.4-1 1-1.8.8-.9-.3-1-1-.6-1.6 1-1.4 2.5-2.6 3.9-3.7s2.8-2.6 4.4-3.6c1.2-.7 2.2.1 2.7 1.1.6 1.3-.1 2.3-1.1 3.3-.6.6-1.3 1.1-2 1.6-.7.4-1.6.6-2.4 1-.9.4-1 .9-1 1.7 0 .5.2 1.6-.3 2-.5.5-1.2.2-1.6-.3-.5-.6-.2-1.5-.2-2.3zm6.3-5.6c-.9.7-1.7 1.4-2.6 2.1 1.2-.5 2-1.3 2.6-2.1zm.5 9c.7.1 1.7-.8 2.1-1.2.8-.5 1.5-1.1 2.2-1.7.5-.4 1-.9 1.6-.6.5.2.7 1 .5 1.4-.3.5-1.3 1-1.9 1.5-.7.6-1.4 1.1-2.1 1.6-1.1.7-2.9 2-4.2.9-2.5-2.1 2.1-5.5 3.9-6.6.4-.3 1.1-.8 1.7-.5.6.3.6 1.1.2 1.5-1 1.2-3.1 2.1-4 3.7zm6.4 4.4c.9-.8.8-2.1 1.7-3 .9-.9 2.3-1.7 3.7-1.5.8.1 2.2 1 1.1 1.7-.4.3-1.2 0-1.7.1-.7.1-1.3.5-1.7 1-.9.9-.8 2.1-1.6 3-.9 1-2.2 1.6-3.7 1.5-.8-.1-3-1.1-1.5-1.8.5-.2 1.5.1 2.1 0 .6-.2 1.1-.6 1.6-1zm5.5 4.7c.9-.8.8-2.1 1.7-3 .9-.9 2.3-1.7 3.7-1.5.8.1 2.2 1 1.1 1.7-.4.3-1.2 0-1.7.1-.7.1-1.3.5-1.7 1-.9.9-.8 2.1-1.6 3-.9 1-2.2 1.6-3.7 1.5-.8-.1-3-1.1-1.5-1.8.5-.2 1.5.1 2.1 0 .6-.2 1.2-.6 1.6-1zm10.4.2c-.9.5-1.8 1.4-2.5 2.1-.9.9.2.9.6 1.7.3.6 0 1.2-.8 1.1-1.2-.1-1.1-1.3-2.2-.3-.5.5-1.8 1.6-1.8 2.3 0 .8 1.6 1.1 1.5 1.9-.1 2-3.2-.8-3.5-1.5-.6-1.6 1.3-3.3 2.4-4.4 1.4-1.5 3.1-2.9 4.8-4.3.8-.7 1.3-.8 2.3-.2.7.4 1.8 1.1 2.3 1.8.3.5.3 1.3-.5 1.4-.8 0-1.9-1.3-2.6-1.6zm-.9 13.5c-1.1-1-1.6-1.8-1.1-3.2.5-1.4 1.7-2.5 3-3.4 1.4-1 2.7-2.2 4.3-3.1.6-.4 1-.5 1.5 0s.4.9-.1 1.3c-1.1 1.1-2.6 2-3.9 3-1.1.9-2.8 2.1-2.9 3.5 0 1.1 2.2 1.4 1.9 2.5-.4 1.7-2.6-.7-2.7-.6z"/></g><g><path class="st23" d="M150.9 692.4c-.6-1.1-1.9-1.2-2.7-2.2-.7-1-1.2-2.5-.8-3.9.2-.8 1.4-1.9 1.9-.7.2.5-.2 1.2-.2 1.6 0 .7.3 1.4.6 1.9.7 1 1.9 1.2 2.7 2.2.8 1 1.2 2.5.8 3.9-.2.7-1.6 2.7-2.1 1.1-.1-.5.4-1.4.3-2 .1-.8-.1-1.4-.5-1.9zm2.1-10.2c.4 1 1 2.1 1.6 2.9.7 1.1.9 0 1.8-.3.7-.2 1.2.2.9 1-.4 1.1-1.5.8-.7 2.1.4.6 1.2 2.1 1.9 2.1.8.1 1.4-1.3 2.2-1.1 1.9.5-1.4 3-2.1 3.1-1.7.3-3-1.9-3.9-3.2-1.2-1.7-2.3-3.6-3.3-5.5-.5-.9-.6-1.5.2-2.3.5-.6 1.5-1.6 2.2-1.9.5-.2 1.4-.1 1.3.7-.2.9-1.7 1.8-2.1 2.4zm11.4 2.5c.3.6.8 1.2.4 1.9-.5.9-1.2.8-1.7.3-1.2-1.3-2.1-3-2.9-4.5-.9-1.6-2.1-3.2-2.7-4.9-.5-1.3.5-2.2 1.6-2.5 1.4-.3 2.3.5 3 1.7.4.7.9 1.5 1.2 2.3.3.8.3 1.7.5 2.5.2 1 .7 1.1 1.5 1.3.5.1 1.6.1 1.9.7.4.6-.1 1.2-.5 1.5-.7.3-1.6-.2-2.3-.3zm-4.4-7.3c.5 1 1.1 2 1.6 3-.3-1.2-.9-2.2-1.6-3zm10.2 2.5c.3.6.8 1.2.4 1.9-.5.9-1.2.8-1.7.3-1.2-1.3-2.1-3-2.9-4.5-.9-1.6-2.1-3.2-2.7-4.9-.5-1.3.5-2.2 1.6-2.5 1.4-.3 2.3.5 3 1.7.4.7.9 1.5 1.2 2.3.3.8.3 1.7.5 2.5.3 1 .7 1.1 1.5 1.3.5.1 1.6.1 1.9.7.4.6-.1 1.2-.5 1.5-.7.3-1.5-.2-2.3-.3zm-4.4-7.2c.5 1 1.1 2 1.6 3-.2-1.3-.9-2.2-1.6-3zm8.4 3.9l-2.1-5.1c-.5-1.2-1.6-3.4-1.1-4.9.5-1.4 1.9-1.1 2.6-.4 1.2 1.1 2.3 2.7 3.3 4.1.6.8 2.6 2.7 1.9 3.9-1 1.7-2-.3-2.6-1-.3-.3-.9-.8-1.1.1-.1.6.5 1.5.6 2 .1.5.3 1-.1 1.4-.5.5-1.1.5-1.4-.1zm-.9-7.4c.1.3.7 2.6 1.2 2.1.4-.5-1-1.8-1.2-2.1zm7.1-2.1c.2 1.1 1.2 2.3 1.7 3.2.3.6 1.2 1.6.7 2.4-1.3 1.9-3.1-2.7-3.6-3.5-.6-1.1-1.3-2.1-1.8-3.2-.4-1-1-2.2 0-2.9 1.8-1.3 3.2 2 4.8 2.6.2-.7-1.3-2.4-1.7-3-.6-.9-1.7-2.1-2-3.2-.3-1 .9-1.5 1.5-1 .9.6 1.6 2.2 2.2 3.2.7 1 1.2 2.1 1.9 3.1.5.8 1.7 1.9 1.3 3.1-.7 2.6-3.9-.6-5-.8zm9.8-10.4c.8 1.4 1.3 2.8 1.7 4.4.3 1.1.7 2.9-.1 4-2 2.8-4.7-.8-5.8-2.5-.8-1.2-1.5-2.6-2-4-.6-1.6-.5-2.6.6-3.8.8-.8 1.9-1.3 2.9-1 1.2.3 1.9 1.8 2.7 2.9zm-.2 6.8c0-1.7-.6-3.2-1.3-4.6-.4-.8-1.5-3.5-2.6-3-1.9.9 2.8 7 3.9 7.6z"/></g><g><path class="st23" d="M20.1 389.7c-.4-.4-.9-1-1.5-.9-.8.2-1.2 1.4-2 1.7-.6.3-1.2.2-1.5-.4-.3-.6.1-1.1.5-1.6 1.2-1.3 2.8-2.4 4.1-3.6.7-.6 2.9-2.8 3.5-.9.5 1.3-2.6 2-3 3.2-.1.3.4.8.8.9.5.2.6.1 1.1-.2.8-.5 1.4-1.1 2.2-1.7.6-.4 1.3-1.2 2.1-.8.7.4.7 1.1.3 1.6-.6.6-1.5 1.1-2.1 1.6-.8.6-1.5 1.3-2.3 1.9-.8.7-1.7 1.4-2.4 2.2-.5.5-1 1.3-2 .9-1.9-.9 1.6-3.1 2.2-3.9zm11.3 5.7c-1.2 1-2.5 1.8-3.9 2.6-1 .5-2.7 1.3-3.9.7-3.1-1.4-.2-4.8 1.2-6.2 1-1 2.2-2 3.5-2.8 1.4-.9 2.4-1 3.8-.2 1 .6 1.6 1.6 1.6 2.6-.1 1.4-1.5 2.4-2.3 3.3zm-6.7 1.3c1.6-.4 3-1.2 4.3-2.2.7-.6 3.1-2.2 2.4-3.2-1.4-1.7-6.3 4.2-6.7 5.4zm9.2 3.2c-1 .4-2 1.7-2.7 2.4-.5.5-1.3 1.5-2.2 1.1-2.1-.9 2-3.6 2.7-4.3.9-.8 1.8-1.7 2.8-2.4.9-.6 1.9-1.5 2.8-.6 1.6 1.5-1.3 3.6-1.5 5.2.8 0 2.1-1.8 2.6-2.3.8-.8 1.7-2.1 2.7-2.6.9-.5 1.7.6 1.3 1.3-.4 1-1.9 2-2.6 2.8-.8.9-1.8 1.6-2.6 2.5-.7.7-1.5 2-2.8 2-3-.2-.5-4-.5-5.1zm6.9 3.9c1.2-1.1 4.3-4.8 5.7-2.1 1.1 2.1-.9 4.7-2.8 6.1-1.4 1.1-4.6 2.4-6.4 1.3-2.4-1.6 3.8-5.1 3.5-5.3zm3.4 0c-.6.5-3.4 2.5-3.2 3.2 1.3-.8 2.5-1.9 3.2-3.2zm1.8 7.9c.7.1 1.6-.9 2.1-1.2.8-.6 1.5-1.2 2.2-1.8.5-.4 1-.9 1.6-.6.5.2.8 1 .5 1.4-.3.5-1.3 1.1-1.8 1.5-.7.6-1.4 1.1-2.1 1.6-1.1.8-2.9 2.1-4.2 1-2.5-2 2-5.6 3.8-6.7.4-.3 1.1-.8 1.7-.6.7.3.6 1 .3 1.5-1.2 1.4-3.3 2.3-4.1 3.9zm4.8 6.3c-.6.4-1 1-1.7.8-.9-.3-1-1-.6-1.6 1-1.4 2.5-2.7 3.8-3.8 1.4-1.2 2.7-2.7 4.3-3.7 1.2-.8 2.2.1 2.7 1.1.6 1.3 0 2.3-1 3.3-.6.6-1.3 1.2-2 1.6-.7.5-1.6.7-2.3 1-.9.4-1 .9-1 1.8 0 .5.2 1.5-.2 2-.5.5-1.2.2-1.6-.2-.6-.6-.3-1.5-.4-2.3zm6.2-5.8c-.9.7-1.7 1.5-2.6 2.2 1.2-.5 2-1.3 2.6-2.2zm-2.1 9c1.5-1 3.1-2.1 4.6-3.1 1.1-.8 3-2.3 4.6-2.1 1.5.2 1.5 1.6 1 2.5-.8 1.4-2.2 2.8-3.3 4-.6.7-2.1 3.1-3.4 2.7-1.9-.6-.2-2 .4-2.8.3-.4.6-1-.3-1-.6 0-1.4.8-1.9 1-.5.2-.9.4-1.4.2-.6-.3-.8-.9-.3-1.4zm7-2.3c-.3.2-2.4 1.3-1.8 1.6.6.2 1.6-1.4 1.8-1.6zm2.6 6.9c.9-.8.8-2.1 1.6-3.1.9-.9 2.2-1.7 3.7-1.6.8.1 2.2 1 1.1 1.7-.4.3-1.2.1-1.6.2-.7.1-1.3.6-1.7 1-.8.9-.8 2.1-1.6 3-.8 1-2.2 1.6-3.7 1.6-.8 0-3-1.1-1.5-1.8.5-.3 1.5.1 2.1-.1.6-.1 1.2-.5 1.6-.9z"/></g></g><g id="house"><path class="st2" d="M579 260.9s12 11.8 34.6 11.3 28.1 34.3-21.1 45.6c-49.3 11.3-75.3-25.5-67.4-43.8 7.9-18.4 53.9-13.1 53.9-13.1z"/><path class="st5" d="M519.6 228.6c1.3 0 2.9 1.6 3.7 2.6-.5-3-.4-4.9-.4-5.1-.9-3.5 1.1-5.6 1.6-4 .4 1.2-.4 3.2-.9 4.2 0 .3 0 1 .1 2 .4-1.3 1-3.3 1.9-3.4 1.2-.2.4 3-1.8 4.3.1 1.2.4 2.8.9 4.6.3-1.5 1.1-4.4 2.5-4.7 1.9-.4.4 4-2.3 5.4.4 1.4.9 2.9 1.6 4.6.3-1.5 1.2-5.7 3.1-6.1 2.3-.5.4 5-3 6.5.7 1.6 1.5 3.2 2.5 5 .2-1.3.5-3.6.9-4.8.8-2.3 3.7-3.2 3 .3-.5 2.7-2.6 4.4-3.6 5.2.1.1.2.3.3.4.9 1.4 1.7 2.8 2.4 4.1.2-1.3.6-4.1 1.1-5.6.8-2.5 4-3.5 3.2.3-.6 3.1-3.1 5.1-4.1 5.7 1.2 2.1 2.1 4.1 2.9 5.7.2-1.6.7-5.2 1.4-7.1 1-3.1 5-4.4 4 .4-.8 4-4.1 6.5-5.2 7.2.7 1.4 1.1 2.5 1.4 3.3l-1.1-.7c-.5-1.3-1.4-3.1-2.5-5.3-4.4 3.1-11.3 1.5-8.5-.7 2.4-1.9 6.5-.6 8.1.1-.8-1.5-1.7-3.2-2.7-4.9-4.2 2.6-10.9.1-7.9-1.5 2.4-1.3 6.2.3 7.6.9-.3-.5-.7-1.1-1-1.6-.7-1.1-1.3-2.2-1.8-3.2-4.2.9-8.2-3.1-5.9-3.5 1.7-.3 4.2 1.6 5.5 2.7-.8-1.6-1.4-3.1-1.9-4.5-3.5.3-6.5-3.4-4.5-3.5 1.4-.1 3.2 1.6 4.2 2.7-.6-1.8-1-3.3-1.3-4.7-2.8.1-5.2-3.3-3.5-3.3z"/><path class="st1" d="M559.9 243.1l2.3 1.8-11.1 8.3-1.9-1.6zm-7 53.6l4.9-3.3 21.6 10.4-5.8 3.3z"/><path fill="#e3dfdd" d="M534.9 247l1.7 36.2 46.3 22.2-2-43.7-16.7-18.5-13.4 8.9z"/><path class="st12" d="M538.5 284.1l-.8-17.5 16.2 7.4.9 18z"/><defs><path id="SVGID_1_" d="M538.5 284.1l-.8-17.5 16.2 7.4.9 18z"/></defs><clipPath id="SVGID_2_"><use xlink:href="#SVGID_1_" overflow="visible"/></clipPath><g clip-path="url(#SVGID_2_)"><path class="st5" d="M535.4 267.4c5.6 2.1 18.5 9.2 24.3 10.8.2.1 0-.2-.1-.3-5.8-1.6-18.8-8.7-24.3-10.8-.2-.1 0 .2.1.3zm-.4 1c3.1 1.2 13.9 6.4 16.9 7.7 2.5 1.1 5.1 1.8 7.4 3.2.2.1.3 0 .1-.1-2.2-1.2-4.5-2-6.9-3-3.3-1.3-14.3-6.7-17.6-8-.2-.1 0 .2.1.2zm-.2.9c2.4 1.3 13 6 15.4 7.3 2.8 1.5 5.7 2.4 8.5 3.8.2.1 0-.2-.1-.2-2.6-1.3-5.3-2.1-7.9-3.4-2.6-1.4-13.4-6.1-16-7.6-.2-.2-.1.1.1.1zm-.4 1.7c2.5 1.2 13 6.1 15.5 7.2 2.7 1.2 5.8 2.1 8.3 3.6.2.1.2-.1 0-.2-2.2-1.3-4.6-2-6.9-3-3-1.3-14-6.4-16.9-7.8-.2-.2-.1.1 0 .2zm-.3 1.1c5.2 2.6 18.3 8.7 23.8 10.6.2.1 0-.2-.1-.2-5.5-2-18.5-8-23.7-10.6-.2-.1-.1.2 0 .2zm-.3 1.4c2.4 1.3 12.8 6.4 15.3 7.5 2.7 1.3 5.7 2.1 8.4 3.4.2.1.1-.2 0-.2-2.3-1.2-4.9-1.9-7.3-2.9-2.9-1.3-13.6-6.5-16.3-8-.4-.2-.3.1-.1.2zm-.5 1.9c4.8 3 18.7 8 23.7 10.7.2.1 0-.2-.1-.3-5-2.7-18.9-7.6-23.7-10.7-.2-.1 0 .2.1.3zm-.5 1.3c5.2 2.6 18.5 8.4 23.9 10.5.2.1 0-.2-.1-.3-5.4-2.1-18.6-7.9-23.8-10.5-.3-.1-.1.2 0 .3zm-.7 1.6c2.8.8 13.4 5.9 16.2 6.9 2.7 1 5.2 2.4 7.8 3.3.1.1 0-.3-.1-.3-2.7-1-5.2-2.3-7.8-3.3-2.7-1-13.4-6.1-16.2-6.9-.1-.1 0 .2.1.3zm23.5 12c-5.2-2.3-18.3-8.9-23.7-10.7-.2-.1 0 .2.1.3 5.4 1.9 18.5 8.4 23.7 10.7.2 0 0-.3-.1-.3z"/></g><path class="st2" d="M535 245.7l37.3-22.2 9.9 2.7-24.2 19.7-8.8 5.7z"/><path fill="#ddd6d0" d="M580.9 261.7l2 43.7 34.9-22.4-2.1-43.1z"/><defs><path id="SVGID_3_" d="M580.9 261.7l2 43.7 34.9-22.4-2.1-43.1z"/></defs><clipPath id="SVGID_4_"><use xlink:href="#SVGID_3_" overflow="visible"/></clipPath><g clip-path="url(#SVGID_4_)"><path class="st23" d="M616 242.1c-4.6 2.6-21.5 14.5-25.9 17.2-4.7 2.9-8.2 4.8-12.2 7.4-.2.1.3.2.4.1 3.5-2.2 6.6-3.6 10.9-6.3 5-3.1 22.1-15.4 27.3-18.3.2-.1 0-.3-.1-.2l-.4.1zm.6 2c-4.6 2-20.9 13.9-25.2 16.6-4.5 2.8-9.1 5.3-13.8 7.8-.2.1.3.2.4.1 4.7-2.5 9.3-5 13.8-7.8 4.2-2.7 20.5-14.6 25.2-16.6.2-.1-.3-.1-.4-.1zm.1 3.1c-2.4 1.5-17.2 11.7-19.7 13-1.9 1-3.4 2.3-5.2 3.4-2 1.2-4.3 1.8-6.3 3-2.3 1.3-4.4 2.9-7 3.8-.2.1.3.2.4.1 2.2-.8 4-2 6-3.2 2.2-1.3 4.5-2 6.7-3.2 2.3-1.2 4.2-2.9 6.5-4.1 2.3-1.2 16.9-11.3 19.1-12.7 0-.1-.4-.2-.5-.1zm1.1 3.3c-4.6 1.6-21.3 12.9-25.5 15.2-4.5 2.4-9 5-13.4 7.5-.2.1.3.1.4.1 4.2-2.4 8.4-4.8 12.6-7.1 4.5-2.4 21.4-13.9 26.2-15.5.3-.2-.2-.2-.3-.2zm.3 2.2c-8.6 4.6-29.8 18-38.8 21.9-.2.1.3.2.4.1 9-3.9 30.1-17.3 38.8-21.9.1 0-.3-.1-.4-.1zm-.2 2.8c-4.3 2.2-21.2 12.7-25.5 15-2 1-3.8 2.3-5.8 3.3-2.4 1.2-4.9 2.4-7.3 3.6-.2.1.2.2.4.2 4.3-2.1 8.4-4.1 12.5-6.5 4.4-2.5 21.7-13.1 26.2-15.4 0-.2-.4-.3-.5-.2zm.8 2c-4.6 2.3-21.9 13-26.4 15.4-1.9 1-3.7 2.3-5.6 3.3-2.2 1.2-4.5 2.2-6.9 3.2-.1.1.2.3.4.2 2.2-1 4.4-1.9 6.5-3 2.1-1.1 3.9-2.4 6-3.5 4.6-2.4 21.8-13.1 26.4-15.4.1-.1-.2-.3-.4-.2zm.3 2.5c-8.9 4.5-30.1 17.8-39 22.4-.2.1.3.1.4.1 8.8-4.6 30.1-17.9 39-22.4.1-.1-.3-.1-.4-.1zm.7 2.3c-2.4 1.2-17.1 10.9-19.6 11.9-2.5.9-4.6 2.1-6.8 3.5-4.4 2.7-8.9 5.2-13.5 7.4-.1.1.2.3.4.2 4.6-2.3 9.2-4.8 13.5-7.4 2.1-1.3 4.1-2.5 6.4-3.4 2.6-1 17.5-10.8 20-12 .1-.1-.2-.3-.4-.2zm.7 2c-9 4.8-30.5 18.1-39.6 22.8-.1.1.3.2.4.1 9.1-4.7 30.6-18 39.6-22.8.1 0-.3-.2-.4-.1zm.3 2.6c-4.8 2.5-22 13.7-26.8 16.2-4.5 2.4-9.4 4.5-13.5 7.5-.1.1.3.2.4.2 4.1-3 9-5.1 13.5-7.5 4.8-2.5 22-13.7 26.8-16.2.1-.1-.3-.3-.4-.2zm.2 2.5c-4.8 2.9-21.9 14.5-27 16.8-4.7 2.1-9 4.6-13.2 7.6-.1.1.3.3.4.2 4.2-3 8.4-5.5 13.2-7.6 5.1-2.3 22.2-13.9 27-16.8.1-.1-.3-.3-.4-.2zm.1 2.1c-4.5 3.4-21.7 14.8-26.7 17.3-2.1 1.1-4.3 2.1-6.4 3.4-2.4 1.4-4 3-6.7 4-.3.1.2.2.3.1 2.3-.8 3.7-1.8 5.6-3.2 2.3-1.7 5.1-2.9 7.6-4.2 5.1-2.5 22.3-14 26.8-17.4h-.5zm.5 2.6c-5 3-22.4 14.7-27.5 17.5-4.7 2.5-8.6 6.1-13.5 8.2-.1 0 .3.2.4.2 4.9-2.1 8.9-5.7 13.5-8.2 5.1-2.8 22.5-14.5 27.5-17.5.2-.1-.2-.3-.4-.2zm.4 2.2c-9.2 5.9-30.9 20.5-40.1 26.4-.2.1.3.2.4.1 9.2-5.9 30.9-20.5 40.1-26.4.2-.1-.3-.2-.4-.1z"/></g><path class="st2" d="M578.9 261.4l38.3-23.4-20.8-18-35.2 21.8z"/><path class="st28" d="M592.8 259.3l12.9-8.1.6 12.1-12.9 8.1z"/><path class="st23" d="M606.8 263.3l-.9.1-.6-11.4-12.5 7.8v-1l13.4-8.4z"/><path class="st28" d="M590.6 279.4l4.7-2.9.6 12.2-4.7 3.1z"/><path class="st23" d="M596.3 288.6l-.9.1-.5-11.4-4.3 2.6-.1-.9 5.2-3.2z"/><path class="st0" d="M590.6 293l-.1-1.4 6.4-4.4.1 1.4z"/><path class="st28" d="M606.3 269.4l4.7-2.9.6 12.2-4.7 3.1z"/><path class="st23" d="M612 278.6l-.9.1-.5-11.4-4.3 2.6v-1l5.1-3.1z"/><path class="st0" d="M606.3 282.9l-.1-1.5 6.4-4.4.1 1.5z"/><path class="st8" d="M553.3 238.6l32.9-20.4 5.8 4.5-30.8 19.1-2.6 2.3z"/><path class="st14" d="M548.7 242.8l8.2 3.2.8-1.6-5.1-4.7z"/><path class="st16" d="M558 245.9l-5-5.1-4.9 2.6-1.9-.7 7.1-4.1 6 6z"/><path class="st16" d="M578.9 263L561 244.2l-11.5 7.9-14.6-4.6-.7.3-.1-1.6.9-.5 14.2 4.4 12-8.3 18 19 38-22.8.1 2z"/><path class="st1" d="M553.5 241.3l-3.5 2-1-.4 4-2.1z"/><path class="st2" d="M568.1 289.4l.4 9.1 5.5 2.7-.4-9.2z"/><path class="st0" d="M574.2 301.3l-.4-.3-.4-8.6-5.1-2.4.5 8.6-.5-.2-.4-9.1 5.9 2.8zm-15-16.2l.2 3.3-2-1-.2-3.2z"/><path class="st1" d="M577.6 283.3l.3 5.9-4.5 2.7z"/><path class="st23" d="M557.6 287.5l-.4-.2-.2-3.2.5.2z"/><path class="st0" d="M562.9 286.9l.1 3.3-2-1.1-.1-3.2z"/><path class="st23" d="M561.3 289.3l-.5-.3-.2-3.2.5.2z"/><path class="st28" d="M564 261.4l6.8 3.3.2 5.9-6.8-3.1z"/><path class="st23" d="M563.8 267.5l-.3-6.8 7.5 3.6-.4.8-6.1-2.9.2 5.3z"/><path class="st28" d="M550.7 259.1l.3 8.1 3.4 1.6-.4-8.3z"/><path class="st23" d="M551.5 267.5l-.9-.5-.4-8.5 3.8 1.5.1 1-2.9-1.2z"/><path class="st28" d="M545.2 256.7l.4 8.1 3.4 1.6-.4-8.4z"/><path class="st23" d="M546.1 265l-1-.4-.4-8.6 3.9 1.6v.9l-2.9-1.1z"/><path class="st28" d="M540.2 254.8l.3 8.1 3.4 1.6-.4-8.4z"/><path class="st23" d="M541 263.1l-.9-.4-.4-8.6 3.8 1.5.1 1-3-1.1z"/><path class="st0" d="M573.6 307.2l-.9-.4-.8-15.6h.9zm-17.5-9.6h-.9l-.4-6.8h1zm2.4 1.1l-.9.1-.3-6.9h.9zm2.5 1.1l-.9.1-.3-6.8.9-.1zm2.8 1.4l-.9.1-.3-6.8.9-.1z"/><path class="st0" d="M566.7 303.7l-13.8-6.9-.8-15.2h1l.7 14.6 11.9 5.8-.7-14.2h.9z"/><path class="st0" d="M565.8 296.2l-13-6.2.4-.8 12.7 6z"/><path class="st8" d="M555.6 272.9l-4.1 8.5 21.9 10.5 4.2-8.6z"/><path class="st0" d="M592.1 272.9l-.1-1.5 15.7-9.9v1.5z"/><path d="M593.6 240.6c-.6.3-1.3.7-1.9 1.1-.3.2.6.8.8.6.6-.4 1.2-.8 1.9-1.1.3-.1-.6-.8-.8-.6zm-2.9.2c-.5.3-.9.5-1.4.8-.3.2.6.5.9.3.5-.3.9-.5 1.4-.8.3-.2-.6-.5-.9-.3zm10-10.3c-.7.4-1.4.8-2.1 1.1-.2.1 0 .3.2.3.2.1.5.1.7 0 .7-.4 1.4-.8 2.1-1.1.2-.1 0-.3-.2-.3-.2-.1-.5-.1-.7 0zm-22.1 19.2c-.6.4-1.2.7-1.8.9-.2.1.2.4.2.4.2.1.5.2.7.1l1.8-.9c.3-.2-.6-.7-.9-.5z" fill="#4c4b70"/><path class="st10" d="M609 246.6s7.1-6.2 8.1-10.3c1.1-4.1-5.5.9-7.7 7.1s-.4 3.6-.4 3.6m-1.9-11.8s7.8-6.9 8.9-11.4-6 1-8.5 7.8-.4 4-.4 4m-.9 21s6.8-2 8.9-5c2.1-3-4.7-.9-8.4 3.3-3.7 4.3.5.9.5.9"/><path class="st10" d="M604.5 225.2c.1-9.7 8.1-17.5 8.5-17.8.3-.2.7-.2.9 0 .2.3.2.7 0 .9-.1.1-8 7.8-8.1 16.9-.1 3.8.8 7.9 1.7 11.9 1.3 6.1 2.6 11.9.6 16.4-3.4 7.8-11.9 9-12.3 9-.1-1.1 1.2-1.6 1.2-1.6 2.4-.6 7.6-2.5 10-8 1.8-4.1.6-9.7-.7-15.6-.9-4-1.8-8.2-1.8-12.1z"/><path class="st10" d="M605.9 221.6s9.2-2 12.1-5c2.9-3.1-5.2-1.8-10.2 2.4s-2.1 3-2.1 3"/><path class="st10" d="M612.4 209.9s5-3.2 6.1-6.6c1.1-3.4-4.6.5-6.8 5.6s.7.7.7.7m-4.5 5.5s1.9-5.8.6-9.2-3.3 3.4-1.8 8.8 1 0 1 0m-4.7 43.8s.4-4.6-1.1-6.9c-1.6-2.3-2 3.2.2 6.8 1.1 1.8 1 .5 1 .5m1.5-34.2s-1.1-9-3.8-12.2c-3.2-3.9-2.3 4.8 1.9 11.3s1.8 0 1.8 0m2.3 14.7s-5-11.6-9.8-15c-5.7-4-1.2 7.4 6.9 14.5 8.2 7.1 2.4-.7 2.4-.7m.6 13.9s-3.6-8.3-7-10.7c-4.1-2.9-.9 5.3 4.9 10.4s1.7-.5 1.7-.5"/><path class="st18" d="M594.4 209.7s-2.8-7.2-8.7-8.4c0 0 1.6 6.7 8.7 8.4z"/><path d="M627.7 194s9.6-5.2 10.3-13.9c.1 0-9 3.5-10.3 13.9z" fill="#f4dd87"/><path class="st14" d="M535 234.8s-2.3-4.6 2.2-10.2c-.1 0 2.2 5.6-2.2 10.2z"/><path class="st11" d="M612.8 193.3c-.9-1.1-6.4 3.5-6.4 3.5s3.8-9.7 1.1-8.3c-2.6 1.4-3.1 8.3-3.1 8.3s-1.1-10.9-3.2-9.6c-2.2 1.3 1.2 9.8 1.2 9.8s-6.9-5.2-5.9-2.1c.2.7 4.4 4.5 6.7 5.7.3.2.6.2 1 .2s.7-.1 1-.3c2.5-1.5 8.1-6.6 7.6-7.2z"/><path class="st7" d="M625.4 249.8s-.7-6.7.7-9.3c1.4-2.6 2.6-.3 2.6-.3s.1-4.3 2.4-5.7 3.5.1 3 .9c0 0 3.8-2.9 6-1.5 2.3 1.4-.1 2.7-1.3 3-1.2.3-2.6 1.2-2.6 1.2s2.2-.7 1.8.9c-.4 1.6-4.5 2.3-4.5 2.3s.8.6 0 1.6-3.2.5-4.9 1.8c-1.6 1.3-3.2 5.1-3.2 5.1z"/><path class="st31" d="M626 246.9s2.6-5.8 5.9-7.5c3.8-2-3.4 3.6-4 4.7-.7 1.2-1.9 2.8-1.9 2.8z"/><path class="st8" d="M622.3 257.2s1.8-3.9 2.9-3.9.9.5.9.5 1.5-2.8 2.5-2.4c1 .3.5.5.5.5s1.7-2.6 3.1-2.9c1.4-.3.7 2-1 3.7 0 0 1.4-.4.9.8s-3.3 1.6-3.3 1.6 1.1.3.3 1.1c-.8.9-5.1 1.2-6 1.1l-.8-.1z"/><g><path class="st31" d="M622.7 257.2s3.8-1.2 5.2-2.3c1.4-1.1-4.6 1.7-4.6 1.7s1.7-1.6 1.1-1.8-2.2 2.4-2.2 2.4l.1.1.4-.1z"/></g><g><path class="st12" d="M484.8 203.2s9.5 1.4 13 13c0 .1-9.5-1.9-13-13z"/></g><g><path class="st6" d="M606.8 99.8c3.5-1.7 7.6 9.5 8.6 12.5.5-2 .9-4 1-6.2-.7-4-1.9-15 .8-14.5 3.4.6 1.3 9.7.1 13.9h.1c-.1 1.9-.3 3.7-.7 5.5 2.3-3.3 9.3-11.9 10.8-9.7 2.3 3.2-8.5 9.2-11 10.6-.4 1.8-1 3.5-1.6 5.1 2.9-2.5 12.2-9.3 13.2-6.7 1.4 3.8-10.8 6.7-13.5 7.3-1 2.3-2.2 4.5-3.5 6.4 2.9-1.4 14.8-5.7 14.9-2.8.2 4.1-12.8 3.3-15.2 3.1-4.7 6.9-10.1 10.8-10.2 10.9l-.5-.7c.1-.1 5-3.6 9.5-9.9-2.1-2.6-8.3-11.8-5.8-12.6 3.3-1 5.5 8.6 6.1 12.1 1.1-1.6 2.1-3.3 3.1-5.3-2.3-2.1-11-11.5-8.3-12.8 3.5-1.7 7.5 9.1 8.5 12.3.8-1.7 1.5-3.6 2.1-5.5-2.1-1.9-11.2-11.7-8.5-13z"/></g></g><g id="mensaje"><path class="st11" d="M561.3 221.6l-21-17.8s-113.1-19.2-71.9-86.3 177.9-.4 154.6 45c-16.2 31.4-65 39.5-65 39.5l3.3 19.6z"/><path class="st0" d="M501 133c0-1.4-1.3-2.5-1.5-3.9-.1-1.4.2-3.1 1.5-4 .7-.5 2.6-.7 2.4.7-.1.5-.9.9-1.2 1.3-.4.6-.5 1.4-.4 2.1.2 1.4 1.3 2.4 1.5 3.8.3 1.5-.2 3-1.5 4-.6.5-3.3 1.2-2.8-.5.2-.6 1.2-1 1.5-1.5.5-.6.6-1.3.5-2zm6.1 2.8c.3-2 .5-4 .8-6.1.2-1.5.3-4.2 1.7-5.1 1.3-.9 2.6.4 3 1.5.6 1.9.8 4 1 5.9.1 1.1 1.1 4.2-.3 4.8-2 .8-1.9-1.7-2.2-2.8-.1-.5-.5-1.3-1.2-.7-.5.4-.4 1.7-.6 2.2-.2.5-.3 1-.9 1.2-.7.3-1.3-.2-1.3-.9zm3.4-7.1c-.1.3-.8 2.8 0 2.7.7-.2.1-2.4 0-2.7zm9.8 9.2c-1.7 0-2.9-.4-3.7-2-.9-1.6-1-3.4-.8-5.2.1-2 .1-3.9.4-5.9.1-.8.3-1.2 1.1-1.1.8.1 1.1.5 1.1 1.2.2 1.8-.1 3.7-.2 5.5-.1 1.6-.3 3.9 1 5.2 1 1 3-.4 3.7.8 1.2 1.7-2.6 1.3-2.6 1.5zm6.7-4.2c.6-.4.5-1.9.5-2.6.1-1.1.1-2.1.2-3.1 0-.7-.1-1.5.7-1.7.6-.2 1.5.3 1.7.9.2.7-.1 1.9-.1 2.6 0 1-.1 2-.2 2.9-.2 1.5-.4 3.9-2.4 3.9-3.8 0-3.4-6.4-3.1-8.7.1-.6.1-1.6.8-1.7.8-.2 1.4.5 1.5 1.1.4 2.1-.4 4.4.4 6.4zm6.2-3.3c0-1.9-.9-7.3 2.6-6 2.8 1.1 3.5 4.8 3.3 7.4-.2 2-1.5 5.5-3.9 5.7-3.2.4-1.5-7.1-2-7.1zm2.7-2.4c0 .9-.4 4.7.3 5.2.4-1.8.4-3.6-.3-5.2zm6.1 7.8c.3-2 .5-4 .8-6.1.2-1.5.3-4.2 1.7-5.1 1.3-.9 2.6.4 3 1.5.6 1.9.8 4 1 5.9.1 1.1 1.1 4.2-.3 4.8-2 .8-1.9-1.7-2.2-2.8-.1-.5-.5-1.3-1.2-.7-.5.4-.4 1.7-.6 2.2-.2.5-.3 1-.9 1.2-.7.2-1.3-.2-1.3-.9zm3.4-7.2c-.1.3-.8 2.8 0 2.7.7-.1.1-2.3 0-2.7zm8.3 3.2c-.4 1.1 0 2.9 0 4.1 0 .8.4 2.3-.7 2.6-2.5.7-1.7-4.6-1.7-5.7 0-1.4-.2-2.8 0-4.1.1-1.1.2-2.7 1.7-2.6 2.7.2 2.2 4.1 3.5 5.7.6-.5.1-3.1 0-3.9-.1-1.2-.6-3.1-.2-4.3.3-1.1 1.8-.7 2.2.2.5 1.2.3 3.1.4 4.4.1 1.4 0 2.7.1 4.1.1 1.1.6 2.9-.4 3.7-2.5 1.9-3.9-3.2-4.9-4.2zm15.9-2.2c0 1.8-.4 3.4-.8 5.1-.3 1.2-1 3.1-2.4 3.5-3.7 1-4.5-4.1-4.6-6.4-.1-1.6 0-3.4.3-5 .3-1.8 1-2.6 2.9-2.9 1.3-.2 2.7.2 3.6 1.2 1 1.2.9 3.1 1 4.5zm-4.1 6c.9-1.5 1.2-3.3 1.4-5 .1-1 .5-4.2-1-4.5-2.5-.6-1.2 8.1-.4 9.5zm9.4-2.7c0-1.4-1.3-2.5-1.5-3.9-.1-1.4.2-3.1 1.5-4 .7-.5 2.6-.7 2.4.7-.1.5-.9.9-1.2 1.3-.4.6-.5 1.4-.4 2.1.2 1.4 1.3 2.4 1.5 3.8.3 1.5-.2 3-1.5 4-.6.5-3.3 1.2-2.8-.5.2-.6 1.2-1 1.5-1.5.5-.6.6-1.3.5-2zm9.2 6.6c0 .9.2 2.6-1.3 2.2-1.4-.4-1-1.8-.9-2.9.1-.9-.4-2.8 1.2-2.2.8.3 1.5 2.9 1 2.9zm-90.4 14.1c0 1.8-.4 3.4-.8 5.1-.3 1.2-1 3.1-2.4 3.5-3.7 1-4.5-4.1-4.6-6.4-.1-1.6 0-3.4.3-5 .3-1.8 1-2.6 2.9-2.9 1.3-.2 2.7.2 3.6 1.2 1 1.2.9 3 1 4.5zm-4.1 5.9c.9-1.5 1.2-3.3 1.4-5 .1-1 .5-4.2-1-4.5-2.5-.6-1.2 8.2-.4 9.5zm10 .2c-.1.8.1 1.6-.7 2-1 .4-1.7-.1-1.9-1-.5-1.9-.5-4.1-.4-6.1 0-2-.3-4.3.1-6.3.3-1.5 1.8-1.6 3.1-1 1.6.7 2.1 2.1 2.2 3.7.1.9.1 1.9-.1 2.9-.2.9-.6 1.7-.9 2.6-.3 1.1.1 1.5.8 2.3.5.5 1.6 1.2 1.6 2 .1.8-.8 1-1.4.9-1.1-.3-1.7-1.3-2.4-2zm-.4-9.6v3.8c.4-1.2.3-2.5 0-3.8zm12.9 6.7c0-1.4-1.3-2.5-1.5-3.9-.1-1.4.2-3.1 1.5-4 .7-.5 2.6-.7 2.4.7-.1.5-.9.9-1.2 1.3-.4.6-.5 1.4-.4 2.1.2 1.4 1.3 2.4 1.5 3.8.3 1.5-.2 3-1.5 4-.6.5-3.3 1.2-2.8-.5.2-.6 1.2-1 1.5-1.5.5-.6.6-1.3.5-2zm6 2.9c.3-2 .5-4 .8-6.1.2-1.5.3-4.2 1.7-5.1 1.3-.9 2.6.4 3 1.5.6 1.9.8 4 1 5.9.1 1.1 1.1 4.2-.3 4.8-2 .8-1.9-1.7-2.2-2.8-.1-.5-.5-1.3-1.2-.7-.5.4-.4 1.7-.6 2.2-.2.5-.3 1-.9 1.2-.6.2-1.2-.2-1.3-.9zm3.5-7.2c-.1.3-.8 2.8 0 2.7.7-.1.1-2.3 0-2.7zm8.8 2.6c-1.7.7-3.3.2-4.1-1.5-.5-.9-1.1-4.6 1.1-3.7.9.4.8 1.2 1 2 .2 1.1.6 1.5 1.4.6.8-.9 2.8-4.1 4.3-2.1.5.7 0 1.5-.2 2.2-.4 1.1-.7 2.2-.9 3.3-.3 1-.6 2-.8 3-.3.9-.4 2.3-.9 3.1-.3.6-.9.7-1.5.5-.8-.3-.9-.8-.8-1.6.2-2.1 1.1-3.9 1.4-5.8zm16.1 1.4c-.6-.1-1.7-.2-2 .3-.4.8.3 2.1 0 3-.2.7-.8 1-1.5.7-.8-.3-1-1.1-1-1.8-.2-2 0-4.1 0-6.2 0-1.1-.2-4.5 2-3.3 1.6.8-.3 3.7.6 5 .2.4 1 .4 1.4.3.6-.2.6-.3.7-1 .1-1 .1-2 .2-3.1.1-.8-.1-2 .9-2.2.9-.2 1.5.4 1.6 1.2.1.9-.2 2-.2 2.9 0 1.1-.1 2.2-.1 3.3v3.7c0 .8.3 1.9-.8 2.2-2.3.6-1.5-3.9-1.8-5zm8.2-7.3c-.2 1.1-.1 2.6 0 3.7.2 1.5.9.6 2 1 .8.3 1.1 1 .4 1.5-1 .7-2-.3-2 1.4 0 .8.1 2.7.8 3.3.7.6 2.2-.2 2.9.6 1.7 1.8-3.2 1.7-4 1.3-2-.9-2-3.8-2.3-5.6-.3-2.4-.3-4.8-.2-7.2 0-1.2.3-1.7 1.5-1.9.9-.1 2.4-.4 3.4-.1.7.2 1.5.9.9 1.6-.5.5-2.6.2-3.4.4zm11.5 12.5c-1.7 0-2.9-.4-3.7-2-.9-1.6-1-3.4-.8-5.2.1-2 .1-3.9.4-5.9.1-.8.3-1.2 1.1-1.1.8.1 1.1.5 1.1 1.2.2 1.8-.1 3.7-.2 5.5-.1 1.6-.3 3.9 1 5.2 1 1 3-.4 3.7.8 1.2 1.7-2.6 1.3-2.6 1.5zm8.6 0c-1.7 0-2.9-.4-3.7-2-.9-1.6-1-3.4-.8-5.2.1-2 .1-3.9.4-5.9.1-.8.3-1.2 1.1-1.1.8.1 1.1.5 1.1 1.2.2 1.8-.1 3.7-.2 5.5-.1 1.6-.3 3.9 1 5.2 1 1 3-.4 3.7.8 1.2 1.7-2.6 1.3-2.6 1.5zm11.7-8.2c0 1.8-.4 3.4-.8 5.1-.3 1.2-1 3.1-2.4 3.5-3.7 1-4.5-4.1-4.6-6.4-.1-1.6 0-3.4.3-5 .3-1.8 1-2.6 2.9-2.9 1.3-.2 2.7.2 3.6 1.2.9 1.2.8 3 1 4.5zm-4.2 5.9c.9-1.5 1.2-3.3 1.4-5 .1-1 .5-4.2-1-4.5-2.5-.6-1.2 8.1-.4 9.5zm13.1-5.7c-1.5 0-1.6-2.1-.1-1.9 1.5.2 1.7 2.1.1 1.9zm.5 8.9c-1.2.2-2.2-1.7-.6-1.9 1.1 0 2.1 1.7.6 1.9zm7.3-10.9c.3 1.6.3 3.3.5 4.9-.1 1.4 0 8.5-3 7.2-1.4-.6.1-2.5.3-3.5.4-1.6.3-3.4.3-5.1-.1-1.6-.2-3.2-.6-4.7-.2-.7-1.2-3 .5-2.7 1.3.3 1.8 2.8 2 3.9z"/></g></svg>